<svg width="13" height="14" viewBox="0 0 13 14" fill="none" xmlns="http://www.w3.org/2000/svg">
<path d="M6.5 0.625C2.89453 0.625 0 3.54492 0 7.125C0 10.7305 2.89453 13.625 6.5 13.625C10.0801 13.625 13 10.7305 13 7.125C13 3.54492 10.0801 0.625 6.5 0.625ZM8.53125 8.31836C8.75977 8.57227 8.75977 8.95312 8.53125 9.18164C8.27734 9.43555 7.89648 9.43555 7.66797 9.18164L6.5 7.98828L5.28125 9.18164C5.05273 9.43555 4.67188 9.43555 4.44336 9.18164C4.18945 8.95312 4.18945 8.57227 4.44336 8.31836L5.63672 7.125L4.44336 5.93164C4.18945 5.67773 4.18945 5.29688 4.44336 5.06836C4.67188 4.81445 5.05273 4.81445 5.28125 5.06836L6.5 6.28711L7.69336 5.09375C7.92188 4.83984 8.30273 4.83984 8.53125 5.09375C8.78516 5.32227 8.78516 5.70312 8.53125 5.95703L7.33789 7.15039L8.53125 8.31836Z" fill="#C1C1C1"/>
</svg>
