<?xml version="1.0" encoding="UTF-8"?><svg xmlns="http://www.w3.org/2000/svg" xmlns:xlink="http://www.w3.org/1999/xlink" fill-opacity="1" color-rendering="auto" color-interpolation="auto" text-rendering="auto" stroke="black" stroke-linecap="square" width="952" stroke-miterlimit="10" shape-rendering="auto" stroke-opacity="1" fill="black" stroke-dasharray="none" font-weight="normal" stroke-width="1" height="349" font-family="'Dialog'" font-style="normal" stroke-linejoin="miter" font-size="12px" stroke-dashoffset="0" image-rendering="auto">
  <!--Generated by ySVG 2.5-->
  <defs id="genericDefs"/>
  <g>
    <defs id="defs1">
      <linearGradient x1="-43.4954" gradientUnits="userSpaceOnUse" x2="27.5" y1="140.5694" y2="194.4583" id="linearGradient1" spreadMethod="reflect">
        <stop stop-opacity="1" stop-color="rgb(232,238,247)" offset="0%"/>
        <stop stop-opacity="1" stop-color="teal" offset="100%"/>
      </linearGradient>
      <linearGradient x1="190.5093" gradientUnits="userSpaceOnUse" x2="479.9653" y1="146.5949" y2="200.4838" id="linearGradient2" spreadMethod="reflect">
        <stop stop-opacity="1" stop-color="rgb(232,238,247)" offset="0%"/>
        <stop stop-opacity="1" stop-color="rgb(183,201,227)" offset="100%"/>
      </linearGradient>
      <linearGradient x1="-20.897" gradientUnits="userSpaceOnUse" x2="136.6493" y1="-117.8264" y2="-81.8773" id="linearGradient3" spreadMethod="reflect">
        <stop stop-opacity="1" stop-color="rgb(232,238,247)" offset="0%"/>
        <stop stop-opacity="1" stop-color="teal" offset="100%"/>
      </linearGradient>
      <linearGradient x1="230.2604" gradientUnits="userSpaceOnUse" x2="406.3438" y1="-117.8264" y2="-81.8773" id="linearGradient4" spreadMethod="reflect">
        <stop stop-opacity="1" stop-color="rgb(232,238,247)" offset="0%"/>
        <stop stop-opacity="1" stop-color="rgb(183,201,227)" offset="100%"/>
      </linearGradient>
      <linearGradient x1="45.3519" gradientUnits="userSpaceOnUse" x2="129.9815" y1="2.8333" y2="50.3565" id="linearGradient5" spreadMethod="reflect">
        <stop stop-opacity="1" stop-color="rgb(232,238,247)" offset="0%"/>
        <stop stop-opacity="1" stop-color="teal" offset="100%"/>
      </linearGradient>
      <linearGradient x1="-56.0995" gradientUnits="userSpaceOnUse" x2="40.1042" y1="2.8333" y2="50.3565" id="linearGradient6" spreadMethod="reflect">
        <stop stop-opacity="1" stop-color="rgb(232,238,247)" offset="0%"/>
        <stop stop-opacity="1" stop-color="teal" offset="100%"/>
      </linearGradient>
      <linearGradient x1="363.6875" gradientUnits="userSpaceOnUse" x2="454.8102" y1="6.5949" y2="46.5949" id="linearGradient7" spreadMethod="reflect">
        <stop stop-opacity="1" stop-color="rgb(232,238,247)" offset="0%"/>
        <stop stop-opacity="1" stop-color="rgb(183,201,227)" offset="100%"/>
      </linearGradient>
      <linearGradient x1="142.713" gradientUnits="userSpaceOnUse" x2="227.3426" y1="2.8333" y2="46.5949" id="linearGradient8" spreadMethod="reflect">
        <stop stop-opacity="1" stop-color="rgb(232,238,247)" offset="0%"/>
        <stop stop-opacity="1" stop-color="rgb(183,201,227)" offset="100%"/>
      </linearGradient>
      <linearGradient x1="509.0089" gradientUnits="userSpaceOnUse" x2="620.2589" y1="6.5949" y2="46.5949" id="linearGradient9" spreadMethod="reflect">
        <stop stop-opacity="1" stop-color="rgb(232,238,247)" offset="0%"/>
        <stop stop-opacity="1" stop-color="rgb(183,201,227)" offset="100%"/>
      </linearGradient>
      <linearGradient x1="236.9329" gradientUnits="userSpaceOnUse" x2="328.0555" y1="6.5949" y2="50.3565" id="linearGradient10" spreadMethod="reflect">
        <stop stop-opacity="1" stop-color="rgb(232,238,247)" offset="0%"/>
        <stop stop-opacity="1" stop-color="rgb(183,201,227)" offset="100%"/>
      </linearGradient>
      <linearGradient x1="605.4213" gradientUnits="userSpaceOnUse" x2="685.4213" y1="-117.8264" y2="-81.8773" id="linearGradient11" spreadMethod="reflect">
        <stop stop-opacity="1" stop-color="rgb(232,238,247)" offset="0%"/>
        <stop stop-opacity="1" stop-color="rgb(183,201,227)" offset="100%"/>
      </linearGradient>
      <linearGradient x1="720.2454" gradientUnits="userSpaceOnUse" x2="853.9202" y1="-117.8264" y2="-81.8773" id="linearGradient12" spreadMethod="reflect">
        <stop stop-opacity="1" stop-color="rgb(232,238,247)" offset="0%"/>
        <stop stop-opacity="1" stop-color="rgb(183,201,227)" offset="100%"/>
      </linearGradient>
      <linearGradient x1="495.4213" gradientUnits="userSpaceOnUse" x2="575.4213" y1="-117.8264" y2="-81.8773" id="linearGradient13" spreadMethod="reflect">
        <stop stop-opacity="1" stop-color="rgb(232,238,247)" offset="0%"/>
        <stop stop-opacity="1" stop-color="teal" offset="100%"/>
      </linearGradient>
      <linearGradient x1="658.439" gradientUnits="userSpaceOnUse" x2="769.689" y1="6.5949" y2="46.5949" id="linearGradient14" spreadMethod="reflect">
        <stop stop-opacity="1" stop-color="rgb(232,238,247)" offset="0%"/>
        <stop stop-opacity="1" stop-color="rgb(183,201,227)" offset="100%"/>
      </linearGradient>
      <clipPath clipPathUnits="userSpaceOnUse" id="clipPath1">
        <path d="M0 0 L952 0 L952 349 L0 349 L0 0 Z"/>
      </clipPath>
      <clipPath clipPathUnits="userSpaceOnUse" id="clipPath2">
        <path d="M-83 -133 L869 -133 L869 216 L-83 216 L-83 -133 Z"/>
      </clipPath>
    </defs>
    <g fill="white" text-rendering="geometricPrecision" shape-rendering="geometricPrecision" transform="translate(83,133)" stroke="white">
      <rect x="-83" width="952" height="349" y="-133" clip-path="url(#clipPath2)" stroke="none"/>
    </g>
    <g fill="url(#linearGradient1)" text-rendering="geometricPrecision" shape-rendering="geometricPrecision" transform="matrix(1,0,0,1,83,133)" stroke="url(#linearGradient1)">
      <path d="M-43.4954 151.3472 C-41.3655 140.5694 25.3701 140.5694 27.5 151.3472 L27.5 183.6806 C25.3701 194.4583 -41.3655 194.4583 -43.4954 183.6806 Z" stroke="none" clip-path="url(#clipPath2)"/>
    </g>
    <g text-rendering="geometricPrecision" stroke-miterlimit="1.45" shape-rendering="geometricPrecision" transform="matrix(1,0,0,1,83,133)" stroke-linecap="butt">
      <path fill="none" d="M-43.4954 151.3472 C-41.3655 140.5694 25.3701 140.5694 27.5 151.3472 L27.5 183.6806 C25.3701 194.4583 -41.3655 194.4583 -43.4954 183.6806 Z" clip-path="url(#clipPath2)"/>
      <path fill="none" d="M27.5 151.3472 C25.3701 162.125 -41.3655 162.125 -43.4954 151.3472" clip-path="url(#clipPath2)"/>
      <text x="-33.2721" xml:space="preserve" y="171.7943" clip-path="url(#clipPath2)" font-family="sans-serif" stroke="none">Virkailija</text>
      <text x="-34.1364" xml:space="preserve" y="185.9271" clip-path="url(#clipPath2)" font-family="sans-serif" stroke="none">database</text>
    </g>
    <g fill="url(#linearGradient2)" text-rendering="geometricPrecision" shape-rendering="geometricPrecision" transform="matrix(1,0,0,1,83,133)" stroke="url(#linearGradient2)">
      <path d="M190.5093 157.3727 C199.1929 146.5949 471.2816 146.5949 479.9653 157.3727 L479.9653 189.706 C471.2816 200.4838 199.1929 200.4838 190.5093 189.706 Z" stroke="none" clip-path="url(#clipPath2)"/>
    </g>
    <g text-rendering="geometricPrecision" stroke-miterlimit="1.45" shape-rendering="geometricPrecision" transform="matrix(1,0,0,1,83,133)" stroke-linecap="butt">
      <path fill="none" d="M190.5093 157.3727 C199.1929 146.5949 471.2816 146.5949 479.9653 157.3727 L479.9653 189.706 C471.2816 200.4838 199.1929 200.4838 190.5093 189.706 Z" clip-path="url(#clipPath2)"/>
      <path fill="none" d="M479.9653 157.3727 C471.2816 168.1505 199.1929 168.1505 190.5093 157.3727" clip-path="url(#clipPath2)"/>
      <text x="317.1347" xml:space="preserve" y="177.8197" clip-path="url(#clipPath2)" font-family="sans-serif" stroke="none">Hakija</text>
      <text x="309.0986" xml:space="preserve" y="191.9525" clip-path="url(#clipPath2)" font-family="sans-serif" stroke="none">database</text>
    </g>
    <g fill="url(#linearGradient3)" text-rendering="geometricPrecision" shape-rendering="geometricPrecision" transform="matrix(1,0,0,1,83,133)" stroke="url(#linearGradient3)">
      <path d="M-20.897 -117.8264 L136.6493 -117.8264 L136.6493 -81.8773 L-20.897 -81.8773 Z" stroke="none" clip-path="url(#clipPath2)"/>
    </g>
    <g text-rendering="geometricPrecision" stroke-miterlimit="1.45" shape-rendering="geometricPrecision" transform="matrix(1,0,0,1,83,133)" stroke-linecap="butt">
      <path fill="none" d="M-20.897 -117.8264 L136.6493 -117.8264 L136.6493 -81.8773 L-20.897 -81.8773 Z" clip-path="url(#clipPath2)"/>
      <text x="32.6017" xml:space="preserve" y="-95.3167" clip-path="url(#clipPath2)" font-family="sans-serif" stroke="none">Virkailija</text>
    </g>
    <g fill="url(#linearGradient4)" text-rendering="geometricPrecision" shape-rendering="geometricPrecision" transform="matrix(1,0,0,1,83,133)" stroke="url(#linearGradient4)">
      <path d="M230.2604 -117.8264 L406.3438 -117.8264 L406.3438 -81.8773 L230.2604 -81.8773 Z" stroke="none" clip-path="url(#clipPath2)"/>
    </g>
    <g text-rendering="geometricPrecision" stroke-miterlimit="1.45" shape-rendering="geometricPrecision" transform="matrix(1,0,0,1,83,133)" stroke-linecap="butt">
      <path fill="none" d="M230.2604 -117.8264 L406.3438 -117.8264 L406.3438 -81.8773 L230.2604 -81.8773 Z" clip-path="url(#clipPath2)"/>
      <text x="300.1996" xml:space="preserve" y="-95.3167" clip-path="url(#clipPath2)" font-family="sans-serif" stroke="none">Hakija</text>
    </g>
    <g fill="url(#linearGradient5)" text-rendering="geometricPrecision" shape-rendering="geometricPrecision" transform="matrix(1,0,0,1,83,133)" stroke="url(#linearGradient5)">
      <ellipse rx="42.3148" ry="23.7616" clip-path="url(#clipPath2)" cx="87.6667" cy="26.5949" stroke="none"/>
    </g>
    <g text-rendering="geometricPrecision" stroke-miterlimit="1.45" shape-rendering="geometricPrecision" transform="matrix(1,0,0,1,83,133)" stroke-linecap="butt">
      <ellipse rx="42.3148" fill="none" ry="23.7616" clip-path="url(#clipPath2)" cx="87.6667" cy="26.5949"/>
      <text x="63.8219" xml:space="preserve" y="24.0637" clip-path="url(#clipPath2)" font-family="sans-serif" stroke="none">Hakujen</text>
      <text x="66.1452" xml:space="preserve" y="38.1965" clip-path="url(#clipPath2)" font-family="sans-serif" stroke="none">hallinta</text>
    </g>
    <g fill="url(#linearGradient6)" text-rendering="geometricPrecision" shape-rendering="geometricPrecision" transform="matrix(1,0,0,1,83,133)" stroke="url(#linearGradient6)">
      <ellipse rx="48.1019" ry="23.7616" clip-path="url(#clipPath2)" cx="-7.9977" cy="26.5949" stroke="none"/>
    </g>
    <g text-rendering="geometricPrecision" stroke-miterlimit="1.45" shape-rendering="geometricPrecision" transform="matrix(1,0,0,1,83,133)" stroke-linecap="butt">
      <ellipse rx="48.1019" fill="none" ry="23.7616" clip-path="url(#clipPath2)" cx="-7.9977" cy="26.5949"/>
      <text x="-44.2643" xml:space="preserve" y="24.0637" clip-path="url(#clipPath2)" font-family="sans-serif" stroke="none">Hakemusten</text>
      <text x="-31.7282" xml:space="preserve" y="38.1965" clip-path="url(#clipPath2)" font-family="sans-serif" stroke="none">arviointi</text>
    </g>
    <g fill="url(#linearGradient7)" text-rendering="geometricPrecision" shape-rendering="geometricPrecision" transform="matrix(1,0,0,1,83,133)" stroke="url(#linearGradient7)">
      <ellipse rx="45.5613" ry="20" clip-path="url(#clipPath2)" cx="409.2488" cy="26.5949" stroke="none"/>
    </g>
    <g text-rendering="geometricPrecision" stroke-miterlimit="1.45" shape-rendering="geometricPrecision" transform="matrix(1,0,0,1,83,133)" stroke-linecap="butt">
      <ellipse rx="45.5613" fill="none" ry="20" clip-path="url(#clipPath2)" cx="409.2488" cy="26.5949"/>
      <text x="371.7195" xml:space="preserve" y="24.0637" clip-path="url(#clipPath2)" font-family="sans-serif" stroke="none">Hakemuksen</text>
      <text x="379.1287" xml:space="preserve" y="38.1965" clip-path="url(#clipPath2)" font-family="sans-serif" stroke="none">muokkaus</text>
    </g>
    <g fill="url(#linearGradient8)" text-rendering="geometricPrecision" shape-rendering="geometricPrecision" transform="matrix(1,0,0,1,83,133)" stroke="url(#linearGradient8)">
      <ellipse rx="42.3148" ry="21.8808" clip-path="url(#clipPath2)" cx="185.0278" cy="24.7141" stroke="none"/>
    </g>
    <g text-rendering="geometricPrecision" stroke-miterlimit="1.45" shape-rendering="geometricPrecision" transform="matrix(1,0,0,1,83,133)" stroke-linecap="butt">
      <ellipse rx="42.3148" fill="none" ry="21.8808" clip-path="url(#clipPath2)" cx="185.0278" cy="24.7141"/>
      <text x="151.8051" xml:space="preserve" y="22.1829" clip-path="url(#clipPath2)" font-family="sans-serif" stroke="none">Lomakkeen</text>
      <text x="155.9682" xml:space="preserve" y="36.3157" clip-path="url(#clipPath2)" font-family="sans-serif" stroke="none">esikatselu</text>
    </g>
    <g fill="url(#linearGradient9)" text-rendering="geometricPrecision" shape-rendering="geometricPrecision" transform="matrix(1,0,0,1,83,133)" stroke="url(#linearGradient9)">
      <ellipse rx="55.625" ry="20" clip-path="url(#clipPath2)" cx="564.6339" cy="26.5949" stroke="none"/>
    </g>
    <g text-rendering="geometricPrecision" stroke-miterlimit="1.45" shape-rendering="geometricPrecision" transform="matrix(1,0,0,1,83,133)" stroke-linecap="butt">
      <ellipse rx="55.625" fill="none" ry="20" clip-path="url(#clipPath2)" cx="564.6339" cy="26.5949"/>
      <text x="527.1046" xml:space="preserve" y="24.0637" clip-path="url(#clipPath2)" font-family="sans-serif" stroke="none">Hakemuksen</text>
      <text x="526.5919" xml:space="preserve" y="38.1965" clip-path="url(#clipPath2)" font-family="sans-serif" stroke="none">lähettäminen</text>
    </g>
    <g fill="url(#linearGradient10)" text-rendering="geometricPrecision" shape-rendering="geometricPrecision" transform="matrix(1,0,0,1,83,133)" stroke="url(#linearGradient10)">
      <ellipse rx="45.5613" ry="21.8808" clip-path="url(#clipPath2)" cx="282.4942" cy="28.4757" stroke="none"/>
    </g>
    <g text-rendering="geometricPrecision" stroke-miterlimit="1.45" shape-rendering="geometricPrecision" transform="matrix(1,0,0,1,83,133)" stroke-linecap="butt">
      <ellipse rx="45.5613" fill="none" ry="21.8808" clip-path="url(#clipPath2)" cx="282.4942" cy="28.4757"/>
      <text x="244.9649" xml:space="preserve" y="25.9444" clip-path="url(#clipPath2)" font-family="sans-serif" stroke="none">Hakemuksen</text>
      <text x="246.0987" xml:space="preserve" y="40.0773" clip-path="url(#clipPath2)" font-family="sans-serif" stroke="none">aloittaminen</text>
    </g>
    <g fill="url(#linearGradient11)" text-rendering="geometricPrecision" shape-rendering="geometricPrecision" transform="matrix(1,0,0,1,83,133)" stroke="url(#linearGradient11)">
      <path d="M605.4213 -117.8264 L685.4213 -117.8264 L685.4213 -81.8773 L605.4213 -81.8773 Z" stroke="none" clip-path="url(#clipPath2)"/>
    </g>
    <g text-rendering="geometricPrecision" stroke-miterlimit="1.45" shape-rendering="geometricPrecision" transform="matrix(1,0,0,1,83,133)" stroke-linecap="butt">
      <path fill="none" d="M605.4213 -117.8264 L685.4213 -117.8264 L685.4213 -81.8773 L605.4213 -81.8773 Z" clip-path="url(#clipPath2)"/>
      <text x="623.5952" xml:space="preserve" y="-102.3831" clip-path="url(#clipPath2)" font-family="sans-serif" stroke="none">Hakijan</text>
      <text x="619.9858" xml:space="preserve" y="-88.2503" clip-path="url(#clipPath2)" font-family="sans-serif" stroke="none">kirjaamo</text>
    </g>
    <g fill="url(#linearGradient12)" text-rendering="geometricPrecision" shape-rendering="geometricPrecision" transform="matrix(1,0,0,1,83,133)" stroke="url(#linearGradient12)">
      <path d="M720.2454 -117.8264 L853.9202 -117.8264 L853.9202 -81.8773 L720.2454 -81.8773 Z" stroke="none" clip-path="url(#clipPath2)"/>
    </g>
    <g text-rendering="geometricPrecision" stroke-miterlimit="1.45" shape-rendering="geometricPrecision" transform="matrix(1,0,0,1,83,133)" stroke-linecap="butt">
      <path fill="none" d="M720.2454 -117.8264 L853.9202 -117.8264 L853.9202 -81.8773 L720.2454 -81.8773 Z" clip-path="url(#clipPath2)"/>
      <text x="725.7937" xml:space="preserve" y="-102.3831" clip-path="url(#clipPath2)" font-family="sans-serif" stroke="none">Hakijan allekirjoitus-</text>
      <text x="724.5281" xml:space="preserve" y="-88.2503" clip-path="url(#clipPath2)" font-family="sans-serif" stroke="none">oikeudelliset henkilöt</text>
    </g>
    <g fill="url(#linearGradient13)" text-rendering="geometricPrecision" shape-rendering="geometricPrecision" transform="matrix(1,0,0,1,83,133)" stroke="url(#linearGradient13)">
      <path d="M495.4213 -117.8264 L575.4213 -117.8264 L575.4213 -81.8773 L495.4213 -81.8773 Z" stroke="none" clip-path="url(#clipPath2)"/>
    </g>
    <g text-rendering="geometricPrecision" stroke-miterlimit="1.45" shape-rendering="geometricPrecision" transform="matrix(1,0,0,1,83,133)" stroke-linecap="butt">
      <path fill="none" d="M495.4213 -117.8264 L575.4213 -117.8264 L575.4213 -81.8773 L495.4213 -81.8773 Z" clip-path="url(#clipPath2)"/>
      <text x="517.4125" xml:space="preserve" y="-102.3831" clip-path="url(#clipPath2)" font-family="sans-serif" stroke="none">OPH:n</text>
      <text x="509.9857" xml:space="preserve" y="-88.2503" clip-path="url(#clipPath2)" font-family="sans-serif" stroke="none">kirjaamo</text>
    </g>
    <g fill="url(#linearGradient14)" text-rendering="geometricPrecision" shape-rendering="geometricPrecision" transform="matrix(1,0,0,1,83,133)" stroke="url(#linearGradient14)">
      <ellipse rx="55.625" ry="20" clip-path="url(#clipPath2)" cx="714.064" cy="26.5949" stroke="none"/>
    </g>
    <g text-rendering="geometricPrecision" stroke-miterlimit="1.45" shape-rendering="geometricPrecision" transform="matrix(1,0,0,1,83,133)" stroke-linecap="butt">
      <ellipse rx="55.625" fill="none" ry="20" clip-path="url(#clipPath2)" cx="714.064" cy="26.5949"/>
      <text x="676.5347" xml:space="preserve" y="24.0637" clip-path="url(#clipPath2)" font-family="sans-serif" stroke="none">Hakemuksen</text>
      <text x="685.0045" xml:space="preserve" y="38.1965" clip-path="url(#clipPath2)" font-family="sans-serif" stroke="none">esikatselu</text>
    </g>
    <g text-rendering="geometricPrecision" stroke-miterlimit="1.45" shape-rendering="geometricPrecision" transform="matrix(1,0,0,1,83,133)" stroke-linecap="butt">
      <path fill="none" d="M63.9509 -74.0674 L80.2867 -4.7298" clip-path="url(#clipPath2)"/>
    </g>
    <g text-rendering="geometricPrecision" stroke-miterlimit="1.45" shape-rendering="geometricPrecision" transform="matrix(1,0,0,1,83,133)" stroke-linecap="butt">
      <path d="M62.1164 -81.8542 L60.0014 -69.0274 L64.1802 -73.094 L69.7349 -71.3206 Z" stroke="none" clip-path="url(#clipPath2)"/>
      <path d="M82.1212 3.057 L84.2361 -9.7698 L80.0573 -5.7032 L74.5026 -7.4766 Z" clip-path="url(#clipPath2)" stroke="none"/>
      <text x="25.537" font-size="10px" y="-41.6314" clip-path="url(#clipPath2)" font-family="sans-serif" stroke="none" xml:space="preserve">Haun ja lomakkeen</text>
      <text x="57.9003" font-size="10px" y="-29.854" clip-path="url(#clipPath2)" font-family="sans-serif" stroke="none" xml:space="preserve">tiedot</text>
      <path fill="none" d="M254.9981 145.4125 L128.1263 45.6074" clip-path="url(#clipPath2)"/>
      <path d="M261.2857 150.3588 L254.9457 139.0096 L254.2121 144.7943 L248.7628 146.8692 Z" clip-path="url(#clipPath2)" stroke="none"/>
      <path d="M121.8386 40.6611 L128.1787 52.0103 L128.9122 46.2257 L134.3615 44.1507 Z" clip-path="url(#clipPath2)" stroke="none"/>
      <text x="145.4512" font-size="10px" y="93.7481" clip-path="url(#clipPath2)" font-family="sans-serif" stroke="none" xml:space="preserve">Haun ja lomakkeen</text>
      <text x="177.8145" font-size="10px" y="105.5255" clip-path="url(#clipPath2)" font-family="sans-serif" stroke="none" xml:space="preserve">tiedot</text>
      <path fill="none" d="M-16.8405 -74.0615 L-33.6727 -0.7434" clip-path="url(#clipPath2)"/>
      <path d="M-15.0505 -81.8586 L-22.6088 -71.2817 L-17.0643 -73.0868 L-12.8623 -69.0441 Z" clip-path="url(#clipPath2)" stroke="none"/>
      <path d="M-35.4628 7.0537 L-27.9045 -3.5232 L-33.449 -1.7181 L-37.6509 -5.7608 Z" clip-path="url(#clipPath2)" stroke="none"/>
      <text x="-52.1077" font-size="10px" y="-60.0843" clip-path="url(#clipPath2)" font-family="sans-serif" stroke="none" xml:space="preserve">Hakemusten</text>
      <text x="-65.2351" font-size="10px" y="-48.307" clip-path="url(#clipPath2)" font-family="sans-serif" stroke="none" xml:space="preserve">arviot, kommentit</text>
      <text x="-51.4876" font-size="10px" y="-36.5297" clip-path="url(#clipPath2)" font-family="sans-serif" stroke="none" xml:space="preserve">ja päätökset</text>
      <path fill="none" d="M204.0461 153.9579 L29.4296 49.0754" clip-path="url(#clipPath2)"/>
      <path d="M22.5716 44.9562 L30.2841 55.4213 L30.2869 49.5903 L35.4331 46.8488 Z" clip-path="url(#clipPath2)" stroke="none"/>
      <text x="108.647" font-size="10px" y="123.4594" clip-path="url(#clipPath2)" font-family="sans-serif" stroke="none" xml:space="preserve">Haun, lomakkeen ja</text>
      <text x="111.3594" font-size="10px" y="135.2368" clip-path="url(#clipPath2)" font-family="sans-serif" stroke="none" xml:space="preserve">hakemusten tiedot</text>
      <path fill="none" d="M-7.9977 58.3681 L-7.9977 135.2897" clip-path="url(#clipPath2)"/>
      <path d="M-7.9977 50.3681 L-12.9977 62.3681 L-7.9977 59.3681 L-2.9977 62.3681 Z" clip-path="url(#clipPath2)" stroke="none"/>
      <path d="M-7.9977 143.2897 L-2.9977 131.2897 L-7.9977 134.2897 L-12.9977 131.2897 Z" clip-path="url(#clipPath2)" stroke="none"/>
      <text x="-38.2199" font-size="10px" y="87.4649" clip-path="url(#clipPath2)" font-family="sans-serif" stroke="none" xml:space="preserve">Hakemusten</text>
      <text x="-51.3473" font-size="10px" y="99.2423" clip-path="url(#clipPath2)" font-family="sans-serif" stroke="none" xml:space="preserve">arviot, kommentit</text>
      <text x="-37.5997" font-size="10px" y="111.0196" clip-path="url(#clipPath2)" font-family="sans-serif" stroke="none" xml:space="preserve">ja päätökset</text>
      <path fill="none" d="M3.9838 3.5962 L44.8251 -74.8" clip-path="url(#clipPath2)"/>
      <path d="M48.5213 -81.8949 L38.5427 -73.5626 L44.3631 -73.9131 L47.4114 -68.9424 Z" clip-path="url(#clipPath2)" stroke="none"/>
      <text x="-13.3888" font-size="10px" y="-23.1784" clip-path="url(#clipPath2)" font-family="sans-serif" stroke="none" xml:space="preserve">Hakemusten</text>
      <text x="2.6439" font-size="10px" y="-11.401" clip-path="url(#clipPath2)" font-family="sans-serif" stroke="none" xml:space="preserve">tiedot</text>
      <path fill="none" d="M348.4775 -81.8614 L394.4629 0.207" clip-path="url(#clipPath2)"/>
      <path d="M398.3735 7.1861 L396.8695 -5.7266 L393.9741 -0.6653 L388.1457 -0.8384 Z" clip-path="url(#clipPath2)" stroke="none"/>
      <text x="332.8029" font-size="10px" y="-60.0843" clip-path="url(#clipPath2)" font-family="sans-serif" stroke="none" xml:space="preserve">vastaukset</text>
      <path fill="none" d="M418.6935 7.0273 L368.5079 -75.0448" clip-path="url(#clipPath2)"/>
      <path d="M364.3345 -81.87 L366.3289 -69.0239 L369.0296 -74.1917 L374.8604 -74.2407 Z" clip-path="url(#clipPath2)" stroke="none"/>
      <text x="368.6936" font-size="10px" y="-19.4168" clip-path="url(#clipPath2)" font-family="sans-serif" stroke="none" xml:space="preserve">lomake ja sen </text>
      <text x="364.868" font-size="10px" y="-7.6395" clip-path="url(#clipPath2)" font-family="sans-serif" stroke="none" xml:space="preserve">validointivirheet</text>
      <path fill="none" d="M399.4011 46.1468 L351.039 142.1662" clip-path="url(#clipPath2)"/>
      <path d="M347.4403 149.3111 L357.3039 140.843 L351.4888 141.2731 L348.3727 136.3446 Z" clip-path="url(#clipPath2)" stroke="none"/>
      <text x="352.8962" font-size="10px" y="68.3879" clip-path="url(#clipPath2)" font-family="sans-serif" stroke="none" xml:space="preserve">Hakemuksen</text>
      <text x="358.2307" font-size="10px" y="80.1652" clip-path="url(#clipPath2)" font-family="sans-serif" stroke="none" xml:space="preserve">vastausten</text>
      <text x="362.0051" font-size="10px" y="91.9426" clip-path="url(#clipPath2)" font-family="sans-serif" stroke="none" xml:space="preserve">tallennus</text>
      <path fill="none" d="M310.8686 149.3952 L210.2812 49.7348" clip-path="url(#clipPath2)"/>
      <path d="M204.5982 44.1042 L209.6036 56.102 L210.9916 50.4387 L216.6418 48.9983 Z" clip-path="url(#clipPath2)" stroke="none"/>
      <text x="237.3648" font-size="10px" y="120.5832" clip-path="url(#clipPath2)" font-family="sans-serif" stroke="none" xml:space="preserve">Haun ja lomakkeen</text>
      <text x="269.7281" font-size="10px" y="132.3605" clip-path="url(#clipPath2)" font-family="sans-serif" stroke="none" xml:space="preserve">tiedot</text>
      <path fill="none" d="M165.2535 5.3419 L81.9152 -76.3016" clip-path="url(#clipPath2)"/>
      <path d="M76.2006 -81.9001 L81.2735 -69.9307 L82.6295 -75.6018 L88.2716 -77.0741 Z" clip-path="url(#clipPath2)" stroke="none"/>
      <text x="137.5216" font-size="10px" y="-41.6314" clip-path="url(#clipPath2)" font-family="sans-serif" stroke="none" xml:space="preserve">ei muokattava</text>
      <text x="154.0573" font-size="10px" y="-29.854" clip-path="url(#clipPath2)" font-family="sans-serif" stroke="none" xml:space="preserve">lomake</text>
      <path fill="none" d="M195.7093 3.5582 L235.2371 -74.7306" clip-path="url(#clipPath2)"/>
      <path d="M238.8427 -81.872 L228.9709 -73.4134 L234.7864 -73.8379 L237.8976 -68.9064 Z" clip-path="url(#clipPath2)" stroke="none"/>
      <path fill="none" d="M392.3784 -81.8636 L508.5768 12.655" clip-path="url(#clipPath2)"/>
      <path d="M514.783 17.7032 L508.6289 6.2521 L507.8011 12.024 L502.3187 14.0097 Z" clip-path="url(#clipPath2)" stroke="none"/>
      <text x="399.7804" font-size="10px" y="-60.0843" clip-path="url(#clipPath2)" font-family="sans-serif" stroke="none" xml:space="preserve">lähetä</text>
      <path fill="none" d="M537.2725 9.1494 L412.5188 -94.7068" clip-path="url(#clipPath2)"/>
      <path d="M406.3705 -99.8252 L412.394 -88.3049 L413.2874 -94.067 L418.792 -95.9903 Z" clip-path="url(#clipPath2)" stroke="none"/>
      <path fill="none" d="M537.3875 44.0481 L379.408 145.2449" clip-path="url(#clipPath2)"/>
      <path d="M372.6716 149.5601 L385.4732 147.2976 L380.2501 144.7055 L380.0792 138.8771 Z" clip-path="url(#clipPath2)" stroke="none"/>
      <text x="464.823" font-size="10px" y="68.3879" clip-path="url(#clipPath2)" font-family="sans-serif" stroke="none" xml:space="preserve">Hakemuksen</text>
      <text x="465.5262" font-size="10px" y="80.1652" clip-path="url(#clipPath2)" font-family="sans-serif" stroke="none" xml:space="preserve">tilan muutos</text>
      <path fill="none" d="M265.6958 -81.8611 L265.6958 0.1169" clip-path="url(#clipPath2)"/>
      <path d="M265.6958 8.1169 L270.6958 -3.8831 L265.6958 -0.8831 L260.6958 -3.8831 Z" clip-path="url(#clipPath2)" stroke="none"/>
      <text x="236.3135" font-size="10px" y="-60.0843" clip-path="url(#clipPath2)" font-family="sans-serif" stroke="none" xml:space="preserve">sähköposti-</text>
      <text x="250.9033" font-size="10px" y="-48.307" clip-path="url(#clipPath2)" font-family="sans-serif" stroke="none" xml:space="preserve">osoite</text>
      <path fill="none" d="M290.3362 50.044 L323.701 141.8102" clip-path="url(#clipPath2)"/>
      <path d="M326.4346 149.3287 L327.0333 136.3425 L323.3593 140.8704 L317.6352 139.7595 Z" clip-path="url(#clipPath2)" stroke="none"/>
      <text x="267.8659" font-size="10px" y="72.1495" clip-path="url(#clipPath2)" font-family="sans-serif" stroke="none" xml:space="preserve">Hakemuksen</text>
      <text x="285.1022" font-size="10px" y="83.9268" clip-path="url(#clipPath2)" font-family="sans-serif" stroke="none" xml:space="preserve">luonti</text>
      <path fill="none" d="M306.4019 9.8205 L306.4019 -73.8711" clip-path="url(#clipPath2)"/>
      <path d="M306.4019 -81.8711 L301.4019 -69.8711 L306.4019 -72.8711 L311.4019 -69.8711 Z" clip-path="url(#clipPath2)" stroke="none"/>
      <text x="293.1182" font-size="10px" y="-31.1942" clip-path="url(#clipPath2)" font-family="sans-serif" stroke="none" xml:space="preserve">linkki</text>
      <text x="275.6988" font-size="10px" y="-19.4168" clip-path="url(#clipPath2)" font-family="sans-serif" stroke="none" xml:space="preserve">hakemuksen</text>
      <text x="269.7051" font-size="10px" y="-7.6395" clip-path="url(#clipPath2)" font-family="sans-serif" stroke="none" xml:space="preserve">muokkaukseen</text>
      <path fill="none" d="M577.0794 7.1154 L629.6181 -75.1171" clip-path="url(#clipPath2)"/>
      <path d="M633.9253 -81.8586 L623.251 -74.4383 L629.0797 -74.2744 L631.678 -69.0543 Z" clip-path="url(#clipPath2)" stroke="none"/>
      <path fill="none" d="M594.3679 9.6931 L748.4871 -77.9129" clip-path="url(#clipPath2)"/>
      <path d="M755.442 -81.8663 L742.5388 -80.283 L747.6177 -77.4187 L747.4805 -71.5894 Z" clip-path="url(#clipPath2)" stroke="none"/>
      <path fill="none" d="M560.0338 6.6832 L541.3742 -74.0846" clip-path="url(#clipPath2)"/>
      <path d="M539.5734 -81.8793 L537.4029 -69.0617 L541.5993 -73.1102 L547.1463 -71.3127 Z" clip-path="url(#clipPath2)" stroke="none"/>
      <text x="508.9224" font-size="10px" y="-19.4168" clip-path="url(#clipPath2)" font-family="sans-serif" stroke="none" xml:space="preserve">linkki hakemuksen</text>
      <text x="524.0689" font-size="10px" y="-7.6395" clip-path="url(#clipPath2)" font-family="sans-serif" stroke="none" xml:space="preserve">esikatseluun</text>
      <path fill="none" d="M479.9834 173.5214 L679.6569 48.1914" clip-path="url(#clipPath2)"/>
      <path d="M686.4327 43.9384 L673.6108 46.083 L678.8099 48.723 L678.9271 54.5528 Z" clip-path="url(#clipPath2)" stroke="none"/>
      <text x="568.4899" font-size="10px" y="121.0658" clip-path="url(#clipPath2)" font-family="sans-serif" stroke="none" xml:space="preserve">Haun, lomakkeen ja</text>
      <text x="570.15" font-size="10px" y="132.8432" clip-path="url(#clipPath2)" font-family="sans-serif" stroke="none" xml:space="preserve">hakemuksen tiedot</text>
      <path fill="none" d="M725.3841 6.992 L772.7036 -74.9515" clip-path="url(#clipPath2)"/>
      <path d="M776.7042 -81.8793 L766.3734 -73.9879 L772.2036 -74.0855 L775.0332 -68.9872 Z" clip-path="url(#clipPath2)" stroke="none"/>
      <path fill="none" d="M703.4224 6.992 L658.9946 -74.8485" clip-path="url(#clipPath2)"/>
      <path d="M655.1779 -81.8794 L656.5087 -68.9477 L659.4717 -73.9697 L665.2972 -73.7186 Z" clip-path="url(#clipPath2)" stroke="none"/>
      <text x="651.8426" font-size="10px" y="-19.4168" clip-path="url(#clipPath2)" font-family="sans-serif" stroke="none" xml:space="preserve">tulostusnäkymä</text>
      <text x="656.7425" font-size="10px" y="-7.6395" clip-path="url(#clipPath2)" font-family="sans-serif" stroke="none" xml:space="preserve">hakemukseen</text>
      <path fill="none" d="M688.877 8.767 L567.3147 -77.2771" clip-path="url(#clipPath2)"/>
      <path d="M560.7849 -81.899 L567.6909 -70.885 L568.1309 -76.6993 L573.4683 -79.0472 Z" clip-path="url(#clipPath2)" stroke="none"/>
      <path fill="none" d="M672.4926 13.3127 L382.1728 -79.445" clip-path="url(#clipPath2)"/>
      <path d="M374.5523 -81.8798 L384.4614 -73.4648 L383.1254 -79.1407 L387.5048 -82.9904 Z" clip-path="url(#clipPath2)" stroke="none"/>
      <path fill="none" d="M665.0021 17.1407 L144.4757 -83.1642" clip-path="url(#clipPath2)"/>
      <path d="M136.6202 -84.6779 L147.4574 -77.4977 L145.4576 -82.975 L149.3495 -87.317 Z" clip-path="url(#clipPath2)" stroke="none"/>
    </g>
  </g>
</svg>
