<?xml version="1.0" encoding="UTF-8"?><svg xmlns="http://www.w3.org/2000/svg" xmlns:xlink="http://www.w3.org/1999/xlink" fill-opacity="1" color-rendering="auto" color-interpolation="auto" text-rendering="auto" stroke="black" stroke-linecap="square" width="795" stroke-miterlimit="10" shape-rendering="auto" stroke-opacity="1" fill="black" stroke-dasharray="none" font-weight="normal" stroke-width="1" height="457" font-family="'Dialog'" font-style="normal" stroke-linejoin="miter" font-size="12px" stroke-dashoffset="0" image-rendering="auto">
  <!--Generated by ySVG 2.5-->
  <defs id="genericDefs"/>
  <g>
    <defs id="defs1">
      <linearGradient x1="418.9833" gradientUnits="userSpaceOnUse" x2="439.5071" y1="130.1866" y2="165.2327" id="linearGradient1" spreadMethod="pad">
        <stop stop-opacity="0.8627" stop-color="rgb(255,255,255)" offset="0%"/>
        <stop stop-opacity="0.1255" stop-color="rgb(255,255,255)" offset="100%"/>
      </linearGradient>
      <linearGradient x1="29.9833" gradientUnits="userSpaceOnUse" x2="50.5071" y1="130.1866" y2="165.2327" id="linearGradient2" spreadMethod="pad">
        <stop stop-opacity="0.8627" stop-color="rgb(255,255,255)" offset="0%"/>
        <stop stop-opacity="0.1255" stop-color="rgb(255,255,255)" offset="100%"/>
      </linearGradient>
      <linearGradient x1="29.9833" gradientUnits="userSpaceOnUse" x2="50.5071" y1="-77.9627" y2="-42.9166" id="linearGradient3" spreadMethod="pad">
        <stop stop-opacity="0.8627" stop-color="rgb(255,255,255)" offset="0%"/>
        <stop stop-opacity="0.1255" stop-color="rgb(255,255,255)" offset="100%"/>
      </linearGradient>
      <linearGradient x1="233.9667" gradientUnits="userSpaceOnUse" x2="254.4905" y1="130.1866" y2="165.2327" id="linearGradient4" spreadMethod="pad">
        <stop stop-opacity="0.8627" stop-color="rgb(255,255,255)" offset="0%"/>
        <stop stop-opacity="0.1255" stop-color="rgb(255,255,255)" offset="100%"/>
      </linearGradient>
      <linearGradient x1="418.9833" gradientUnits="userSpaceOnUse" x2="439.5071" y1="-77.9627" y2="-42.9166" id="linearGradient5" spreadMethod="pad">
        <stop stop-opacity="0.8627" stop-color="rgb(255,255,255)" offset="0%"/>
        <stop stop-opacity="0.1255" stop-color="rgb(255,255,255)" offset="100%"/>
      </linearGradient>
      <clipPath clipPathUnits="userSpaceOnUse" id="clipPath1">
        <path d="M0 0 L795 0 L795 457 L0 457 L0 0 Z"/>
      </clipPath>
      <clipPath clipPathUnits="userSpaceOnUse" id="clipPath2">
        <path d="M-65 -215 L730 -215 L730 242 L-65 242 L-65 -215 Z"/>
      </clipPath>
    </defs>
    <g fill="white" text-rendering="geometricPrecision" shape-rendering="geometricPrecision" transform="translate(65,215)" stroke="white">
      <rect x="-65" width="795" height="457" y="-215" clip-path="url(#clipPath2)" stroke="none"/>
    </g>
    <g text-rendering="geometricPrecision" stroke-miterlimit="1.45" shape-rendering="geometricPrecision" font-family="sans-serif" transform="matrix(1,0,0,1,65,215)" stroke-linecap="butt">
      <text x="192.198" xml:space="preserve" y="-88.0651" clip-path="url(#clipPath2)" stroke="none">Valtionavustus CSC Cloud environment</text>
      <rect x="-49.3023" y="-105.6667" clip-path="url(#clipPath2)" fill="none" width="710.1392" stroke-dasharray="6,2" height="332.254"/>
    </g>
    <g text-rendering="geometricPrecision" stroke-miterlimit="1.45" shape-rendering="geometricPrecision" transform="matrix(1,0,0,1,65,215)" stroke-linecap="butt">
      <rect x="418.9833" y="130.1866" clip-path="url(#clipPath2)" fill="none" width="117" rx="1.5" ry="1.5" height="60"/>
    </g>
    <g fill="url(#linearGradient1)" text-rendering="geometricPrecision" shape-rendering="geometricPrecision" transform="matrix(1,0,0,1,65,215)" stroke="url(#linearGradient1)">
      <path d="M419.7333 133.1866 Q419.7333 130.9366 421.9833 130.9366 L492.0333 130.9366 Q494.2833 130.9366 494.2833 133.1866 Q494.2833 135.4366 459.2583 156.4366 Q424.2333 177.4366 421.9833 177.4366 Q419.7333 177.4366 419.7333 175.1866 Z" stroke="none" clip-path="url(#clipPath2)"/>
    </g>
    <g text-rendering="geometricPrecision" stroke-miterlimit="1.45" shape-rendering="geometricPrecision" font-family="sans-serif" transform="matrix(1,0,0,1,65,215)" stroke-linecap="butt">
      <text x="453.8994" xml:space="preserve" y="147.7882" clip-path="url(#clipPath2)" stroke="none">va-prod</text>
      <text x="452.3759" xml:space="preserve" y="161.921" clip-path="url(#clipPath2)" stroke="none">HTTP Kit</text>
      <text x="433.163" xml:space="preserve" y="176.0538" clip-path="url(#clipPath2)" stroke="none">PostgreSQL 9.4</text>
    </g>
    <g text-rendering="geometricPrecision" stroke-miterlimit="1.45" shape-rendering="geometricPrecision" transform="matrix(1,0,0,1,65,215)" stroke-linecap="butt">
      <rect x="29.9833" y="130.1866" clip-path="url(#clipPath2)" fill="none" width="117" rx="1.5" ry="1.5" height="60"/>
    </g>
    <g fill="url(#linearGradient2)" text-rendering="geometricPrecision" shape-rendering="geometricPrecision" transform="matrix(1,0,0,1,65,215)" stroke="url(#linearGradient2)">
      <path d="M30.7333 133.1866 Q30.7333 130.9366 32.9833 130.9366 L103.0333 130.9366 Q105.2833 130.9366 105.2833 133.1866 Q105.2833 135.4366 70.2583 156.4366 Q35.2333 177.4366 32.9833 177.4366 Q30.7333 177.4366 30.7333 175.1866 Z" stroke="none" clip-path="url(#clipPath2)"/>
    </g>
    <g text-rendering="geometricPrecision" stroke-miterlimit="1.45" shape-rendering="geometricPrecision" font-family="sans-serif" transform="matrix(1,0,0,1,65,215)" stroke-linecap="butt">
      <text x="67.7031" xml:space="preserve" y="147.7882" clip-path="url(#clipPath2)" stroke="none">va-test</text>
      <text x="63.3759" xml:space="preserve" y="161.921" clip-path="url(#clipPath2)" stroke="none">HTTP Kit</text>
      <text x="44.163" xml:space="preserve" y="176.0538" clip-path="url(#clipPath2)" stroke="none">PostgreSQL 9.4</text>
    </g>
    <g text-rendering="geometricPrecision" stroke-miterlimit="1.45" shape-rendering="geometricPrecision" transform="matrix(1,0,0,1,65,215)" stroke-linecap="butt">
      <rect x="29.9833" y="-77.9627" clip-path="url(#clipPath2)" fill="none" width="117" rx="1.5" ry="1.5" height="60"/>
    </g>
    <g fill="url(#linearGradient3)" text-rendering="geometricPrecision" shape-rendering="geometricPrecision" transform="matrix(1,0,0,1,65,215)" stroke="url(#linearGradient3)">
      <path d="M30.7333 -74.9627 Q30.7333 -77.2127 32.9833 -77.2127 L103.0333 -77.2127 Q105.2833 -77.2127 105.2833 -74.9627 Q105.2833 -72.7127 70.2583 -51.7127 Q35.2333 -30.7127 32.9833 -30.7127 Q30.7333 -30.7127 30.7333 -32.9627 Z" stroke="none" clip-path="url(#clipPath2)"/>
    </g>
    <g text-rendering="geometricPrecision" stroke-miterlimit="1.45" shape-rendering="geometricPrecision" font-family="sans-serif" transform="matrix(1,0,0,1,65,215)" stroke-linecap="butt">
      <text x="36.8798" xml:space="preserve" y="-60.3611" clip-path="url(#clipPath2)" stroke="none">loadbalancer-test</text>
      <text x="63.663" xml:space="preserve" y="-46.2283" clip-path="url(#clipPath2)" stroke="none">HAProxy</text>
    </g>
    <g text-rendering="geometricPrecision" stroke-miterlimit="1.45" shape-rendering="geometricPrecision" transform="matrix(1,0,0,1,65,215)" stroke-linecap="butt">
      <rect x="233.9667" y="130.1866" clip-path="url(#clipPath2)" fill="none" width="117" rx="1.5" ry="1.5" height="60"/>
    </g>
    <g fill="url(#linearGradient4)" text-rendering="geometricPrecision" shape-rendering="geometricPrecision" transform="matrix(1,0,0,1,65,215)" stroke="url(#linearGradient4)">
      <path d="M234.7167 133.1866 Q234.7167 130.9366 236.9667 130.9366 L307.0167 130.9366 Q309.2667 130.9366 309.2667 133.1866 Q309.2667 135.4366 274.2417 156.4366 Q239.2167 177.4366 236.9667 177.4366 Q234.7167 177.4366 234.7167 175.1866 Z" stroke="none" clip-path="url(#clipPath2)"/>
    </g>
    <g text-rendering="geometricPrecision" stroke-miterlimit="1.45" shape-rendering="geometricPrecision" font-family="sans-serif" transform="matrix(1,0,0,1,65,215)" stroke-linecap="butt">
      <text x="267.8309" xml:space="preserve" y="147.7882" clip-path="url(#clipPath2)" stroke="none">va-build</text>
      <text x="275.8641" xml:space="preserve" y="161.921" clip-path="url(#clipPath2)" stroke="none">nginx</text>
      <text x="271.5106" xml:space="preserve" y="176.0538" clip-path="url(#clipPath2)" stroke="none">Jenkins</text>
    </g>
    <g text-rendering="geometricPrecision" stroke-miterlimit="1.45" shape-rendering="geometricPrecision" transform="matrix(1,0,0,1,65,215)" stroke-linecap="butt">
      <rect x="418.9833" y="-77.9627" clip-path="url(#clipPath2)" fill="none" width="117" rx="1.5" ry="1.5" height="60"/>
    </g>
    <g fill="url(#linearGradient5)" text-rendering="geometricPrecision" shape-rendering="geometricPrecision" transform="matrix(1,0,0,1,65,215)" stroke="url(#linearGradient5)">
      <path d="M419.7333 -74.9627 Q419.7333 -77.2127 421.9833 -77.2127 L492.0333 -77.2127 Q494.2833 -77.2127 494.2833 -74.9627 Q494.2833 -72.7127 459.2583 -51.7127 Q424.2333 -30.7127 421.9833 -30.7127 Q419.7333 -30.7127 419.7333 -32.9627 Z" stroke="none" clip-path="url(#clipPath2)"/>
    </g>
    <g text-rendering="geometricPrecision" stroke-miterlimit="1.45" shape-rendering="geometricPrecision" font-family="sans-serif" transform="matrix(1,0,0,1,65,215)" stroke-linecap="butt">
      <text x="423.0761" xml:space="preserve" y="-60.3611" clip-path="url(#clipPath2)" stroke="none">loadbalancer-prod</text>
      <text x="452.663" xml:space="preserve" y="-46.2283" clip-path="url(#clipPath2)" stroke="none">HAProxy</text>
    </g>
    <g fill="white" text-rendering="geometricPrecision" shape-rendering="geometricPrecision" transform="matrix(1,0,0,1,65,215)" stroke="white">
      <path d="M462.4833 -145.6667 L477.4833 -160.6667 L492.4833 -145.6667 L477.4833 -130.6667 Z" fill-rule="evenodd" clip-path="url(#clipPath2)" stroke="none"/>
    </g>
    <g text-rendering="geometricPrecision" stroke-miterlimit="1.45" shape-rendering="geometricPrecision" font-family="sans-serif" transform="matrix(1,0,0,1,65,215)" stroke-linecap="butt">
      <text x="433.8486" xml:space="preserve" y="-169.1979" clip-path="url(#clipPath2)" stroke="none">86.50.169.218</text>
      <path fill="none" d="M462.4833 -145.6667 L477.4833 -160.6667 L492.4833 -145.6667 L477.4833 -130.6667 Z" clip-path="url(#clipPath2)" fill-rule="evenodd"/>
    </g>
    <g fill="white" text-rendering="geometricPrecision" shape-rendering="geometricPrecision" transform="matrix(1,0,0,1,65,215)" stroke="white">
      <path d="M73.4833 -145.6667 L88.4833 -160.6667 L103.4833 -145.6667 L88.4833 -130.6667 Z" fill-rule="evenodd" clip-path="url(#clipPath2)" stroke="none"/>
    </g>
    <g text-rendering="geometricPrecision" stroke-miterlimit="1.45" shape-rendering="geometricPrecision" font-family="sans-serif" transform="matrix(1,0,0,1,65,215)" stroke-linecap="butt">
      <text x="44.8486" xml:space="preserve" y="-169.1979" clip-path="url(#clipPath2)" stroke="none">86.50.168.174</text>
      <path fill="none" d="M73.4833 -145.6667 L88.4833 -160.6667 L103.4833 -145.6667 L88.4833 -130.6667 Z" clip-path="url(#clipPath2)" fill-rule="evenodd"/>
    </g>
    <g fill="rgb(255,255,153)" text-rendering="geometricPrecision" shape-rendering="geometricPrecision" transform="matrix(1,0,0,1,65,215)" stroke="rgb(255,255,153)">
      <path d="M534.5 -199.6667 L699.5 -199.6667 L699.5 -184.6667 L714.5 -184.6667 L714.5 -151.6667 L534.5 -151.6667 Z" stroke="none" clip-path="url(#clipPath2)"/>
      <path fill="white" d="M699.5 -199.6667 L699.5 -184.6667 L714.5 -184.6667 Z" clip-path="url(#clipPath2)" fill-rule="evenodd" stroke="none"/>
    </g>
    <g text-rendering="geometricPrecision" stroke-miterlimit="1.45" shape-rendering="geometricPrecision" transform="matrix(1,0,0,1,65,215)" stroke-linecap="butt">
      <path fill="none" d="M534.5 -199.6667 L699.5 -199.6667 L699.5 -184.6667 L714.5 -184.6667 L714.5 -151.6667 L534.5 -151.6667 Z" clip-path="url(#clipPath2)"/>
      <path fill="none" d="M699.5 -199.6667 L699.5 -184.6667 L714.5 -184.6667 Z" clip-path="url(#clipPath2)" fill-rule="evenodd"/>
      <text x="588.3086" font-size="10px" y="-183.6647" clip-path="url(#clipPath2)" font-family="sans-serif" stroke="none" xml:space="preserve">valtionavustukset.oph.fi</text>
      <text x="600.2373" font-size="10px" y="-171.8874" clip-path="url(#clipPath2)" font-family="sans-serif" stroke="none" xml:space="preserve">statsunderstod.oph.fi</text>
      <text x="544.3828" font-size="10px" y="-160.11" clip-path="url(#clipPath2)" font-family="sans-serif" stroke="none" xml:space="preserve">virkailija.valtionavustukset.oph.fi</text>
    </g>
    <g fill="rgb(255,255,153)" text-rendering="geometricPrecision" shape-rendering="geometricPrecision" transform="matrix(1,0,0,1,65,215)" stroke="rgb(255,255,153)">
      <path d="M152.9667 -199.6667 L335.9667 -199.6667 L335.9667 -184.6667 L350.9667 -184.6667 L350.9667 -151.6667 L152.9667 -151.6667 Z" stroke="none" clip-path="url(#clipPath2)"/>
      <path fill="white" d="M335.9667 -199.6667 L335.9667 -184.6667 L350.9667 -184.6667 Z" clip-path="url(#clipPath2)" fill-rule="evenodd" stroke="none"/>
    </g>
    <g text-rendering="geometricPrecision" stroke-miterlimit="1.45" shape-rendering="geometricPrecision" transform="matrix(1,0,0,1,65,215)" stroke-linecap="butt">
      <path fill="none" d="M152.9667 -199.6667 L335.9667 -199.6667 L335.9667 -184.6667 L350.9667 -184.6667 L350.9667 -151.6667 L152.9667 -151.6667 Z" clip-path="url(#clipPath2)"/>
      <path fill="none" d="M335.9667 -199.6667 L335.9667 -184.6667 L350.9667 -184.6667 Z" clip-path="url(#clipPath2)" fill-rule="evenodd"/>
      <text x="203.6732" font-size="10px" y="-183.6647" clip-path="url(#clipPath2)" font-family="sans-serif" stroke="none" xml:space="preserve">testi.valtionavustukset.oph.fi</text>
      <text x="159.7475" font-size="10px" y="-171.8874" clip-path="url(#clipPath2)" font-family="sans-serif" stroke="none" xml:space="preserve">testi.virkailija.valtionavustukset.oph.fi</text>
      <text x="207.6723" font-size="10px" y="-160.11" clip-path="url(#clipPath2)" font-family="sans-serif" stroke="none" xml:space="preserve">dev.valtionavustukset.oph.fi</text>
      <path fill="none" d="M88.4833 -17.9549 L88.4833 122.2209" clip-path="url(#clipPath2)"/>
      <path d="M88.4833 130.2209 L93.4833 118.2209 L88.4833 121.2209 L83.4833 118.2209 Z" clip-path="url(#clipPath2)" stroke="none"/>
      <text x="92.4833" xml:space="preserve" y="60.6471" clip-path="url(#clipPath2)" font-family="sans-serif" stroke="none">HTTP / SSH</text>
      <path fill="none" d="M117.8906 -17.9549 L257.48 124.4854" clip-path="url(#clipPath2)"/>
      <path d="M263.0794 130.1992 L258.2514 118.1289 L256.7801 123.7712 L251.1093 125.1282 Z" clip-path="url(#clipPath2)" stroke="none"/>
      <text x="149.5752" xml:space="preserve" y="5.7639" clip-path="url(#clipPath2)" font-family="sans-serif" stroke="none">HTTP / SSH</text>
      <path fill="none" d="M233.951 160.1866 L154.9758 160.1866" clip-path="url(#clipPath2)"/>
      <path d="M146.9758 160.1866 L158.9758 165.1866 L155.9758 160.1866 L158.9758 155.1866 Z" clip-path="url(#clipPath2)" stroke="none"/>
      <text x="175.1615" xml:space="preserve" y="127.6553" clip-path="url(#clipPath2)" font-family="sans-serif" stroke="none">HTTP</text>
      <text x="174.558" xml:space="preserve" y="141.7882" clip-path="url(#clipPath2)" font-family="sans-serif" stroke="none">/ SSH</text>
      <path fill="none" d="M350.9619 160.1866 L411.0104 160.1866" clip-path="url(#clipPath2)"/>
      <path d="M419.0104 160.1866 L407.0104 155.1866 L410.0104 160.1866 L407.0104 165.1866 Z" clip-path="url(#clipPath2)" stroke="none"/>
      <text x="369.6615" xml:space="preserve" y="127.6553" clip-path="url(#clipPath2)" font-family="sans-serif" stroke="none">HTTP</text>
      <text x="369.058" xml:space="preserve" y="141.7882" clip-path="url(#clipPath2)" font-family="sans-serif" stroke="none">/ SSH</text>
      <path fill="none" d="M477.4833 -17.9957 L477.4833 122.1864" clip-path="url(#clipPath2)"/>
      <path d="M477.4833 130.1864 L482.4833 118.1864 L477.4833 121.1864 L472.4833 118.1864 Z" clip-path="url(#clipPath2)" stroke="none"/>
      <text x="481.4833" xml:space="preserve" y="60.6471" clip-path="url(#clipPath2)" font-family="sans-serif" stroke="none">HTTP / SSH</text>
      <path fill="none" d="M450.8104 -17.9549 L324.4363 124.2198" clip-path="url(#clipPath2)"/>
      <path d="M319.1215 130.1992 L330.8308 124.5519 L325.1006 123.4724 L323.3566 117.9084 Z" clip-path="url(#clipPath2)" stroke="none"/>
      <text x="397.0338" xml:space="preserve" y="60.6471" clip-path="url(#clipPath2)" font-family="sans-serif" stroke="none">SSH</text>
      <path fill="none" d="M419.5058 -18.3671 L135.6356 126.5393" clip-path="url(#clipPath2)"/>
      <path d="M128.5103 130.1765 L141.4715 129.174 L136.5263 126.0846 L136.925 120.2673 Z" clip-path="url(#clipPath2)" stroke="none"/>
      <text x="339.5312" xml:space="preserve" y="-16.3533" clip-path="url(#clipPath2)" font-family="sans-serif" stroke="none">SSH</text>
      <path fill="none" d="M477.4833 -130.6912 L477.4833 -85.9628" clip-path="url(#clipPath2)"/>
      <path d="M477.4833 -77.9628 L482.4833 -89.9628 L477.4833 -86.9628 L472.4833 -89.9628 Z" clip-path="url(#clipPath2)" stroke="none"/>
      <text x="481.4833" xml:space="preserve" y="-106.9401" clip-path="url(#clipPath2)" font-family="sans-serif" stroke="none">HTTPS / SSH</text>
      <path fill="none" d="M88.4833 -130.639 L88.4833 -85.9571" clip-path="url(#clipPath2)"/>
      <path d="M88.4833 -77.9571 L93.4833 -89.9571 L88.4833 -86.9571 L83.4833 -89.9571 Z" clip-path="url(#clipPath2)" stroke="none"/>
      <text x="92.4833" xml:space="preserve" y="-106.9401" clip-path="url(#clipPath2)" font-family="sans-serif" stroke="none">HTTPS / SSH</text>
      <path fill="none" stroke-dasharray="6,2" d="M534.5169 -157.3049 L489.9316 -148.2068" clip-path="url(#clipPath2)"/>
      <path fill="none" stroke-dasharray="6,2" d="M152.9459 -175.6667 L98.713 -150.4274" clip-path="url(#clipPath2)"/>
    </g>
  </g>
</svg>
