<?xml version="1.0" encoding="UTF-8"?><svg xmlns="http://www.w3.org/2000/svg" xmlns:xlink="http://www.w3.org/1999/xlink" fill-opacity="1" color-rendering="auto" color-interpolation="auto" text-rendering="auto" stroke="black" stroke-linecap="square" width="768" stroke-miterlimit="10" shape-rendering="auto" stroke-opacity="1" fill="black" stroke-dasharray="none" font-weight="normal" stroke-width="1" height="493" font-family="'Dialog'" font-style="normal" stroke-linejoin="miter" font-size="12px" stroke-dashoffset="0" image-rendering="auto">
  <!--Generated by ySVG 2.5-->
  <defs id="genericDefs"/>
  <g>
    <defs id="defs1">
      <linearGradient x1="397.9833" gradientUnits="userSpaceOnUse" x2="435.0367" y1="94.1866" y2="144.4784" id="linearGradient1" spreadMethod="pad">
        <stop stop-opacity="0.8627" stop-color="rgb(255,255,255)" offset="0%"/>
        <stop stop-opacity="0.1255" stop-color="rgb(255,255,255)" offset="100%"/>
      </linearGradient>
      <linearGradient x1="-3.0167" gradientUnits="userSpaceOnUse" x2="31.1452" y1="94.1866" y2="141.4791" id="linearGradient2" spreadMethod="pad">
        <stop stop-opacity="0.8627" stop-color="rgb(255,255,255)" offset="0%"/>
        <stop stop-opacity="0.1255" stop-color="rgb(255,255,255)" offset="100%"/>
      </linearGradient>
      <linearGradient x1="186.9667" gradientUnits="userSpaceOnUse" x2="218.8339" y1="100.6866" y2="144.8737" id="linearGradient3" spreadMethod="pad">
        <stop stop-opacity="0.8627" stop-color="rgb(255,255,255)" offset="0%"/>
        <stop stop-opacity="0.1255" stop-color="rgb(255,255,255)" offset="100%"/>
      </linearGradient>
      <linearGradient x1="402.4833" gradientUnits="userSpaceOnUse" x2="436.6452" y1="-77.9627" y2="-30.6702" id="linearGradient4" spreadMethod="pad">
        <stop stop-opacity="0.8627" stop-color="rgb(255,255,255)" offset="0%"/>
        <stop stop-opacity="0.1255" stop-color="rgb(255,255,255)" offset="100%"/>
      </linearGradient>
      <clipPath clipPathUnits="userSpaceOnUse" id="clipPath1">
        <path d="M0 0 L768 0 L768 493 L0 493 L0 0 Z"/>
      </clipPath>
      <clipPath clipPathUnits="userSpaceOnUse" id="clipPath2">
        <path d="M-65 -276 L703 -276 L703 217 L-65 217 L-65 -276 Z"/>
      </clipPath>
    </defs>
    <g fill="white" text-rendering="geometricPrecision" shape-rendering="geometricPrecision" transform="translate(65,276)" stroke="white">
      <rect x="-65" width="768" height="493" y="-276" clip-path="url(#clipPath2)" stroke="none"/>
    </g>
    <g text-rendering="geometricPrecision" stroke-miterlimit="1.45" shape-rendering="geometricPrecision" font-family="sans-serif" transform="matrix(1,0,0,1,65,276)" stroke-linecap="butt">
      <text x="199.4548" xml:space="preserve" y="-88.528" clip-path="url(#clipPath2)" stroke="none">Valtionavustus Server Environment</text>
      <rect x="-49.3023" y="-105.6667" clip-path="url(#clipPath2)" fill="none" width="710.1392" stroke-dasharray="6,2" height="307.254"/>
    </g>
    <g text-rendering="geometricPrecision" stroke-miterlimit="1.45" shape-rendering="geometricPrecision" transform="matrix(1,0,0,1,65,276)" stroke-linecap="butt">
      <rect x="397.9833" y="94.1866" clip-path="url(#clipPath2)" fill="none" width="159" rx="1.5" ry="1.5" height="98"/>
    </g>
    <g fill="url(#linearGradient1)" text-rendering="geometricPrecision" shape-rendering="geometricPrecision" transform="matrix(1,0,0,1,65,276)" stroke="url(#linearGradient1)">
      <path d="M398.7333 97.1866 Q398.7333 94.9366 400.9833 94.9366 L498.3333 94.9366 Q500.5833 94.9366 500.5833 97.1866 Q500.5833 99.4366 451.9083 135.6366 Q403.2333 171.8366 400.9833 171.8366 Q398.7333 171.8366 398.7333 169.5866 Z" stroke="none" clip-path="url(#clipPath2)"/>
    </g>
    <g text-rendering="geometricPrecision" stroke-miterlimit="1.45" shape-rendering="geometricPrecision" font-family="sans-serif" transform="matrix(1,0,0,1,65,276)" stroke-linecap="butt">
      <text x="402.4775" xml:space="preserve" y="111.3253" clip-path="url(#clipPath2)" stroke="none">oph-va-app-prod01.csc.fi</text>
      <text x="454.916" xml:space="preserve" y="125.294" clip-path="url(#clipPath2)" stroke="none">CentOS</text>
      <text x="424.9687" xml:space="preserve" y="139.2628" clip-path="url(#clipPath2)" stroke="none">2 core, 4GB RAM,</text>
      <text x="443.2822" xml:space="preserve" y="153.2315" clip-path="url(#clipPath2)" stroke="none">200GB disk</text>
      <text x="452.162" xml:space="preserve" y="167.2003" clip-path="url(#clipPath2)" stroke="none">HTTP Kit</text>
      <text x="431.4257" xml:space="preserve" y="181.169" clip-path="url(#clipPath2)" stroke="none">PostgreSQL 9.4</text>
    </g>
    <g text-rendering="geometricPrecision" stroke-miterlimit="1.45" shape-rendering="geometricPrecision" transform="matrix(1,0,0,1,65,276)" stroke-linecap="butt">
      <rect x="-3.0167" y="94.1866" clip-path="url(#clipPath2)" fill="none" width="150" rx="1.5" ry="1.5" height="91"/>
    </g>
    <g fill="url(#linearGradient2)" text-rendering="geometricPrecision" shape-rendering="geometricPrecision" transform="matrix(1,0,0,1,65,276)" stroke="url(#linearGradient2)">
      <path d="M-2.2667 97.1866 Q-2.2667 94.9366 -0.0167 94.9366 L91.4833 94.9366 Q93.7333 94.9366 93.7333 97.1866 Q93.7333 99.4366 47.9833 132.8366 Q2.2333 166.2366 -0.0167 166.2366 Q-2.2667 166.2366 -2.2667 163.9866 Z" stroke="none" clip-path="url(#clipPath2)"/>
    </g>
    <g text-rendering="geometricPrecision" stroke-miterlimit="1.45" shape-rendering="geometricPrecision" font-family="sans-serif" transform="matrix(1,0,0,1,65,276)" stroke-linecap="butt">
      <text x="-0.7901" xml:space="preserve" y="111.3253" clip-path="url(#clipPath2)" stroke="none">oph-va-app-test01.csc.fi</text>
      <text x="49.416" xml:space="preserve" y="125.294" clip-path="url(#clipPath2)" stroke="none">CentOS</text>
      <text x="19.4687" xml:space="preserve" y="139.2628" clip-path="url(#clipPath2)" stroke="none">2 core, 4GB RAM,</text>
      <text x="35.8749" xml:space="preserve" y="153.2315" clip-path="url(#clipPath2)" stroke="none">200 GB disk</text>
      <text x="46.6621" xml:space="preserve" y="167.2003" clip-path="url(#clipPath2)" stroke="none">HTTP Kit</text>
      <text x="25.9257" xml:space="preserve" y="181.169" clip-path="url(#clipPath2)" stroke="none">PostgreSQL 9.4</text>
    </g>
    <g text-rendering="geometricPrecision" stroke-miterlimit="1.45" shape-rendering="geometricPrecision" transform="matrix(1,0,0,1,65,276)" stroke-linecap="butt">
      <rect x="186.9667" y="100.6866" clip-path="url(#clipPath2)" fill="none" width="140" rx="1.5" ry="1.5" height="85"/>
    </g>
    <g fill="url(#linearGradient3)" text-rendering="geometricPrecision" shape-rendering="geometricPrecision" transform="matrix(1,0,0,1,65,276)" stroke="url(#linearGradient3)">
      <path d="M187.7167 103.6866 Q187.7167 101.4366 189.9667 101.4366 L274.9667 101.4366 Q277.2167 101.4366 277.2167 103.6866 Q277.2167 105.9366 234.7167 136.9366 Q192.2167 167.9366 189.9667 167.9366 Q187.7167 167.9366 187.7167 165.6866 Z" stroke="none" clip-path="url(#clipPath2)"/>
    </g>
    <g text-rendering="geometricPrecision" stroke-miterlimit="1.45" shape-rendering="geometricPrecision" font-family="sans-serif" transform="matrix(1,0,0,1,65,276)" stroke-linecap="butt">
      <text x="190.5214" xml:space="preserve" y="117.8253" clip-path="url(#clipPath2)" stroke="none">oph-va-ci-test01.csc.fi</text>
      <text x="204.452" xml:space="preserve" y="131.794" clip-path="url(#clipPath2)" stroke="none">2 core, 4GB RAM,</text>
      <text x="190.7733" xml:space="preserve" y="145.7628" clip-path="url(#clipPath2)" stroke="none">200GB persistent disk</text>
      <text x="240.3349" xml:space="preserve" y="159.7315" clip-path="url(#clipPath2)" stroke="none">nginx</text>
      <text x="235.6327" xml:space="preserve" y="173.7003" clip-path="url(#clipPath2)" stroke="none">Jenkins</text>
    </g>
    <g text-rendering="geometricPrecision" stroke-miterlimit="1.45" shape-rendering="geometricPrecision" transform="matrix(1,0,0,1,65,276)" stroke-linecap="butt">
      <rect x="402.4833" y="-77.9627" clip-path="url(#clipPath2)" fill="none" width="150" rx="1.5" ry="1.5" height="91"/>
    </g>
    <g fill="url(#linearGradient4)" text-rendering="geometricPrecision" shape-rendering="geometricPrecision" transform="matrix(1,0,0,1,65,276)" stroke="url(#linearGradient4)">
      <path d="M403.2333 -74.9627 Q403.2333 -77.2127 405.4833 -77.2127 L496.9833 -77.2127 Q499.2333 -77.2127 499.2333 -74.9627 Q499.2333 -72.7127 453.4833 -39.3127 Q407.7333 -5.9127 405.4833 -5.9127 Q403.2333 -5.9127 403.2333 -8.1627 Z" stroke="none" clip-path="url(#clipPath2)"/>
    </g>
    <g text-rendering="geometricPrecision" stroke-miterlimit="1.45" shape-rendering="geometricPrecision" font-family="sans-serif" transform="matrix(1,0,0,1,65,276)" stroke-linecap="butt">
      <text x="408.2958" xml:space="preserve" y="-60.824" clip-path="url(#clipPath2)" stroke="none">oph-va-lb-prod01.csc.fi</text>
      <text x="454.916" xml:space="preserve" y="-46.8553" clip-path="url(#clipPath2)" stroke="none">CentOS</text>
      <text x="424.9687" xml:space="preserve" y="-32.8865" clip-path="url(#clipPath2)" stroke="none">2 core, 4GB RAM,</text>
      <text x="447.0995" xml:space="preserve" y="-18.9178" clip-path="url(#clipPath2)" stroke="none">50GB disk</text>
      <text x="452.0097" xml:space="preserve" y="-4.949" clip-path="url(#clipPath2)" stroke="none">HAProxy</text>
    </g>
    <g fill="white" text-rendering="geometricPrecision" shape-rendering="geometricPrecision" transform="matrix(1,0,0,1,65,276)" stroke="white">
      <path d="M469.4833 -206.1667 L484.4833 -221.1667 L499.4833 -206.1667 L484.4833 -191.1667 Z" fill-rule="evenodd" clip-path="url(#clipPath2)" stroke="none"/>
    </g>
    <g text-rendering="geometricPrecision" stroke-miterlimit="1.45" shape-rendering="geometricPrecision" font-family="sans-serif" transform="matrix(1,0,0,1,65,276)" stroke-linecap="butt">
      <text x="444.4052" xml:space="preserve" y="-229.9967" clip-path="url(#clipPath2)" stroke="none">86.50.28.144</text>
      <path fill="none" d="M469.4833 -206.1667 L484.4833 -221.1667 L499.4833 -206.1667 L484.4833 -191.1667 Z" clip-path="url(#clipPath2)" fill-rule="evenodd"/>
    </g>
    <g fill="rgb(255,255,153)" text-rendering="geometricPrecision" shape-rendering="geometricPrecision" transform="matrix(1,0,0,1,65,276)" stroke="rgb(255,255,153)">
      <path d="M152.9667 -260.6667 L335.9667 -260.6667 L335.9667 -245.6667 L350.9667 -245.6667 L350.9667 -151.6667 L152.9667 -151.6667 Z" stroke="none" clip-path="url(#clipPath2)"/>
      <path fill="white" d="M335.9667 -260.6667 L335.9667 -245.6667 L350.9667 -245.6667 Z" clip-path="url(#clipPath2)" fill-rule="evenodd" stroke="none"/>
    </g>
    <g text-rendering="geometricPrecision" stroke-miterlimit="1.45" shape-rendering="geometricPrecision" transform="matrix(1,0,0,1,65,276)" stroke-linecap="butt">
      <path fill="none" d="M152.9667 -260.6667 L335.9667 -260.6667 L335.9667 -245.6667 L350.9667 -245.6667 L350.9667 -151.6667 L152.9667 -151.6667 Z" clip-path="url(#clipPath2)"/>
      <path fill="none" d="M335.9667 -260.6667 L335.9667 -245.6667 L350.9667 -245.6667 Z" clip-path="url(#clipPath2)" fill-rule="evenodd"/>
      <text x="226.9374" font-size="10px" y="-231.8063" clip-path="url(#clipPath2)" font-family="sans-serif" stroke="none" xml:space="preserve">valtionavustukset.oph.fi</text>
      <text x="240.5702" font-size="10px" y="-220.1657" clip-path="url(#clipPath2)" font-family="sans-serif" stroke="none" xml:space="preserve">statsunderstod.oph.fi</text>
      <text x="181.7909" font-size="10px" y="-208.5251" clip-path="url(#clipPath2)" font-family="sans-serif" stroke="none" xml:space="preserve">virkailija.valtionavustukset.oph.fi</text>
      <text x="201.7763" font-size="10px" y="-196.8844" clip-path="url(#clipPath2)" font-family="sans-serif" stroke="none" xml:space="preserve">testi.valtionavustukset.oph.fi</text>
      <text x="156.6298" font-size="10px" y="-185.2438" clip-path="url(#clipPath2)" font-family="sans-serif" stroke="none" xml:space="preserve">testi.virkailija.valtionavustukset.oph.fi</text>
      <text x="205.3407" font-size="10px" y="-173.6032" clip-path="url(#clipPath2)" font-family="sans-serif" stroke="none" xml:space="preserve">dev.valtionavustukset.oph.fi</text>
      <path fill="none" d="M187.0108 141.863 L154.9913 141.2572" clip-path="url(#clipPath2)"/>
      <path d="M146.9927 141.1058 L158.896 146.3319 L155.9911 141.2761 L159.0852 136.3337 Z" clip-path="url(#clipPath2)" stroke="none"/>
      <text x="154.8461" xml:space="preserve" y="115.6328" clip-path="url(#clipPath2)" font-family="sans-serif" stroke="none">SSH</text>
      <path fill="none" d="M326.9818 143.1866 L390.0071 143.1866" clip-path="url(#clipPath2)"/>
      <path d="M398.0071 143.1866 L386.0071 138.1866 L389.0071 143.1866 L386.0071 148.1866 Z" clip-path="url(#clipPath2)" stroke="none"/>
      <text x="350.3461" xml:space="preserve" y="117.3409" clip-path="url(#clipPath2)" font-family="sans-serif" stroke="none">SSH</text>
      <path fill="none" d="M477.4833 13.0209 L477.4833 86.1864" clip-path="url(#clipPath2)"/>
      <path d="M477.4833 94.1864 L482.4833 82.1864 L477.4833 85.1864 L472.4833 82.1864 Z" clip-path="url(#clipPath2)" stroke="none"/>
      <text x="481.4833" xml:space="preserve" y="57.7662" clip-path="url(#clipPath2)" font-family="sans-serif" stroke="none">HTTP / SSH</text>
      <path fill="none" d="M420.3353 13.0577 L316.5703 95.7102" clip-path="url(#clipPath2)"/>
      <path d="M310.3128 100.6945 L322.8143 97.129 L317.3525 95.0872 L316.5839 89.3071 Z" clip-path="url(#clipPath2)" stroke="none"/>
      <text x="380.6212" xml:space="preserve" y="61.0162" clip-path="url(#clipPath2)" font-family="sans-serif" stroke="none">SSH</text>
      <path fill="none" d="M402.4701 -5.6426 L130.8329 91.478" clip-path="url(#clipPath2)"/>
      <path d="M123.2999 94.1713 L136.2827 94.8395 L131.7745 91.1413 L132.9161 85.4232 Z" clip-path="url(#clipPath2)" stroke="none"/>
      <text x="284.2029" xml:space="preserve" y="-13.7637" clip-path="url(#clipPath2)" font-family="sans-serif" stroke="none">HTTP / SSH</text>
      <path fill="none" d="M484.4833 -191.1732 L484.4833 -85.9825" clip-path="url(#clipPath2)"/>
      <path d="M484.4833 -77.9825 L489.4833 -89.9825 L484.4833 -86.9825 L479.4833 -89.9825 Z" clip-path="url(#clipPath2)" stroke="none"/>
      <text x="488.4833" xml:space="preserve" y="-167.903" clip-path="url(#clipPath2)" font-family="sans-serif" stroke="none">HTTPS / SSH ( + HTTP -&gt; HTTPS)</text>
      <path fill="none" stroke-dasharray="6,2" d="M350.9874 -206.1667 L469.4585 -206.1667" clip-path="url(#clipPath2)"/>
    </g>
  </g>
</svg>
