<?xml version="1.0" encoding="UTF-8"?><svg xmlns="http://www.w3.org/2000/svg" xmlns:xlink="http://www.w3.org/1999/xlink" fill-opacity="1" color-rendering="auto" color-interpolation="auto" text-rendering="auto" stroke="black" stroke-linecap="square" width="684" stroke-miterlimit="10" shape-rendering="auto" stroke-opacity="1" fill="black" stroke-dasharray="none" font-weight="normal" stroke-width="1" height="620" font-family="'Dialog'" font-style="normal" stroke-linejoin="miter" font-size="12px" stroke-dashoffset="0" image-rendering="auto">
  <!--Generated by ySVG 2.5-->
  <defs id="genericDefs"/>
  <g>
    <defs id="defs1">
      <linearGradient x1="548.0232" gradientUnits="userSpaceOnUse" x2="584.3531" y1="73.1866" y2="126.9373" id="linearGradient1" spreadMethod="pad">
        <stop stop-opacity="0.8627" stop-color="rgb(255,255,255)" offset="0%"/>
        <stop stop-opacity="0.1255" stop-color="rgb(255,255,255)" offset="100%"/>
      </linearGradient>
      <linearGradient x1="124.9833" gradientUnits="userSpaceOnUse" x2="161.8222" y1="73.1866" y2="125.6626" id="linearGradient2" spreadMethod="pad">
        <stop stop-opacity="0.8627" stop-color="rgb(255,255,255)" offset="0%"/>
        <stop stop-opacity="0.1255" stop-color="rgb(255,255,255)" offset="100%"/>
      </linearGradient>
      <linearGradient x1="346.9833" gradientUnits="userSpaceOnUse" x2="383.4285" y1="234.5874" y2="279.67" id="linearGradient3" spreadMethod="pad">
        <stop stop-opacity="0.8627" stop-color="rgb(255,255,255)" offset="0%"/>
        <stop stop-opacity="0.1255" stop-color="rgb(255,255,255)" offset="100%"/>
      </linearGradient>
      <linearGradient x1="337.4833" gradientUnits="userSpaceOnUse" x2="367.6736" y1="-63.24" y2="-15.104" id="linearGradient4" spreadMethod="pad">
        <stop stop-opacity="0.8627" stop-color="rgb(255,255,255)" offset="0%"/>
        <stop stop-opacity="0.1255" stop-color="rgb(255,255,255)" offset="100%"/>
      </linearGradient>
      <clipPath clipPathUnits="userSpaceOnUse" id="clipPath1">
        <path d="M0 0 L684 0 L684 620 L0 620 L0 0 Z"/>
      </clipPath>
      <clipPath clipPathUnits="userSpaceOnUse" id="clipPath2">
        <path d="M80 -250 L764 -250 L764 370 L80 370 L80 -250 Z"/>
      </clipPath>
    </defs>
    <g fill="white" text-rendering="geometricPrecision" shape-rendering="geometricPrecision" transform="translate(-80,250)" stroke="white">
      <rect x="80" width="684" height="620" y="-250" clip-path="url(#clipPath2)" stroke="none"/>
    </g>
    <g text-rendering="geometricPrecision" stroke-miterlimit="1.45" shape-rendering="geometricPrecision" font-family="sans-serif" transform="matrix(1,0,0,1,-80,250)" stroke-linecap="butt">
      <text x="107.2246" xml:space="preserve" y="-94.6651" clip-path="url(#clipPath2)" stroke="none">Valtionavustus CSC</text>
      <text x="101.8369" xml:space="preserve" y="-80.5323" clip-path="url(#clipPath2)" stroke="none">VMware environment</text>
      <rect x="95.8369" y="-112.2667" clip-path="url(#clipPath2)" fill="none" width="653.1392" stroke-dasharray="6,2" height="467.254"/>
    </g>
    <g text-rendering="geometricPrecision" stroke-miterlimit="1.45" shape-rendering="geometricPrecision" transform="matrix(1,0,0,1,-80,250)" stroke-linecap="butt">
      <rect x="548.0232" y="73.1866" clip-path="url(#clipPath2)" fill="none" width="173.9402" rx="1.5" ry="1.5" height="99"/>
    </g>
    <g fill="url(#linearGradient1)" text-rendering="geometricPrecision" shape-rendering="geometricPrecision" transform="matrix(1,0,0,1,-80,250)" stroke="url(#linearGradient1)">
      <path d="M548.7732 76.1866 Q548.7732 73.9366 551.0232 73.9366 L658.0844 73.9366 Q660.3344 73.9366 660.3344 76.1866 Q660.3344 78.4366 606.8038 115.0366 Q553.2732 151.6366 551.0232 151.6366 Q548.7732 151.6366 548.7732 149.3866 Z" stroke="none" clip-path="url(#clipPath2)"/>
    </g>
    <g text-rendering="geometricPrecision" stroke-miterlimit="1.45" shape-rendering="geometricPrecision" font-family="sans-serif" transform="matrix(1,0,0,1,-80,250)" stroke-linecap="butt">
      <text x="557.8839" xml:space="preserve" y="90.7882" clip-path="url(#clipPath2)" stroke="none">oph-va-app-prod01.csc.fi</text>
      <text x="607.9464" xml:space="preserve" y="104.921" clip-path="url(#clipPath2)" stroke="none">CentOS 7</text>
      <text x="584.4679" xml:space="preserve" y="119.0538" clip-path="url(#clipPath2)" stroke="none">2 core, 4GB RAM,</text>
      <text x="601.8497" xml:space="preserve" y="133.1866" clip-path="url(#clipPath2)" stroke="none">300GB disk</text>
      <text x="609.8859" xml:space="preserve" y="147.3194" clip-path="url(#clipPath2)" stroke="none">HTTP Kit</text>
      <text x="590.673" xml:space="preserve" y="161.4522" clip-path="url(#clipPath2)" stroke="none">PostgreSQL 9.4</text>
    </g>
    <g text-rendering="geometricPrecision" stroke-miterlimit="1.45" shape-rendering="geometricPrecision" transform="matrix(1,0,0,1,-80,250)" stroke-linecap="butt">
      <rect x="124.9833" y="73.1866" clip-path="url(#clipPath2)" fill="none" width="167.9641" rx="1.5" ry="1.5" height="99"/>
    </g>
    <g fill="url(#linearGradient2)" text-rendering="geometricPrecision" shape-rendering="geometricPrecision" transform="matrix(1,0,0,1,-80,250)" stroke="url(#linearGradient2)">
      <path d="M125.7333 76.1866 Q125.7333 73.9366 127.9833 73.9366 L231.16 73.9366 Q233.41 73.9366 233.41 76.1866 Q233.41 78.4366 181.8217 115.0366 Q130.2333 151.6366 127.9833 151.6366 Q125.7333 151.6366 125.7333 149.3866 Z" stroke="none" clip-path="url(#clipPath2)"/>
    </g>
    <g text-rendering="geometricPrecision" stroke-miterlimit="1.45" shape-rendering="geometricPrecision" font-family="sans-serif" transform="matrix(1,0,0,1,-80,250)" stroke-linecap="butt">
      <text x="134.6597" xml:space="preserve" y="90.7882" clip-path="url(#clipPath2)" stroke="none">oph-va-app-test01.csc.fi</text>
      <text x="181.9185" xml:space="preserve" y="104.921" clip-path="url(#clipPath2)" stroke="none">CentOS 7</text>
      <text x="158.44" xml:space="preserve" y="119.0538" clip-path="url(#clipPath2)" stroke="none">2 core, 4GB RAM,</text>
      <text x="173.9234" xml:space="preserve" y="133.1866" clip-path="url(#clipPath2)" stroke="none">200 GB disk</text>
      <text x="183.858" xml:space="preserve" y="147.3194" clip-path="url(#clipPath2)" stroke="none">HTTP Kit</text>
      <text x="164.6451" xml:space="preserve" y="161.4522" clip-path="url(#clipPath2)" stroke="none">PostgreSQL 9.4</text>
    </g>
    <g text-rendering="geometricPrecision" stroke-miterlimit="1.45" shape-rendering="geometricPrecision" transform="matrix(1,0,0,1,-80,250)" stroke-linecap="butt">
      <rect x="346.9833" y="234.5874" clip-path="url(#clipPath2)" fill="none" width="140" rx="1.5" ry="1.5" height="94"/>
    </g>
    <g fill="url(#linearGradient3)" text-rendering="geometricPrecision" shape-rendering="geometricPrecision" transform="matrix(1,0,0,1,-80,250)" stroke="url(#linearGradient3)">
      <path d="M347.7333 237.5874 Q347.7333 235.3374 349.9833 235.3374 L434.9833 235.3374 Q437.2333 235.3374 437.2333 237.5874 Q437.2333 239.8374 394.7333 274.4374 Q352.2333 309.0374 349.9833 309.0374 Q347.7333 309.0374 347.7333 306.7874 Z" stroke="none" clip-path="url(#clipPath2)"/>
    </g>
    <g text-rendering="geometricPrecision" stroke-miterlimit="1.45" shape-rendering="geometricPrecision" font-family="sans-serif" transform="matrix(1,0,0,1,-80,250)" stroke-linecap="butt">
      <text x="348.7363" xml:space="preserve" y="252.1889" clip-path="url(#clipPath2)" stroke="none">oph-va-ci-test01.csc.fi</text>
      <text x="389.9365" xml:space="preserve" y="266.3217" clip-path="url(#clipPath2)" stroke="none">CentOS 7</text>
      <text x="366.4579" xml:space="preserve" y="280.4546" clip-path="url(#clipPath2)" stroke="none">2 core, 4GB RAM,</text>
      <text x="383.8398" xml:space="preserve" y="294.5874" clip-path="url(#clipPath2)" stroke="none">200GB disk</text>
      <text x="400.3808" xml:space="preserve" y="308.7202" clip-path="url(#clipPath2)" stroke="none">nginx</text>
      <text x="396.0273" xml:space="preserve" y="322.853" clip-path="url(#clipPath2)" stroke="none">Jenkins</text>
    </g>
    <g text-rendering="geometricPrecision" stroke-miterlimit="1.45" shape-rendering="geometricPrecision" transform="matrix(1,0,0,1,-80,250)" stroke-linecap="butt">
      <rect x="337.4833" y="-63.24" clip-path="url(#clipPath2)" fill="none" width="159" rx="1.5" ry="1.5" height="85"/>
    </g>
    <g fill="url(#linearGradient4)" text-rendering="geometricPrecision" shape-rendering="geometricPrecision" transform="matrix(1,0,0,1,-80,250)" stroke="url(#linearGradient4)">
      <path d="M338.2333 -60.24 Q338.2333 -62.49 340.4833 -62.49 L437.8333 -62.49 Q440.0833 -62.49 440.0833 -60.24 Q440.0833 -57.99 391.4083 -26.99 Q342.7333 4.01 340.4833 4.01 Q338.2333 4.01 338.2333 1.76 Z" stroke="none" clip-path="url(#clipPath2)"/>
    </g>
    <g text-rendering="geometricPrecision" stroke-miterlimit="1.45" shape-rendering="geometricPrecision" font-family="sans-serif" transform="matrix(1,0,0,1,-80,250)" stroke-linecap="butt">
      <text x="345.2294" xml:space="preserve" y="-45.6385" clip-path="url(#clipPath2)" stroke="none">oph-va-lb-prod01.csc.fi</text>
      <text x="389.9365" xml:space="preserve" y="-31.5057" clip-path="url(#clipPath2)" stroke="none">CentOS 7</text>
      <text x="366.4579" xml:space="preserve" y="-17.3728" clip-path="url(#clipPath2)" stroke="none">2 core, 4GB RAM,</text>
      <text x="387.6337" xml:space="preserve" y="-3.24" clip-path="url(#clipPath2)" stroke="none">50GB disk</text>
      <text x="392.163" xml:space="preserve" y="10.8928" clip-path="url(#clipPath2)" stroke="none">HAProxy</text>
    </g>
    <g fill="white" text-rendering="geometricPrecision" shape-rendering="geometricPrecision" transform="matrix(1,0,0,1,-80,250)" stroke="white">
      <path d="M401.9833 -184.6667 L416.9833 -199.6667 L431.9833 -184.6667 L416.9833 -169.6667 Z" fill-rule="evenodd" clip-path="url(#clipPath2)" stroke="none"/>
    </g>
    <g text-rendering="geometricPrecision" stroke-miterlimit="1.45" shape-rendering="geometricPrecision" transform="matrix(1,0,0,1,-80,250)" stroke-linecap="butt">
      <path fill="none" d="M401.9833 -184.6667 L416.9833 -199.6667 L431.9833 -184.6667 L416.9833 -169.6667 Z" fill-rule="evenodd" clip-path="url(#clipPath2)"/>
    </g>
    <g fill="rgb(255,255,153)" text-rendering="geometricPrecision" shape-rendering="geometricPrecision" transform="matrix(1,0,0,1,-80,250)" stroke="rgb(255,255,153)">
      <path d="M516.5529 -234.1667 L728.5529 -234.1667 L728.5529 -219.1667 L743.5529 -219.1667 L743.5529 -135.1667 L516.5529 -135.1667 Z" stroke="none" clip-path="url(#clipPath2)"/>
      <path fill="white" d="M728.5529 -234.1667 L728.5529 -219.1667 L743.5529 -219.1667 Z" clip-path="url(#clipPath2)" fill-rule="evenodd" stroke="none"/>
    </g>
    <g text-rendering="geometricPrecision" stroke-miterlimit="1.45" shape-rendering="geometricPrecision" transform="matrix(1,0,0,1,-80,250)" stroke-linecap="butt">
      <path fill="none" d="M516.5529 -234.1667 L728.5529 -234.1667 L728.5529 -219.1667 L743.5529 -219.1667 L743.5529 -135.1667 L516.5529 -135.1667 Z" clip-path="url(#clipPath2)"/>
      <path fill="none" d="M728.5529 -234.1667 L728.5529 -219.1667 L743.5529 -219.1667 Z" clip-path="url(#clipPath2)" fill-rule="evenodd"/>
      <text x="537.8337" font-size="10px" y="-210.3307" clip-path="url(#clipPath2)" font-family="sans-serif" stroke="none" xml:space="preserve">valtionavustukset.oph.fi</text>
      <text x="537.8337" font-size="10px" y="-198.5534" clip-path="url(#clipPath2)" font-family="sans-serif" stroke="none" xml:space="preserve">statsunderstod.oph.fi</text>
      <text x="537.8337" font-size="10px" y="-186.776" clip-path="url(#clipPath2)" font-family="sans-serif" stroke="none" xml:space="preserve">virkailija.valtionavustukset.oph.fi</text>
      <text x="537.8337" font-size="10px" y="-174.9987" clip-path="url(#clipPath2)" font-family="sans-serif" stroke="none" xml:space="preserve">testi.valtionavustukset.oph.fi</text>
      <text x="537.8337" font-size="10px" y="-163.2214" clip-path="url(#clipPath2)" font-family="sans-serif" stroke="none" xml:space="preserve">testi.virkailija.valtionavustukset.oph.fi</text>
      <text x="537.8337" font-size="10px" y="-151.444" clip-path="url(#clipPath2)" font-family="sans-serif" stroke="none" xml:space="preserve">dev.valtionavustukset.oph.fi</text>
    </g>
    <g fill="rgb(255,255,153)" text-rendering="geometricPrecision" shape-rendering="geometricPrecision" transform="matrix(1,0,0,1,-80,250)" stroke="rgb(255,255,153)">
      <path d="M133.9475 -195.2667 L321.9475 -195.2667 L321.9475 -180.2667 L336.9475 -180.2667 L336.9475 -142.2667 L133.9475 -142.2667 Z" stroke="none" clip-path="url(#clipPath2)"/>
      <path fill="white" d="M321.9475 -195.2667 L321.9475 -180.2667 L336.9475 -180.2667 Z" clip-path="url(#clipPath2)" fill-rule="evenodd" stroke="none"/>
    </g>
    <g text-rendering="geometricPrecision" stroke-miterlimit="1.45" shape-rendering="geometricPrecision" transform="matrix(1,0,0,1,-80,250)" stroke-linecap="butt">
      <path fill="none" d="M133.9475 -195.2667 L321.9475 -195.2667 L321.9475 -180.2667 L336.9475 -180.2667 L336.9475 -142.2667 L133.9475 -142.2667 Z" clip-path="url(#clipPath2)"/>
      <path fill="none" d="M321.9475 -195.2667 L321.9475 -180.2667 L336.9475 -180.2667 Z" clip-path="url(#clipPath2)" fill-rule="evenodd"/>
      <text x="148.1989" font-size="10px" y="-170.876" clip-path="url(#clipPath2)" font-family="sans-serif" stroke="none" xml:space="preserve">Kaikille koneille avattu julkiverkosta</text>
      <text x="148.1989" font-size="10px" y="-159.0987" clip-path="url(#clipPath2)" font-family="sans-serif" stroke="none" xml:space="preserve">SSH-yhteys vain ylläpidon ip:stä</text>
      <path fill="none" d="M386.9844 234.5607 L216.5585 174.8249" clip-path="url(#clipPath2)"/>
      <path d="M209.0089 172.1786 L218.6795 180.8665 L217.5022 175.1556 L221.9873 171.4294 Z" clip-path="url(#clipPath2)" stroke="none"/>
      <text x="226.0919" xml:space="preserve" y="250.5497" clip-path="url(#clipPath2)" font-family="sans-serif" stroke="none">SSH</text>
      <path fill="none" d="M436.4254 234.5787 L627.2888 174.5815" clip-path="url(#clipPath2)"/>
      <path d="M634.9206 172.1824 L621.9734 171.0111 L626.3348 174.8813 L624.9722 180.5509 Z" clip-path="url(#clipPath2)" stroke="none"/>
      <text x="597.4743" xml:space="preserve" y="254.3112" clip-path="url(#clipPath2)" font-family="sans-serif" stroke="none">SSH</text>
      <path fill="none" d="M496.475 13.5078 L627.6462 70.021" clip-path="url(#clipPath2)"/>
      <path d="M634.9933 73.1864 L625.951 63.8463 L626.7278 69.6253 L621.9942 73.0302 Z" clip-path="url(#clipPath2)" stroke="none"/>
      <text x="601.1566" xml:space="preserve" y="38.2209" clip-path="url(#clipPath2)" font-family="sans-serif" stroke="none">HTTP (8081, 6071)</text>
      <text x="645.5472" xml:space="preserve" y="52.3537" clip-path="url(#clipPath2)" font-family="sans-serif" stroke="none">SSH</text>
      <path fill="none" d="M337.4785 15.1678 L216.2877 69.9027" clip-path="url(#clipPath2)"/>
      <path d="M208.9968 73.1956 L221.9911 72.8131 L217.199 69.4911 L217.875 63.6995 Z" clip-path="url(#clipPath2)" stroke="none"/>
      <text x="129.8771" xml:space="preserve" y="17.7884" clip-path="url(#clipPath2)" font-family="sans-serif" stroke="none">HTTP (8081, 6071)</text>
      <text x="174.2677" xml:space="preserve" y="31.9212" clip-path="url(#clipPath2)" font-family="sans-serif" stroke="none">SSH</text>
      <path fill="none" d="M415.2728 21.7813 L415.2728 226.5777" clip-path="url(#clipPath2)"/>
      <path d="M415.2728 234.5777 L420.2728 222.5777 L415.2728 225.5777 L410.2728 222.5777 Z" clip-path="url(#clipPath2)" stroke="none"/>
      <text x="351.8685" xml:space="preserve" y="132.7088" clip-path="url(#clipPath2)" font-family="sans-serif" stroke="none">HTTP (80)</text>
      <path fill="none" d="M416.9833 -169.6959 L416.9833 -71.2402" clip-path="url(#clipPath2)"/>
      <path d="M416.9833 -63.2402 L421.9833 -75.2402 L416.9833 -72.2402 L411.9833 -75.2402 Z" clip-path="url(#clipPath2)" stroke="none"/>
      <text x="420.9833" xml:space="preserve" y="-145.9401" clip-path="url(#clipPath2)" font-family="sans-serif" stroke="none">HTTPS (443)</text>
      <text x="428.0087" xml:space="preserve" y="-131.8073" clip-path="url(#clipPath2)" font-family="sans-serif" stroke="none">HTTP (80)</text>
      <text x="445.8388" xml:space="preserve" y="-117.6745" clip-path="url(#clipPath2)" font-family="sans-serif" stroke="none">SSH</text>
      <path fill="none" stroke-dasharray="6,2" d="M516.5736 -184.6667 L432.0094 -184.6667" clip-path="url(#clipPath2)"/>
      <path fill="none" stroke-dasharray="6,2" d="M252.5413 -142.2402 L271.8563 -112.2667" clip-path="url(#clipPath2)"/>
    </g>
  </g>
</svg>
