<?xml version="1.0" encoding="UTF-8"?><svg xmlns="http://www.w3.org/2000/svg" xmlns:xlink="http://www.w3.org/1999/xlink" fill-opacity="1" color-rendering="auto" color-interpolation="auto" text-rendering="auto" stroke="black" stroke-linecap="square" width="795" stroke-miterlimit="10" shape-rendering="auto" stroke-opacity="1" fill="black" stroke-dasharray="none" font-weight="normal" stroke-width="1" height="432" font-family="'Dialog'" font-style="normal" stroke-linejoin="miter" font-size="12px" stroke-dashoffset="0" image-rendering="auto">
  <!--Generated by ySVG 2.5-->
  <defs id="genericDefs"/>
  <g>
    <defs id="defs1">
      <linearGradient x1="418.9833" gradientUnits="userSpaceOnUse" x2="452.4912" y1="94.1866" y2="132.2256" id="linearGradient1" spreadMethod="pad">
        <stop stop-opacity="0.8627" stop-color="rgb(255,255,255)" offset="0%"/>
        <stop stop-opacity="0.1255" stop-color="rgb(255,255,255)" offset="100%"/>
      </linearGradient>
      <linearGradient x1="29.9833" gradientUnits="userSpaceOnUse" x2="63.4912" y1="94.1866" y2="132.2256" id="linearGradient2" spreadMethod="pad">
        <stop stop-opacity="0.8627" stop-color="rgb(255,255,255)" offset="0%"/>
        <stop stop-opacity="0.1255" stop-color="rgb(255,255,255)" offset="100%"/>
      </linearGradient>
      <linearGradient x1="29.9833" gradientUnits="userSpaceOnUse" x2="55.4045" y1="-77.9627" y2="-41.2143" id="linearGradient3" spreadMethod="pad">
        <stop stop-opacity="0.8627" stop-color="rgb(255,255,255)" offset="0%"/>
        <stop stop-opacity="0.1255" stop-color="rgb(255,255,255)" offset="100%"/>
      </linearGradient>
      <linearGradient x1="221.9667" gradientUnits="userSpaceOnUse" x2="253.8339" y1="94.1866" y2="138.3737" id="linearGradient4" spreadMethod="pad">
        <stop stop-opacity="0.8627" stop-color="rgb(255,255,255)" offset="0%"/>
        <stop stop-opacity="0.1255" stop-color="rgb(255,255,255)" offset="100%"/>
      </linearGradient>
      <linearGradient x1="418.9833" gradientUnits="userSpaceOnUse" x2="444.4045" y1="-77.9627" y2="-41.2143" id="linearGradient5" spreadMethod="pad">
        <stop stop-opacity="0.8627" stop-color="rgb(255,255,255)" offset="0%"/>
        <stop stop-opacity="0.1255" stop-color="rgb(255,255,255)" offset="100%"/>
      </linearGradient>
      <clipPath clipPathUnits="userSpaceOnUse" id="clipPath1">
        <path d="M0 0 L795 0 L795 432 L0 432 L0 0 Z"/>
      </clipPath>
      <clipPath clipPathUnits="userSpaceOnUse" id="clipPath2">
        <path d="M-65 -215 L730 -215 L730 217 L-65 217 L-65 -215 Z"/>
      </clipPath>
    </defs>
    <g fill="white" text-rendering="geometricPrecision" shape-rendering="geometricPrecision" transform="translate(65,215)" stroke="white">
      <rect x="-65" width="795" height="432" y="-215" clip-path="url(#clipPath2)" stroke="none"/>
    </g>
    <g text-rendering="geometricPrecision" stroke-miterlimit="1.45" shape-rendering="geometricPrecision" font-family="sans-serif" transform="matrix(1,0,0,1,65,215)" stroke-linecap="butt">
      <text x="192.198" xml:space="preserve" y="-88.0651" clip-path="url(#clipPath2)" stroke="none">Valtionavustus CSC Cloud environment</text>
      <rect x="-49.3023" y="-105.6667" clip-path="url(#clipPath2)" fill="none" width="710.1392" stroke-dasharray="6,2" height="307.254"/>
    </g>
    <g text-rendering="geometricPrecision" stroke-miterlimit="1.45" shape-rendering="geometricPrecision" transform="matrix(1,0,0,1,65,215)" stroke-linecap="butt">
      <rect x="418.9833" y="94.1866" clip-path="url(#clipPath2)" fill="none" width="117" rx="1.5" ry="1.5" height="85"/>
    </g>
    <g fill="url(#linearGradient1)" text-rendering="geometricPrecision" shape-rendering="geometricPrecision" transform="matrix(1,0,0,1,65,215)" stroke="url(#linearGradient1)">
      <path d="M419.7333 97.1866 Q419.7333 94.9366 421.9833 94.9366 L492.0333 94.9366 Q494.2833 94.9366 494.2833 97.1866 Q494.2833 99.4366 459.2583 130.4366 Q424.2333 161.4366 421.9833 161.4366 Q419.7333 161.4366 419.7333 159.1866 Z" stroke="none" clip-path="url(#clipPath2)"/>
    </g>
    <g text-rendering="geometricPrecision" stroke-miterlimit="1.45" shape-rendering="geometricPrecision" font-family="sans-serif" transform="matrix(1,0,0,1,65,215)" stroke-linecap="butt">
      <text x="453.8994" xml:space="preserve" y="111.7882" clip-path="url(#clipPath2)" stroke="none">va-prod</text>
      <text x="426.9579" xml:space="preserve" y="125.921" clip-path="url(#clipPath2)" stroke="none">1 core, 1GB RAM,</text>
      <text x="421.5908" xml:space="preserve" y="140.0538" clip-path="url(#clipPath2)" stroke="none">1TB persistent disk</text>
      <text x="452.3759" xml:space="preserve" y="154.1866" clip-path="url(#clipPath2)" stroke="none">HTTP Kit</text>
      <text x="433.163" xml:space="preserve" y="168.3194" clip-path="url(#clipPath2)" stroke="none">PostgreSQL 9.4</text>
    </g>
    <g text-rendering="geometricPrecision" stroke-miterlimit="1.45" shape-rendering="geometricPrecision" transform="matrix(1,0,0,1,65,215)" stroke-linecap="butt">
      <rect x="29.9833" y="94.1866" clip-path="url(#clipPath2)" fill="none" width="117" rx="1.5" ry="1.5" height="85"/>
    </g>
    <g fill="url(#linearGradient2)" text-rendering="geometricPrecision" shape-rendering="geometricPrecision" transform="matrix(1,0,0,1,65,215)" stroke="url(#linearGradient2)">
      <path d="M30.7333 97.1866 Q30.7333 94.9366 32.9833 94.9366 L103.0333 94.9366 Q105.2833 94.9366 105.2833 97.1866 Q105.2833 99.4366 70.2583 130.4366 Q35.2333 161.4366 32.9833 161.4366 Q30.7333 161.4366 30.7333 159.1866 Z" stroke="none" clip-path="url(#clipPath2)"/>
    </g>
    <g text-rendering="geometricPrecision" stroke-miterlimit="1.45" shape-rendering="geometricPrecision" font-family="sans-serif" transform="matrix(1,0,0,1,65,215)" stroke-linecap="butt">
      <text x="67.7031" xml:space="preserve" y="111.7882" clip-path="url(#clipPath2)" stroke="none">va-test</text>
      <text x="37.958" xml:space="preserve" y="125.921" clip-path="url(#clipPath2)" stroke="none">1 core, 1GB RAM,</text>
      <text x="32.5908" xml:space="preserve" y="140.0538" clip-path="url(#clipPath2)" stroke="none">1TB persistent disk</text>
      <text x="63.3759" xml:space="preserve" y="154.1866" clip-path="url(#clipPath2)" stroke="none">HTTP Kit</text>
      <text x="44.163" xml:space="preserve" y="168.3194" clip-path="url(#clipPath2)" stroke="none">PostgreSQL 9.4</text>
    </g>
    <g text-rendering="geometricPrecision" stroke-miterlimit="1.45" shape-rendering="geometricPrecision" transform="matrix(1,0,0,1,65,215)" stroke-linecap="butt">
      <rect x="29.9833" y="-77.9627" clip-path="url(#clipPath2)" fill="none" width="117" rx="1.5" ry="1.5" height="69"/>
    </g>
    <g fill="url(#linearGradient3)" text-rendering="geometricPrecision" shape-rendering="geometricPrecision" transform="matrix(1,0,0,1,65,215)" stroke="url(#linearGradient3)">
      <path d="M30.7333 -74.9627 Q30.7333 -77.2127 32.9833 -77.2127 L103.0333 -77.2127 Q105.2833 -77.2127 105.2833 -74.9627 Q105.2833 -72.7127 70.2583 -48.1127 Q35.2333 -23.5127 32.9833 -23.5127 Q30.7333 -23.5127 30.7333 -25.7627 Z" stroke="none" clip-path="url(#clipPath2)"/>
    </g>
    <g text-rendering="geometricPrecision" stroke-miterlimit="1.45" shape-rendering="geometricPrecision" font-family="sans-serif" transform="matrix(1,0,0,1,65,215)" stroke-linecap="butt">
      <text x="36.8798" xml:space="preserve" y="-60.3611" clip-path="url(#clipPath2)" stroke="none">loadbalancer-test</text>
      <text x="37.958" xml:space="preserve" y="-46.2283" clip-path="url(#clipPath2)" stroke="none">1 core, 1GB RAM,</text>
      <text x="36.2206" xml:space="preserve" y="-32.0955" clip-path="url(#clipPath2)" stroke="none">no persistent disk</text>
      <text x="63.663" xml:space="preserve" y="-17.9627" clip-path="url(#clipPath2)" stroke="none">HAProxy</text>
    </g>
    <g text-rendering="geometricPrecision" stroke-miterlimit="1.45" shape-rendering="geometricPrecision" transform="matrix(1,0,0,1,65,215)" stroke-linecap="butt">
      <rect x="221.9667" y="94.1866" clip-path="url(#clipPath2)" fill="none" width="140" rx="1.5" ry="1.5" height="85"/>
    </g>
    <g fill="url(#linearGradient4)" text-rendering="geometricPrecision" shape-rendering="geometricPrecision" transform="matrix(1,0,0,1,65,215)" stroke="url(#linearGradient4)">
      <path d="M222.7167 97.1866 Q222.7167 94.9366 224.9667 94.9366 L309.9667 94.9366 Q312.2167 94.9366 312.2167 97.1866 Q312.2167 99.4366 269.7167 130.4366 Q227.2167 161.4366 224.9667 161.4366 Q222.7167 161.4366 222.7167 159.1866 Z" stroke="none" clip-path="url(#clipPath2)"/>
    </g>
    <g text-rendering="geometricPrecision" stroke-miterlimit="1.45" shape-rendering="geometricPrecision" font-family="sans-serif" transform="matrix(1,0,0,1,65,215)" stroke-linecap="butt">
      <text x="267.3309" xml:space="preserve" y="111.7882" clip-path="url(#clipPath2)" stroke="none">va-build</text>
      <text x="237.6474" xml:space="preserve" y="125.921" clip-path="url(#clipPath2)" stroke="none">4 core, 15GB RAM,</text>
      <text x="227.9442" xml:space="preserve" y="140.0538" clip-path="url(#clipPath2)" stroke="none">100GB persistent disk</text>
      <text x="275.3641" xml:space="preserve" y="154.1866" clip-path="url(#clipPath2)" stroke="none">nginx</text>
      <text x="271.0106" xml:space="preserve" y="168.3194" clip-path="url(#clipPath2)" stroke="none">Jenkins</text>
    </g>
    <g text-rendering="geometricPrecision" stroke-miterlimit="1.45" shape-rendering="geometricPrecision" transform="matrix(1,0,0,1,65,215)" stroke-linecap="butt">
      <rect x="418.9833" y="-77.9627" clip-path="url(#clipPath2)" fill="none" width="117" rx="1.5" ry="1.5" height="69"/>
    </g>
    <g fill="url(#linearGradient5)" text-rendering="geometricPrecision" shape-rendering="geometricPrecision" transform="matrix(1,0,0,1,65,215)" stroke="url(#linearGradient5)">
      <path d="M419.7333 -74.9627 Q419.7333 -77.2127 421.9833 -77.2127 L492.0333 -77.2127 Q494.2833 -77.2127 494.2833 -74.9627 Q494.2833 -72.7127 459.2583 -48.1127 Q424.2333 -23.5127 421.9833 -23.5127 Q419.7333 -23.5127 419.7333 -25.7627 Z" stroke="none" clip-path="url(#clipPath2)"/>
    </g>
    <g text-rendering="geometricPrecision" stroke-miterlimit="1.45" shape-rendering="geometricPrecision" font-family="sans-serif" transform="matrix(1,0,0,1,65,215)" stroke-linecap="butt">
      <text x="423.0761" xml:space="preserve" y="-60.3611" clip-path="url(#clipPath2)" stroke="none">loadbalancer-prod</text>
      <text x="426.9579" xml:space="preserve" y="-46.2283" clip-path="url(#clipPath2)" stroke="none">1 core, 1GB RAM,</text>
      <text x="425.2206" xml:space="preserve" y="-32.0955" clip-path="url(#clipPath2)" stroke="none">no persistent disk</text>
      <text x="452.663" xml:space="preserve" y="-17.9627" clip-path="url(#clipPath2)" stroke="none">HAProxy</text>
    </g>
    <g fill="white" text-rendering="geometricPrecision" shape-rendering="geometricPrecision" transform="matrix(1,0,0,1,65,215)" stroke="white">
      <path d="M462.4833 -145.6667 L477.4833 -160.6667 L492.4833 -145.6667 L477.4833 -130.6667 Z" fill-rule="evenodd" clip-path="url(#clipPath2)" stroke="none"/>
    </g>
    <g text-rendering="geometricPrecision" stroke-miterlimit="1.45" shape-rendering="geometricPrecision" font-family="sans-serif" transform="matrix(1,0,0,1,65,215)" stroke-linecap="butt">
      <text x="433.8486" xml:space="preserve" y="-169.1979" clip-path="url(#clipPath2)" stroke="none">86.50.169.218</text>
      <path fill="none" d="M462.4833 -145.6667 L477.4833 -160.6667 L492.4833 -145.6667 L477.4833 -130.6667 Z" clip-path="url(#clipPath2)" fill-rule="evenodd"/>
    </g>
    <g fill="white" text-rendering="geometricPrecision" shape-rendering="geometricPrecision" transform="matrix(1,0,0,1,65,215)" stroke="white">
      <path d="M73.4833 -145.6667 L88.4833 -160.6667 L103.4833 -145.6667 L88.4833 -130.6667 Z" fill-rule="evenodd" clip-path="url(#clipPath2)" stroke="none"/>
    </g>
    <g text-rendering="geometricPrecision" stroke-miterlimit="1.45" shape-rendering="geometricPrecision" font-family="sans-serif" transform="matrix(1,0,0,1,65,215)" stroke-linecap="butt">
      <text x="44.8486" xml:space="preserve" y="-169.1979" clip-path="url(#clipPath2)" stroke="none">86.50.168.174</text>
      <path fill="none" d="M73.4833 -145.6667 L88.4833 -160.6667 L103.4833 -145.6667 L88.4833 -130.6667 Z" clip-path="url(#clipPath2)" fill-rule="evenodd"/>
    </g>
    <g fill="rgb(255,255,153)" text-rendering="geometricPrecision" shape-rendering="geometricPrecision" transform="matrix(1,0,0,1,65,215)" stroke="rgb(255,255,153)">
      <path d="M534.5 -199.6667 L699.5 -199.6667 L699.5 -184.6667 L714.5 -184.6667 L714.5 -151.6667 L534.5 -151.6667 Z" stroke="none" clip-path="url(#clipPath2)"/>
      <path fill="white" d="M699.5 -199.6667 L699.5 -184.6667 L714.5 -184.6667 Z" clip-path="url(#clipPath2)" fill-rule="evenodd" stroke="none"/>
    </g>
    <g text-rendering="geometricPrecision" stroke-miterlimit="1.45" shape-rendering="geometricPrecision" transform="matrix(1,0,0,1,65,215)" stroke-linecap="butt">
      <path fill="none" d="M534.5 -199.6667 L699.5 -199.6667 L699.5 -184.6667 L714.5 -184.6667 L714.5 -151.6667 L534.5 -151.6667 Z" clip-path="url(#clipPath2)"/>
      <path fill="none" d="M699.5 -199.6667 L699.5 -184.6667 L714.5 -184.6667 Z" clip-path="url(#clipPath2)" fill-rule="evenodd"/>
      <text x="588.3086" font-size="10px" y="-183.6647" clip-path="url(#clipPath2)" font-family="sans-serif" stroke="none" xml:space="preserve">valtionavustukset.oph.fi</text>
      <text x="600.2373" font-size="10px" y="-171.8874" clip-path="url(#clipPath2)" font-family="sans-serif" stroke="none" xml:space="preserve">statsunderstod.oph.fi</text>
      <text x="544.3828" font-size="10px" y="-160.11" clip-path="url(#clipPath2)" font-family="sans-serif" stroke="none" xml:space="preserve">virkailija.valtionavustukset.oph.fi</text>
    </g>
    <g fill="rgb(255,255,153)" text-rendering="geometricPrecision" shape-rendering="geometricPrecision" transform="matrix(1,0,0,1,65,215)" stroke="rgb(255,255,153)">
      <path d="M152.9667 -199.6667 L335.9667 -199.6667 L335.9667 -184.6667 L350.9667 -184.6667 L350.9667 -151.6667 L152.9667 -151.6667 Z" stroke="none" clip-path="url(#clipPath2)"/>
      <path fill="white" d="M335.9667 -199.6667 L335.9667 -184.6667 L350.9667 -184.6667 Z" clip-path="url(#clipPath2)" fill-rule="evenodd" stroke="none"/>
    </g>
    <g text-rendering="geometricPrecision" stroke-miterlimit="1.45" shape-rendering="geometricPrecision" transform="matrix(1,0,0,1,65,215)" stroke-linecap="butt">
      <path fill="none" d="M152.9667 -199.6667 L335.9667 -199.6667 L335.9667 -184.6667 L350.9667 -184.6667 L350.9667 -151.6667 L152.9667 -151.6667 Z" clip-path="url(#clipPath2)"/>
      <path fill="none" d="M335.9667 -199.6667 L335.9667 -184.6667 L350.9667 -184.6667 Z" clip-path="url(#clipPath2)" fill-rule="evenodd"/>
      <text x="203.6732" font-size="10px" y="-183.6647" clip-path="url(#clipPath2)" font-family="sans-serif" stroke="none" xml:space="preserve">testi.valtionavustukset.oph.fi</text>
      <text x="159.7475" font-size="10px" y="-171.8874" clip-path="url(#clipPath2)" font-family="sans-serif" stroke="none" xml:space="preserve">testi.virkailija.valtionavustukset.oph.fi</text>
      <text x="207.6723" font-size="10px" y="-160.11" clip-path="url(#clipPath2)" font-family="sans-serif" stroke="none" xml:space="preserve">dev.valtionavustukset.oph.fi</text>
      <path fill="none" d="M88.4833 -8.937 L88.4833 86.2012" clip-path="url(#clipPath2)"/>
      <path d="M88.4833 94.2012 L93.4833 82.2012 L88.4833 85.2012 L83.4833 82.2012 Z" clip-path="url(#clipPath2)" stroke="none"/>
      <text x="92.4833" xml:space="preserve" y="47.1471" clip-path="url(#clipPath2)" font-family="sans-serif" stroke="none">HTTP / SSH</text>
      <path fill="none" d="M127.4562 -8.959 L237.9611 88.874" clip-path="url(#clipPath2)"/>
      <path d="M243.951 94.177 L238.2806 82.4789 L237.2124 88.2111 L231.6518 89.9662 Z" clip-path="url(#clipPath2)" stroke="none"/>
      <text x="163.3699" xml:space="preserve" y="14.7639" clip-path="url(#clipPath2)" font-family="sans-serif" stroke="none">HTTP / SSH</text>
      <path fill="none" d="M221.9696 136.6866 L154.9814 136.6866" clip-path="url(#clipPath2)"/>
      <path d="M146.9814 136.6866 L158.9814 141.6866 L155.9814 136.6866 L158.9814 131.6866 Z" clip-path="url(#clipPath2)" stroke="none"/>
      <text x="169.1615" xml:space="preserve" y="104.1553" clip-path="url(#clipPath2)" font-family="sans-serif" stroke="none">HTTP</text>
      <text x="168.558" xml:space="preserve" y="118.2882" clip-path="url(#clipPath2)" font-family="sans-serif" stroke="none">/ SSH</text>
      <path fill="none" d="M361.9431 136.6866 L411.008 136.6866" clip-path="url(#clipPath2)"/>
      <path d="M419.008 136.6866 L407.008 131.6866 L410.008 136.6866 L407.008 141.6866 Z" clip-path="url(#clipPath2)" stroke="none"/>
      <text x="375.1615" xml:space="preserve" y="104.1553" clip-path="url(#clipPath2)" font-family="sans-serif" stroke="none">HTTP</text>
      <text x="374.558" xml:space="preserve" y="118.2882" clip-path="url(#clipPath2)" font-family="sans-serif" stroke="none">/ SSH</text>
      <path fill="none" d="M477.4833 -8.9496 L477.4833 86.1864" clip-path="url(#clipPath2)"/>
      <path d="M477.4833 94.1864 L482.4833 82.1864 L477.4833 85.1864 L472.4833 82.1864 Z" clip-path="url(#clipPath2)" stroke="none"/>
      <text x="481.4833" xml:space="preserve" y="47.1471" clip-path="url(#clipPath2)" font-family="sans-serif" stroke="none">HTTP / SSH</text>
      <path fill="none" d="M441.9517 -8.959 L341.4821 88.6038" clip-path="url(#clipPath2)"/>
      <path d="M335.7428 94.177 L347.835 89.4042 L342.1995 87.9071 L340.8685 82.2301 Z" clip-path="url(#clipPath2)" stroke="none"/>
      <text x="402.1807" xml:space="preserve" y="47.1471" clip-path="url(#clipPath2)" font-family="sans-serif" stroke="none">SSH</text>
      <path fill="none" d="M418.9946 -20.3947 L135.9524 91.2372" clip-path="url(#clipPath2)"/>
      <path d="M128.5103 94.1723 L141.5079 94.4209 L136.8826 90.8703 L137.8389 85.1183 Z" clip-path="url(#clipPath2)" stroke="none"/>
      <text x="340.1013" xml:space="preserve" y="-24.3908" clip-path="url(#clipPath2)" font-family="sans-serif" stroke="none">SSH</text>
      <path fill="none" d="M477.4833 -130.6912 L477.4833 -85.9629" clip-path="url(#clipPath2)"/>
      <path d="M477.4833 -77.9629 L482.4833 -89.9629 L477.4833 -86.9629 L472.4833 -89.9629 Z" clip-path="url(#clipPath2)" stroke="none"/>
      <text x="481.4833" xml:space="preserve" y="-106.9401" clip-path="url(#clipPath2)" font-family="sans-serif" stroke="none">HTTPS / SSH</text>
      <path fill="none" d="M88.4833 -130.6455 L88.4833 -85.9867" clip-path="url(#clipPath2)"/>
      <path d="M88.4833 -77.9867 L93.4833 -89.9867 L88.4833 -86.9867 L83.4833 -89.9867 Z" clip-path="url(#clipPath2)" stroke="none"/>
      <text x="92.4833" xml:space="preserve" y="-106.9401" clip-path="url(#clipPath2)" font-family="sans-serif" stroke="none">HTTPS / SSH</text>
      <path fill="none" stroke-dasharray="6,2" d="M534.5169 -157.3049 L489.9316 -148.2068" clip-path="url(#clipPath2)"/>
      <path fill="none" stroke-dasharray="6,2" d="M152.9459 -175.6667 L98.713 -150.4274" clip-path="url(#clipPath2)"/>
    </g>
  </g>
</svg>
