<?xml version="1.0" encoding="UTF-8"?><svg xmlns="http://www.w3.org/2000/svg" xmlns:xlink="http://www.w3.org/1999/xlink" fill-opacity="1" color-rendering="auto" color-interpolation="auto" text-rendering="auto" stroke="black" stroke-linecap="square" width="864" stroke-miterlimit="10" shape-rendering="auto" stroke-opacity="1" fill="black" stroke-dasharray="none" font-weight="normal" stroke-width="1" height="456" font-family="'Dialog'" font-style="normal" stroke-linejoin="miter" font-size="12px" stroke-dashoffset="0" image-rendering="auto">
  <!--Generated by ySVG 2.5-->
  <defs id="genericDefs"/>
  <g>
    <defs id="defs1">
      <clipPath clipPathUnits="userSpaceOnUse" id="clipPath1">
        <path d="M0 0 L864 0 L864 456 L0 456 L0 0 Z"/>
      </clipPath>
      <clipPath clipPathUnits="userSpaceOnUse" id="clipPath2">
        <path d="M328 93 L1192 93 L1192 549 L328 549 L328 93 Z"/>
      </clipPath>
    </defs>
    <g fill="white" text-rendering="geometricPrecision" shape-rendering="geometricPrecision" transform="translate(-328,-93)" stroke="white">
      <rect x="328" width="864" height="456" y="93" clip-path="url(#clipPath2)" stroke="none"/>
    </g>
    <g fill="rgb(245,245,245)" text-rendering="geometricPrecision" shape-rendering="geometricPrecision" transform="matrix(1,0,0,1,-328,-93)" stroke="rgb(245,245,245)">
      <rect x="343" y="108" clip-path="url(#clipPath2)" width="240" rx="4" ry="4" height="426" stroke="none"/>
    </g>
    <g text-rendering="geometricPrecision" stroke-miterlimit="1.45" stroke-dasharray="6,2" shape-rendering="geometricPrecision" transform="matrix(1,0,0,1,-328,-93)" stroke-linecap="butt">
      <rect x="343" y="108" clip-path="url(#clipPath2)" fill="none" width="240" rx="4" ry="4" height="426"/>
      <text x="489.291" y="140.6016" clip-path="url(#clipPath2)" font-family="sans-serif" stroke-dasharray="none" stroke="none" xml:space="preserve">Soresu Form</text>
      <rect x="358" y="123" clip-path="url(#clipPath2)" fill="none" width="210" stroke-dasharray="none" height="396"/>
      <text x="423.6455" y="217.9688" clip-path="url(#clipPath2)" font-family="sans-serif" stroke-dasharray="none" stroke="none" xml:space="preserve">Soresu Form</text>
      <text x="426.4814" y="232.1016" clip-path="url(#clipPath2)" font-family="sans-serif" stroke-dasharray="none" stroke="none" xml:space="preserve">React client</text>
      <rect x="374" y="183" clip-path="url(#clipPath2)" fill="none" width="172" stroke-dasharray="none" height="75"/>
      <text x="423.6455" y="391.9688" clip-path="url(#clipPath2)" font-family="sans-serif" stroke-dasharray="none" stroke="none" xml:space="preserve">Soresu Form</text>
      <text x="412.6709" y="406.1016" clip-path="url(#clipPath2)" font-family="sans-serif" stroke-dasharray="none" stroke="none" xml:space="preserve">Clojure backend</text>
      <rect x="374" y="357" clip-path="url(#clipPath2)" fill="none" width="172" stroke-dasharray="none" height="75"/>
    </g>
    <g fill="rgb(245,245,245)" text-rendering="geometricPrecision" shape-rendering="geometricPrecision" transform="matrix(1,0,0,1,-328,-93)" stroke="rgb(245,245,245)">
      <rect x="937" y="108" clip-path="url(#clipPath2)" width="240" rx="4" ry="4" height="190" stroke="none"/>
    </g>
    <g text-rendering="geometricPrecision" stroke-miterlimit="1.45" stroke-dasharray="6,2" shape-rendering="geometricPrecision" transform="matrix(1,0,0,1,-328,-93)" stroke-linecap="butt">
      <rect x="937" y="108" clip-path="url(#clipPath2)" fill="none" width="240" rx="4" ry="4" height="190"/>
      <text x="1083.3906" y="140.6016" clip-path="url(#clipPath2)" font-family="sans-serif" stroke-dasharray="none" stroke="none" xml:space="preserve">Virkalija app</text>
      <rect x="952" y="123" clip-path="url(#clipPath2)" fill="none" width="210" stroke-dasharray="none" height="160"/>
      <text x="1033.4482" y="186.5352" clip-path="url(#clipPath2)" font-family="sans-serif" stroke-dasharray="none" stroke="none" xml:space="preserve">React UI</text>
      <rect x="971" y="160.5" clip-path="url(#clipPath2)" fill="none" width="172" stroke-dasharray="none" height="43"/>
      <text x="1009.6709" y="247.0352" clip-path="url(#clipPath2)" font-family="sans-serif" stroke-dasharray="none" stroke="none" xml:space="preserve">Clojure backend</text>
      <rect x="971" y="221" clip-path="url(#clipPath2)" fill="none" width="172" stroke-dasharray="none" height="43"/>
    </g>
    <g fill="rgb(245,245,245)" text-rendering="geometricPrecision" shape-rendering="geometricPrecision" transform="matrix(1,0,0,1,-328,-93)" stroke="rgb(245,245,245)">
      <rect x="937" y="344" clip-path="url(#clipPath2)" width="240" rx="4" ry="4" height="190" stroke="none"/>
    </g>
    <g text-rendering="geometricPrecision" stroke-miterlimit="1.45" stroke-dasharray="6,2" shape-rendering="geometricPrecision" transform="matrix(1,0,0,1,-328,-93)" stroke-linecap="butt">
      <rect x="937" y="344" clip-path="url(#clipPath2)" fill="none" width="240" rx="4" ry="4" height="190"/>
      <text x="1094.2656" y="376.6016" clip-path="url(#clipPath2)" font-family="sans-serif" stroke-dasharray="none" stroke="none" xml:space="preserve">Hakija app</text>
      <rect x="952" y="359" clip-path="url(#clipPath2)" fill="none" width="210" stroke-dasharray="none" height="160"/>
      <text x="1033.4482" y="426.0352" clip-path="url(#clipPath2)" font-family="sans-serif" stroke-dasharray="none" stroke="none" xml:space="preserve">React UI</text>
      <rect x="971" y="400" clip-path="url(#clipPath2)" fill="none" width="172" stroke-dasharray="none" height="43"/>
      <text x="1009.6709" y="486.5352" clip-path="url(#clipPath2)" font-family="sans-serif" stroke-dasharray="none" stroke="none" xml:space="preserve">Clojure backend</text>
      <rect x="971" y="460.5" clip-path="url(#clipPath2)" fill="none" width="172" stroke-dasharray="none" height="43"/>
    </g>
    <g fill="rgb(245,245,245)" text-rendering="geometricPrecision" shape-rendering="geometricPrecision" transform="matrix(1,0,0,1,-328,-93)" stroke="rgb(245,245,245)">
      <rect x="640" y="108" clip-path="url(#clipPath2)" width="240" rx="4" ry="4" height="426" stroke="none"/>
    </g>
    <g text-rendering="geometricPrecision" stroke-miterlimit="1.45" stroke-dasharray="6,2" shape-rendering="geometricPrecision" transform="matrix(1,0,0,1,-328,-93)" stroke-linecap="butt">
      <rect x="640" y="108" clip-path="url(#clipPath2)" fill="none" width="240" rx="4" ry="4" height="426"/>
      <text x="788.3359" y="140.6016" clip-path="url(#clipPath2)" font-family="sans-serif" stroke-dasharray="none" stroke="none" xml:space="preserve">VA common</text>
      <rect x="655" y="123" clip-path="url(#clipPath2)" fill="none" width="210" stroke-dasharray="none" height="396"/>
      <text x="724.668" y="213.9688" clip-path="url(#clipPath2)" font-family="sans-serif" stroke-dasharray="none" stroke="none" xml:space="preserve">VA common</text>
      <text x="684.8506" y="228.1016" clip-path="url(#clipPath2)" font-family="sans-serif" stroke-dasharray="none" stroke="none" xml:space="preserve">shared React components</text>
      <rect x="674" y="179" clip-path="url(#clipPath2)" fill="none" width="172" stroke-dasharray="none" height="75"/>
      <text x="724.668" y="384.9023" clip-path="url(#clipPath2)" font-family="sans-serif" stroke-dasharray="none" stroke="none" xml:space="preserve">VA common</text>
      <text x="688.4424" y="399.0352" clip-path="url(#clipPath2)" font-family="sans-serif" stroke-dasharray="none" stroke="none" xml:space="preserve">shared Clojure functions</text>
      <text x="687.1182" y="413.168" clip-path="url(#clipPath2)" font-family="sans-serif" stroke-dasharray="none" stroke="none" xml:space="preserve">(database, configuration)</text>
      <rect x="674" y="357" clip-path="url(#clipPath2)" fill="none" width="172" stroke-dasharray="none" height="75"/>
      <path fill="none" stroke-dasharray="none" d="M937.0326 250.6638 L887.459 270.3597" clip-path="url(#clipPath2)"/>
      <path stroke-dasharray="none" d="M880.0243 273.3136 L893.0225 273.5295 L888.3884 269.9905 L889.3302 264.2361 Z" clip-path="url(#clipPath2)" stroke="none"/>
      <path fill="none" stroke-dasharray="none" d="M937.0326 391.3362 L887.459 371.6403" clip-path="url(#clipPath2)"/>
      <path stroke-dasharray="none" d="M880.0243 368.6864 L889.3302 377.7639 L888.3884 372.0095 L893.0225 368.4705 Z" clip-path="url(#clipPath2)" stroke="none"/>
      <path fill="none" stroke-dasharray="none" d="M640.0326 321 L591.0243 321" clip-path="url(#clipPath2)"/>
      <path stroke-dasharray="none" d="M583.0243 321 L595.0243 326 L592.0243 321 L595.0243 316 Z" clip-path="url(#clipPath2)" stroke="none"/>
    </g>
  </g>
</svg>
