<?xml version="1.0" encoding="UTF-8"?><svg xmlns="http://www.w3.org/2000/svg" xmlns:xlink="http://www.w3.org/1999/xlink" fill-opacity="1" color-rendering="auto" color-interpolation="auto" text-rendering="auto" stroke="black" stroke-linecap="square" width="757" stroke-miterlimit="10" shape-rendering="auto" stroke-opacity="1" fill="black" stroke-dasharray="none" font-weight="normal" stroke-width="1" height="752" font-family="'Dialog'" font-style="normal" stroke-linejoin="miter" font-size="12px" stroke-dashoffset="0" image-rendering="auto">
  <!--Generated by ySVG 2.5-->
  <defs id="genericDefs"/>
  <g>
    <defs id="defs1">
      <linearGradient x1="381.9634" gradientUnits="userSpaceOnUse" x2="419.5301" y1="94.1866" y2="144.5982" id="linearGradient1" spreadMethod="pad">
        <stop stop-opacity="0.8627" stop-color="rgb(255,255,255)" offset="0%"/>
        <stop stop-opacity="0.1255" stop-color="rgb(255,255,255)" offset="100%"/>
      </linearGradient>
      <linearGradient x1="124.9833" gradientUnits="userSpaceOnUse" x2="162.5501" y1="94.1866" y2="144.5982" id="linearGradient2" spreadMethod="pad">
        <stop stop-opacity="0.8627" stop-color="rgb(255,255,255)" offset="0%"/>
        <stop stop-opacity="0.1255" stop-color="rgb(255,255,255)" offset="100%"/>
      </linearGradient>
      <linearGradient x1="264.7673" gradientUnits="userSpaceOnUse" x2="296.6345" y1="388.5874" y2="432.7745" id="linearGradient3" spreadMethod="pad">
        <stop stop-opacity="0.8627" stop-color="rgb(255,255,255)" offset="0%"/>
        <stop stop-opacity="0.1255" stop-color="rgb(255,255,255)" offset="100%"/>
      </linearGradient>
      <linearGradient x1="246.9833" gradientUnits="userSpaceOnUse" x2="277.1736" y1="-63.24" y2="-15.104" id="linearGradient4" spreadMethod="pad">
        <stop stop-opacity="0.8627" stop-color="rgb(255,255,255)" offset="0%"/>
        <stop stop-opacity="0.1255" stop-color="rgb(255,255,255)" offset="100%"/>
      </linearGradient>
      <clipPath clipPathUnits="userSpaceOnUse" id="clipPath1">
        <path d="M0 0 L757 0 L757 752 L0 752 L0 0 Z"/>
      </clipPath>
      <clipPath clipPathUnits="userSpaceOnUse" id="clipPath2">
        <path d="M36 -225 L793 -225 L793 527 L36 527 L36 -225 Z"/>
      </clipPath>
    </defs>
    <g fill="white" text-rendering="geometricPrecision" shape-rendering="geometricPrecision" transform="translate(-36,225)" stroke="white">
      <rect x="36" width="757" height="752" y="-225" clip-path="url(#clipPath2)" stroke="none"/>
    </g>
    <g text-rendering="geometricPrecision" stroke-miterlimit="1.45" shape-rendering="geometricPrecision" font-family="sans-serif" transform="matrix(1,0,0,1,-36,225)" stroke-linecap="butt">
      <text x="110.5952" xml:space="preserve" y="-88.0651" clip-path="url(#clipPath2)" stroke="none">Valtionavustus CSC</text>
      <text x="104.6977" xml:space="preserve" y="-73.9323" clip-path="url(#clipPath2)" stroke="none">VMWare environment</text>
      <rect x="98.6977" y="-105.6667" clip-path="url(#clipPath2)" fill="none" width="472.1392" stroke-dasharray="6,2" height="336.254"/>
    </g>
    <g text-rendering="geometricPrecision" stroke-miterlimit="1.45" shape-rendering="geometricPrecision" transform="matrix(1,0,0,1,-36,225)" stroke-linecap="butt">
      <rect x="381.9634" y="94.1866" clip-path="url(#clipPath2)" fill="none" width="159" rx="1.5" ry="1.5" height="99"/>
    </g>
    <g fill="url(#linearGradient1)" text-rendering="geometricPrecision" shape-rendering="geometricPrecision" transform="matrix(1,0,0,1,-36,225)" stroke="url(#linearGradient1)">
      <path d="M382.7134 97.1866 Q382.7134 94.9366 384.9634 94.9366 L482.3134 94.9366 Q484.5634 94.9366 484.5634 97.1866 Q484.5634 99.4366 435.8884 136.0366 Q387.2134 172.6366 384.9634 172.6366 Q382.7134 172.6366 382.7134 170.3866 Z" stroke="none" clip-path="url(#clipPath2)"/>
    </g>
    <g text-rendering="geometricPrecision" stroke-miterlimit="1.45" shape-rendering="geometricPrecision" font-family="sans-serif" transform="matrix(1,0,0,1,-36,225)" stroke-linecap="butt">
      <text x="401.2964" xml:space="preserve" y="111.7882" clip-path="url(#clipPath2)" stroke="none">oph-va-app-prod01</text>
      <text x="440.1089" xml:space="preserve" y="125.921" clip-path="url(#clipPath2)" stroke="none">CentOS</text>
      <text x="410.938" xml:space="preserve" y="140.0538" clip-path="url(#clipPath2)" stroke="none">2 core, 4GB RAM,</text>
      <text x="428.3199" xml:space="preserve" y="154.1866" clip-path="url(#clipPath2)" stroke="none">200GB disk</text>
      <text x="436.356" xml:space="preserve" y="168.3194" clip-path="url(#clipPath2)" stroke="none">HTTP Kit</text>
      <text x="417.1431" xml:space="preserve" y="182.4522" clip-path="url(#clipPath2)" stroke="none">PostgreSQL 9.4</text>
    </g>
    <g text-rendering="geometricPrecision" stroke-miterlimit="1.45" shape-rendering="geometricPrecision" transform="matrix(1,0,0,1,-36,225)" stroke-linecap="butt">
      <rect x="124.9833" y="94.1866" clip-path="url(#clipPath2)" fill="none" width="159" rx="1.5" ry="1.5" height="99"/>
    </g>
    <g fill="url(#linearGradient2)" text-rendering="geometricPrecision" shape-rendering="geometricPrecision" transform="matrix(1,0,0,1,-36,225)" stroke="url(#linearGradient2)">
      <path d="M125.7333 97.1866 Q125.7333 94.9366 127.9833 94.9366 L225.3333 94.9366 Q227.5833 94.9366 227.5833 97.1866 Q227.5833 99.4366 178.9083 136.0366 Q130.2333 172.6366 127.9833 172.6366 Q125.7333 172.6366 125.7333 170.3866 Z" stroke="none" clip-path="url(#clipPath2)"/>
    </g>
    <g text-rendering="geometricPrecision" stroke-miterlimit="1.45" shape-rendering="geometricPrecision" font-family="sans-serif" transform="matrix(1,0,0,1,-36,225)" stroke-linecap="butt">
      <text x="147.1201" xml:space="preserve" y="111.7882" clip-path="url(#clipPath2)" stroke="none">oph-va-app-test01</text>
      <text x="183.1288" xml:space="preserve" y="125.921" clip-path="url(#clipPath2)" stroke="none">CentOS</text>
      <text x="153.9579" xml:space="preserve" y="140.0538" clip-path="url(#clipPath2)" stroke="none">2 core, 4GB RAM,</text>
      <text x="169.4413" xml:space="preserve" y="154.1866" clip-path="url(#clipPath2)" stroke="none">200 GB disk</text>
      <text x="179.3759" xml:space="preserve" y="168.3194" clip-path="url(#clipPath2)" stroke="none">HTTP Kit</text>
      <text x="160.163" xml:space="preserve" y="182.4522" clip-path="url(#clipPath2)" stroke="none">PostgreSQL 9.4</text>
    </g>
    <g text-rendering="geometricPrecision" stroke-miterlimit="1.45" shape-rendering="geometricPrecision" transform="matrix(1,0,0,1,-36,225)" stroke-linecap="butt">
      <rect x="264.7673" y="388.5874" clip-path="url(#clipPath2)" fill="none" width="140" rx="1.5" ry="1.5" height="85"/>
    </g>
    <g fill="url(#linearGradient3)" text-rendering="geometricPrecision" shape-rendering="geometricPrecision" transform="matrix(1,0,0,1,-36,225)" stroke="url(#linearGradient3)">
      <path d="M265.5173 391.5874 Q265.5173 389.3374 267.7673 389.3374 L352.7673 389.3374 Q355.0173 389.3374 355.0173 391.5874 Q355.0173 393.8374 312.5173 424.8374 Q270.0173 455.8374 267.7673 455.8374 Q265.5173 455.8374 265.5173 453.5874 Z" stroke="none" clip-path="url(#clipPath2)"/>
    </g>
    <g text-rendering="geometricPrecision" stroke-miterlimit="1.45" shape-rendering="geometricPrecision" font-family="sans-serif" transform="matrix(1,0,0,1,-36,225)" stroke-linecap="butt">
      <text x="310.1315" xml:space="preserve" y="406.1889" clip-path="url(#clipPath2)" stroke="none">va-build</text>
      <text x="280.4479" xml:space="preserve" y="420.3217" clip-path="url(#clipPath2)" stroke="none">4 core, 15GB RAM,</text>
      <text x="270.7448" xml:space="preserve" y="434.4546" clip-path="url(#clipPath2)" stroke="none">100GB persistent disk</text>
      <text x="318.1647" xml:space="preserve" y="448.5874" clip-path="url(#clipPath2)" stroke="none">nginx</text>
      <text x="313.8112" xml:space="preserve" y="462.7202" clip-path="url(#clipPath2)" stroke="none">Jenkins</text>
    </g>
    <g text-rendering="geometricPrecision" stroke-miterlimit="1.45" shape-rendering="geometricPrecision" transform="matrix(1,0,0,1,-36,225)" stroke-linecap="butt">
      <rect x="246.9833" y="-63.24" clip-path="url(#clipPath2)" fill="none" width="159" rx="1.5" ry="1.5" height="85"/>
    </g>
    <g fill="url(#linearGradient4)" text-rendering="geometricPrecision" shape-rendering="geometricPrecision" transform="matrix(1,0,0,1,-36,225)" stroke="url(#linearGradient4)">
      <path d="M247.7333 -60.24 Q247.7333 -62.49 249.9833 -62.49 L347.3333 -62.49 Q349.5833 -62.49 349.5833 -60.24 Q349.5833 -57.99 300.9083 -26.99 Q252.2333 4.01 249.9833 4.01 Q247.7333 4.01 247.7333 1.76 Z" stroke="none" clip-path="url(#clipPath2)"/>
    </g>
    <g text-rendering="geometricPrecision" stroke-miterlimit="1.45" shape-rendering="geometricPrecision" font-family="sans-serif" transform="matrix(1,0,0,1,-36,225)" stroke-linecap="butt">
      <text x="254.7294" xml:space="preserve" y="-45.6385" clip-path="url(#clipPath2)" stroke="none">oph-va-lb-prod01.csc.fi</text>
      <text x="305.1288" xml:space="preserve" y="-31.5057" clip-path="url(#clipPath2)" stroke="none">CentOS</text>
      <text x="275.9579" xml:space="preserve" y="-17.3728" clip-path="url(#clipPath2)" stroke="none">2 core, 4GB RAM,</text>
      <text x="297.1337" xml:space="preserve" y="-3.24" clip-path="url(#clipPath2)" stroke="none">50GB disk</text>
      <text x="301.663" xml:space="preserve" y="10.8928" clip-path="url(#clipPath2)" stroke="none">HAProxy</text>
    </g>
    <g fill="white" text-rendering="geometricPrecision" shape-rendering="geometricPrecision" transform="matrix(1,0,0,1,-36,225)" stroke="white">
      <path d="M311.4833 -166.6667 L326.4833 -181.6667 L341.4833 -166.6667 L326.4833 -151.6667 Z" fill-rule="evenodd" clip-path="url(#clipPath2)" stroke="none"/>
    </g>
    <g text-rendering="geometricPrecision" stroke-miterlimit="1.45" shape-rendering="geometricPrecision" transform="matrix(1,0,0,1,-36,225)" stroke-linecap="butt">
      <path fill="none" d="M311.4833 -166.6667 L326.4833 -181.6667 L341.4833 -166.6667 L326.4833 -151.6667 Z" fill-rule="evenodd" clip-path="url(#clipPath2)"/>
    </g>
    <g fill="rgb(255,255,153)" text-rendering="geometricPrecision" shape-rendering="geometricPrecision" transform="matrix(1,0,0,1,-36,225)" stroke="rgb(255,255,153)">
      <path d="M433.8369 -209.1667 L645.8369 -209.1667 L645.8369 -194.1667 L660.8369 -194.1667 L660.8369 -124.1667 L433.8369 -124.1667 Z" stroke="none" clip-path="url(#clipPath2)"/>
      <path fill="white" d="M645.8369 -209.1667 L645.8369 -194.1667 L660.8369 -194.1667 Z" clip-path="url(#clipPath2)" fill-rule="evenodd" stroke="none"/>
    </g>
    <g text-rendering="geometricPrecision" stroke-miterlimit="1.45" shape-rendering="geometricPrecision" transform="matrix(1,0,0,1,-36,225)" stroke-linecap="butt">
      <path fill="none" d="M433.8369 -209.1667 L645.8369 -209.1667 L645.8369 -194.1667 L660.8369 -194.1667 L660.8369 -124.1667 L433.8369 -124.1667 Z" clip-path="url(#clipPath2)"/>
      <path fill="none" d="M645.8369 -209.1667 L645.8369 -194.1667 L660.8369 -194.1667 Z" clip-path="url(#clipPath2)" fill-rule="evenodd"/>
      <text x="523.2475" font-size="10px" y="-186.4421" clip-path="url(#clipPath2)" font-family="sans-serif" stroke="none" xml:space="preserve">valtionavustukset.oph.fi</text>
      <text x="535.1762" font-size="10px" y="-174.6647" clip-path="url(#clipPath2)" font-family="sans-serif" stroke="none" xml:space="preserve">statsunderstod.oph.fi</text>
      <text x="479.3217" font-size="10px" y="-162.8874" clip-path="url(#clipPath2)" font-family="sans-serif" stroke="none" xml:space="preserve">virkailija.valtionavustukset.oph.fi</text>
      <text x="499.0434" font-size="10px" y="-151.11" clip-path="url(#clipPath2)" font-family="sans-serif" stroke="none" xml:space="preserve">testi.valtionavustukset.oph.fi</text>
      <text x="455.1176" font-size="10px" y="-139.3327" clip-path="url(#clipPath2)" font-family="sans-serif" stroke="none" xml:space="preserve">testi.virkailija.valtionavustukset.oph.fi</text>
      <text x="221.986" xml:space="preserve" y="503.3102" clip-path="url(#clipPath2)" font-family="sans-serif" stroke="none">Valtionavustus CSC Pouta environment</text>
      <rect x="98.6977" y="372.5874" clip-path="url(#clipPath2)" fill="none" width="472.1392" stroke-dasharray="6,2" height="139.254"/>
    </g>
    <g fill="white" text-rendering="geometricPrecision" shape-rendering="geometricPrecision" transform="matrix(1,0,0,1,-36,225)" stroke="white">
      <path d="M319.7673 327.5874 L334.7673 312.5873 L349.7673 327.5874 L334.7673 342.5874 Z" fill-rule="evenodd" clip-path="url(#clipPath2)" stroke="none"/>
    </g>
    <g text-rendering="geometricPrecision" stroke-miterlimit="1.45" shape-rendering="geometricPrecision" font-family="sans-serif" transform="matrix(1,0,0,1,-36,225)" stroke-linecap="butt">
      <text x="355.7673" xml:space="preserve" y="332.1225" clip-path="url(#clipPath2)" stroke="none">86.50.168.174</text>
      <path fill="none" d="M319.7673 327.5874 L334.7673 312.5873 L349.7673 327.5874 L334.7673 342.5874 Z" clip-path="url(#clipPath2)" fill-rule="evenodd"/>
    </g>
    <g fill="rgb(255,255,153)" text-rendering="geometricPrecision" shape-rendering="geometricPrecision" transform="matrix(1,0,0,1,-36,225)" stroke="rgb(255,255,153)">
      <path d="M51.9334 303.5874 L234.9334 303.5874 L234.9334 318.5874 L249.9334 318.5874 L249.9334 351.5874 L51.9334 351.5874 Z" stroke="none" clip-path="url(#clipPath2)"/>
      <path fill="white" d="M234.9334 303.5874 L234.9334 318.5874 L249.9334 318.5874 Z" clip-path="url(#clipPath2)" fill-rule="evenodd" stroke="none"/>
    </g>
    <g text-rendering="geometricPrecision" stroke-miterlimit="1.45" shape-rendering="geometricPrecision" transform="matrix(1,0,0,1,-36,225)" stroke-linecap="butt">
      <path fill="none" d="M51.9334 303.5874 L234.9334 303.5874 L234.9334 318.5874 L249.9334 318.5874 L249.9334 351.5874 L51.9334 351.5874 Z" clip-path="url(#clipPath2)"/>
      <path fill="none" d="M234.9334 303.5874 L234.9334 318.5874 L249.9334 318.5874 Z" clip-path="url(#clipPath2)" fill-rule="evenodd"/>
      <text x="82.6765" font-size="10px" y="331.3667" clip-path="url(#clipPath2)" font-family="sans-serif" stroke="none" xml:space="preserve">dev.valtionavustukset.oph.fi</text>
    </g>
    <g fill="rgb(255,255,153)" text-rendering="geometricPrecision" shape-rendering="geometricPrecision" transform="matrix(1,0,0,1,-36,225)" stroke="rgb(255,255,153)">
      <path d="M618.8369 35.9604 L762.8369 35.9604 L762.8369 50.9604 L777.8369 50.9604 L777.8369 88.9604 L618.8369 88.9604 Z" stroke="none" clip-path="url(#clipPath2)"/>
      <path fill="white" d="M762.8369 35.9604 L762.8369 50.9604 L777.8369 50.9604 Z" clip-path="url(#clipPath2)" fill-rule="evenodd" stroke="none"/>
    </g>
    <g text-rendering="geometricPrecision" stroke-miterlimit="1.45" shape-rendering="geometricPrecision" transform="matrix(1,0,0,1,-36,225)" stroke-linecap="butt">
      <path fill="none" d="M618.8369 35.9604 L762.8369 35.9604 L762.8369 50.9604 L777.8369 50.9604 L777.8369 88.9604 L618.8369 88.9604 Z" clip-path="url(#clipPath2)"/>
      <path fill="none" d="M762.8369 35.9604 L762.8369 50.9604 L777.8369 50.9604 Z" clip-path="url(#clipPath2)" fill-rule="evenodd"/>
      <text x="678.8373" font-size="10px" y="60.351" clip-path="url(#clipPath2)" font-family="sans-serif" stroke="none" xml:space="preserve">Kaikille koneille</text>
      <text x="641.6352" font-size="10px" y="72.1283" clip-path="url(#clipPath2)" font-family="sans-serif" stroke="none" xml:space="preserve">SSH-yhteys internetistä</text>
      <path fill="none" d="M376.4088 21.7681 L455.3722 89.0001" clip-path="url(#clipPath2)"/>
      <path d="M461.4634 94.1863 L455.568 82.6 L454.6108 88.3518 L449.0852 90.214 Z" clip-path="url(#clipPath2)" stroke="none"/>
      <text x="433.5799" xml:space="preserve" y="62.5084" clip-path="url(#clipPath2)" font-family="sans-serif" stroke="none">HTTP / SSH</text>
      <path fill="none" d="M281.3588 21.7768 L210.3247 88.706" clip-path="url(#clipPath2)"/>
      <path d="M204.5021 94.1921 L216.6648 89.6021 L211.0525 88.0202 L209.8072 82.3238 Z" clip-path="url(#clipPath2)" stroke="none"/>
      <text x="136.7994" xml:space="preserve" y="62.0212" clip-path="url(#clipPath2)" font-family="sans-serif" stroke="none">HTTP / SSH</text>
      <path fill="none" d="M326.4833 -151.6426 L326.4833 -71.2402" clip-path="url(#clipPath2)"/>
      <path d="M326.4833 -63.2402 L331.4833 -75.2402 L326.4833 -72.2402 L321.4833 -75.2402 Z" clip-path="url(#clipPath2)" stroke="none"/>
      <text x="330.4833" xml:space="preserve" y="-127.9401" clip-path="url(#clipPath2)" font-family="sans-serif" stroke="none">HTTPS / SSH</text>
      <path fill="none" stroke-dasharray="6,2" d="M433.8637 -166.6667 L341.5051 -166.6667" clip-path="url(#clipPath2)"/>
      <path fill="none" d="M334.7673 342.5594 L334.7673 372.5874" clip-path="url(#clipPath2)"/>
      <path fill="none" d="M327.3561 319.9407 L210.081 198.939" clip-path="url(#clipPath2)"/>
      <path d="M204.5133 193.1944 L209.2745 205.2911 L210.777 199.6571 L216.4553 198.3315 Z" clip-path="url(#clipPath2)" stroke="none"/>
      <text x="198.172" xml:space="preserve" y="268.4741" clip-path="url(#clipPath2)" font-family="sans-serif" stroke="none">HTTP / SSH</text>
      <path fill="none" d="M342.0362 319.8748 L455.9473 199.0123" clip-path="url(#clipPath2)"/>
      <path d="M461.4343 193.1905 L449.5652 198.4939 L455.2614 199.74 L456.8424 205.3526 Z" clip-path="url(#clipPath2)" stroke="none"/>
      <text x="403.454" xml:space="preserve" y="267.8336" clip-path="url(#clipPath2)" font-family="sans-serif" stroke="none">HTTP / SSH</text>
      <path fill="none" stroke-dasharray="6,2" d="M249.8967 327.5874 L319.8072 327.5874" clip-path="url(#clipPath2)"/>
      <path fill="none" stroke-dasharray="6,2" d="M618.8504 62.4604 L570.8369 62.4604" clip-path="url(#clipPath2)"/>
    </g>
  </g>
</svg>
