<?xml version="1.0" encoding="UTF-8"?><svg xmlns="http://www.w3.org/2000/svg" xmlns:xlink="http://www.w3.org/1999/xlink" fill-opacity="1" color-rendering="auto" color-interpolation="auto" text-rendering="auto" stroke="black" stroke-linecap="square" width="710" stroke-miterlimit="10" shape-rendering="auto" stroke-opacity="1" fill="black" stroke-dasharray="none" font-weight="normal" stroke-width="1" height="782" font-family="'Dialog'" font-style="normal" stroke-linejoin="miter" font-size="12px" stroke-dashoffset="0" image-rendering="auto">
  <!--Generated by ySVG 2.5-->
  <defs id="genericDefs"/>
  <g>
    <defs id="defs1">
      <linearGradient x1="367.0232" gradientUnits="userSpaceOnUse" x2="403.3531" y1="94.1866" y2="147.9373" id="linearGradient1" spreadMethod="pad">
        <stop stop-opacity="0.8627" stop-color="rgb(255,255,255)" offset="0%"/>
        <stop stop-opacity="0.1255" stop-color="rgb(255,255,255)" offset="100%"/>
      </linearGradient>
      <linearGradient x1="124.9833" gradientUnits="userSpaceOnUse" x2="161.8222" y1="94.1866" y2="146.6626" id="linearGradient2" spreadMethod="pad">
        <stop stop-opacity="0.8627" stop-color="rgb(255,255,255)" offset="0%"/>
        <stop stop-opacity="0.1255" stop-color="rgb(255,255,255)" offset="100%"/>
      </linearGradient>
      <linearGradient x1="264.7673" gradientUnits="userSpaceOnUse" x2="296.6345" y1="388.5874" y2="432.7745" id="linearGradient3" spreadMethod="pad">
        <stop stop-opacity="0.8627" stop-color="rgb(255,255,255)" offset="0%"/>
        <stop stop-opacity="0.1255" stop-color="rgb(255,255,255)" offset="100%"/>
      </linearGradient>
      <linearGradient x1="246.9833" gradientUnits="userSpaceOnUse" x2="277.1736" y1="-63.24" y2="-15.104" id="linearGradient4" spreadMethod="pad">
        <stop stop-opacity="0.8627" stop-color="rgb(255,255,255)" offset="0%"/>
        <stop stop-opacity="0.1255" stop-color="rgb(255,255,255)" offset="100%"/>
      </linearGradient>
      <clipPath clipPathUnits="userSpaceOnUse" id="clipPath1">
        <path d="M0 0 L710 0 L710 782 L0 782 L0 0 Z"/>
      </clipPath>
      <clipPath clipPathUnits="userSpaceOnUse" id="clipPath2">
        <path d="M83 -255 L793 -255 L793 527 L83 527 L83 -255 Z"/>
      </clipPath>
    </defs>
    <g fill="white" text-rendering="geometricPrecision" shape-rendering="geometricPrecision" transform="translate(-83,255)" stroke="white">
      <rect x="83" width="710" height="782" y="-255" clip-path="url(#clipPath2)" stroke="none"/>
    </g>
    <g text-rendering="geometricPrecision" stroke-miterlimit="1.45" shape-rendering="geometricPrecision" font-family="sans-serif" transform="matrix(1,0,0,1,-83,255)" stroke-linecap="butt">
      <text x="110.5952" xml:space="preserve" y="-88.0651" clip-path="url(#clipPath2)" stroke="none">Valtionavustus CSC</text>
      <text x="104.6977" xml:space="preserve" y="-73.9323" clip-path="url(#clipPath2)" stroke="none">VMWare environment</text>
      <rect x="98.6977" y="-105.6667" clip-path="url(#clipPath2)" fill="none" width="472.1392" stroke-dasharray="6,2" height="336.254"/>
    </g>
    <g text-rendering="geometricPrecision" stroke-miterlimit="1.45" shape-rendering="geometricPrecision" transform="matrix(1,0,0,1,-83,255)" stroke-linecap="butt">
      <rect x="367.0232" y="94.1866" clip-path="url(#clipPath2)" fill="none" width="173.9402" rx="1.5" ry="1.5" height="99"/>
    </g>
    <g fill="url(#linearGradient1)" text-rendering="geometricPrecision" shape-rendering="geometricPrecision" transform="matrix(1,0,0,1,-83,255)" stroke="url(#linearGradient1)">
      <path d="M367.7732 97.1866 Q367.7732 94.9366 370.0232 94.9366 L477.0843 94.9366 Q479.3343 94.9366 479.3343 97.1866 Q479.3343 99.4366 425.8038 136.0366 Q372.2732 172.6366 370.0232 172.6366 Q367.7732 172.6366 367.7732 170.3866 Z" stroke="none" clip-path="url(#clipPath2)"/>
    </g>
    <g text-rendering="geometricPrecision" stroke-miterlimit="1.45" shape-rendering="geometricPrecision" font-family="sans-serif" transform="matrix(1,0,0,1,-83,255)" stroke-linecap="butt">
      <text x="376.8839" xml:space="preserve" y="111.7882" clip-path="url(#clipPath2)" stroke="none">oph-va-app-prod01.csc.fi</text>
      <text x="432.6388" xml:space="preserve" y="125.921" clip-path="url(#clipPath2)" stroke="none">CentOS</text>
      <text x="403.4679" xml:space="preserve" y="140.0538" clip-path="url(#clipPath2)" stroke="none">2 core, 4GB RAM,</text>
      <text x="420.8498" xml:space="preserve" y="154.1866" clip-path="url(#clipPath2)" stroke="none">200GB disk</text>
      <text x="428.8859" xml:space="preserve" y="168.3194" clip-path="url(#clipPath2)" stroke="none">HTTP Kit</text>
      <text x="409.673" xml:space="preserve" y="182.4522" clip-path="url(#clipPath2)" stroke="none">PostgreSQL 9.4</text>
    </g>
    <g text-rendering="geometricPrecision" stroke-miterlimit="1.45" shape-rendering="geometricPrecision" transform="matrix(1,0,0,1,-83,255)" stroke-linecap="butt">
      <rect x="124.9833" y="94.1866" clip-path="url(#clipPath2)" fill="none" width="167.9641" rx="1.5" ry="1.5" height="99"/>
    </g>
    <g fill="url(#linearGradient2)" text-rendering="geometricPrecision" shape-rendering="geometricPrecision" transform="matrix(1,0,0,1,-83,255)" stroke="url(#linearGradient2)">
      <path d="M125.7333 97.1866 Q125.7333 94.9366 127.9833 94.9366 L231.16 94.9366 Q233.41 94.9366 233.41 97.1866 Q233.41 99.4366 181.8217 136.0366 Q130.2333 172.6366 127.9833 172.6366 Q125.7333 172.6366 125.7333 170.3866 Z" stroke="none" clip-path="url(#clipPath2)"/>
    </g>
    <g text-rendering="geometricPrecision" stroke-miterlimit="1.45" shape-rendering="geometricPrecision" font-family="sans-serif" transform="matrix(1,0,0,1,-83,255)" stroke-linecap="butt">
      <text x="134.6597" xml:space="preserve" y="111.7882" clip-path="url(#clipPath2)" stroke="none">oph-va-app-test01.csc.fi</text>
      <text x="187.6109" xml:space="preserve" y="125.921" clip-path="url(#clipPath2)" stroke="none">CentOS</text>
      <text x="158.44" xml:space="preserve" y="140.0538" clip-path="url(#clipPath2)" stroke="none">2 core, 4GB RAM,</text>
      <text x="173.9234" xml:space="preserve" y="154.1866" clip-path="url(#clipPath2)" stroke="none">200 GB disk</text>
      <text x="183.858" xml:space="preserve" y="168.3194" clip-path="url(#clipPath2)" stroke="none">HTTP Kit</text>
      <text x="164.6451" xml:space="preserve" y="182.4522" clip-path="url(#clipPath2)" stroke="none">PostgreSQL 9.4</text>
    </g>
    <g text-rendering="geometricPrecision" stroke-miterlimit="1.45" shape-rendering="geometricPrecision" transform="matrix(1,0,0,1,-83,255)" stroke-linecap="butt">
      <rect x="264.7673" y="388.5874" clip-path="url(#clipPath2)" fill="none" width="140" rx="1.5" ry="1.5" height="85"/>
    </g>
    <g fill="url(#linearGradient3)" text-rendering="geometricPrecision" shape-rendering="geometricPrecision" transform="matrix(1,0,0,1,-83,255)" stroke="url(#linearGradient3)">
      <path d="M265.5173 391.5874 Q265.5173 389.3374 267.7673 389.3374 L352.7673 389.3374 Q355.0173 389.3374 355.0173 391.5874 Q355.0173 393.8374 312.5173 424.8374 Q270.0173 455.8374 267.7673 455.8374 Q265.5173 455.8374 265.5173 453.5874 Z" stroke="none" clip-path="url(#clipPath2)"/>
    </g>
    <g text-rendering="geometricPrecision" stroke-miterlimit="1.45" shape-rendering="geometricPrecision" font-family="sans-serif" transform="matrix(1,0,0,1,-83,255)" stroke-linecap="butt">
      <text x="310.1315" xml:space="preserve" y="406.1889" clip-path="url(#clipPath2)" stroke="none">va-build</text>
      <text x="280.4479" xml:space="preserve" y="420.3217" clip-path="url(#clipPath2)" stroke="none">4 core, 15GB RAM,</text>
      <text x="270.7448" xml:space="preserve" y="434.4546" clip-path="url(#clipPath2)" stroke="none">100GB persistent disk</text>
      <text x="318.1647" xml:space="preserve" y="448.5874" clip-path="url(#clipPath2)" stroke="none">nginx</text>
      <text x="313.8112" xml:space="preserve" y="462.7202" clip-path="url(#clipPath2)" stroke="none">Jenkins</text>
    </g>
    <g text-rendering="geometricPrecision" stroke-miterlimit="1.45" shape-rendering="geometricPrecision" transform="matrix(1,0,0,1,-83,255)" stroke-linecap="butt">
      <rect x="246.9833" y="-63.24" clip-path="url(#clipPath2)" fill="none" width="159" rx="1.5" ry="1.5" height="85"/>
    </g>
    <g fill="url(#linearGradient4)" text-rendering="geometricPrecision" shape-rendering="geometricPrecision" transform="matrix(1,0,0,1,-83,255)" stroke="url(#linearGradient4)">
      <path d="M247.7333 -60.24 Q247.7333 -62.49 249.9833 -62.49 L347.3333 -62.49 Q349.5833 -62.49 349.5833 -60.24 Q349.5833 -57.99 300.9083 -26.99 Q252.2333 4.01 249.9833 4.01 Q247.7333 4.01 247.7333 1.76 Z" stroke="none" clip-path="url(#clipPath2)"/>
    </g>
    <g text-rendering="geometricPrecision" stroke-miterlimit="1.45" shape-rendering="geometricPrecision" font-family="sans-serif" transform="matrix(1,0,0,1,-83,255)" stroke-linecap="butt">
      <text x="254.7294" xml:space="preserve" y="-45.6385" clip-path="url(#clipPath2)" stroke="none">oph-va-lb-prod01.csc.fi</text>
      <text x="305.1288" xml:space="preserve" y="-31.5057" clip-path="url(#clipPath2)" stroke="none">CentOS</text>
      <text x="275.9579" xml:space="preserve" y="-17.3728" clip-path="url(#clipPath2)" stroke="none">2 core, 4GB RAM,</text>
      <text x="297.1337" xml:space="preserve" y="-3.24" clip-path="url(#clipPath2)" stroke="none">50GB disk</text>
      <text x="301.663" xml:space="preserve" y="10.8928" clip-path="url(#clipPath2)" stroke="none">HAProxy</text>
    </g>
    <g fill="white" text-rendering="geometricPrecision" shape-rendering="geometricPrecision" transform="matrix(1,0,0,1,-83,255)" stroke="white">
      <path d="M311.4833 -196.6667 L326.4833 -211.6667 L341.4833 -196.6667 L326.4833 -181.6667 Z" fill-rule="evenodd" clip-path="url(#clipPath2)" stroke="none"/>
    </g>
    <g text-rendering="geometricPrecision" stroke-miterlimit="1.45" shape-rendering="geometricPrecision" transform="matrix(1,0,0,1,-83,255)" stroke-linecap="butt">
      <path fill="none" d="M311.4833 -196.6667 L326.4833 -211.6667 L341.4833 -196.6667 L326.4833 -181.6667 Z" fill-rule="evenodd" clip-path="url(#clipPath2)"/>
    </g>
    <g fill="rgb(255,255,153)" text-rendering="geometricPrecision" shape-rendering="geometricPrecision" transform="matrix(1,0,0,1,-83,255)" stroke="rgb(255,255,153)">
      <path d="M433.8369 -239.1667 L645.8369 -239.1667 L645.8369 -224.1667 L660.8369 -224.1667 L660.8369 -154.1667 L433.8369 -154.1667 Z" stroke="none" clip-path="url(#clipPath2)"/>
      <path fill="white" d="M645.8369 -239.1667 L645.8369 -224.1667 L660.8369 -224.1667 Z" clip-path="url(#clipPath2)" fill-rule="evenodd" stroke="none"/>
    </g>
    <g text-rendering="geometricPrecision" stroke-miterlimit="1.45" shape-rendering="geometricPrecision" transform="matrix(1,0,0,1,-83,255)" stroke-linecap="butt">
      <path fill="none" d="M433.8369 -239.1667 L645.8369 -239.1667 L645.8369 -224.1667 L660.8369 -224.1667 L660.8369 -154.1667 L433.8369 -154.1667 Z" clip-path="url(#clipPath2)"/>
      <path fill="none" d="M645.8369 -239.1667 L645.8369 -224.1667 L660.8369 -224.1667 Z" clip-path="url(#clipPath2)" fill-rule="evenodd"/>
      <text x="523.2475" font-size="10px" y="-216.4421" clip-path="url(#clipPath2)" font-family="sans-serif" stroke="none" xml:space="preserve">valtionavustukset.oph.fi</text>
      <text x="535.1762" font-size="10px" y="-204.6647" clip-path="url(#clipPath2)" font-family="sans-serif" stroke="none" xml:space="preserve">statsunderstod.oph.fi</text>
      <text x="479.3217" font-size="10px" y="-192.8874" clip-path="url(#clipPath2)" font-family="sans-serif" stroke="none" xml:space="preserve">virkailija.valtionavustukset.oph.fi</text>
      <text x="499.0434" font-size="10px" y="-181.11" clip-path="url(#clipPath2)" font-family="sans-serif" stroke="none" xml:space="preserve">testi.valtionavustukset.oph.fi</text>
      <text x="455.1176" font-size="10px" y="-169.3327" clip-path="url(#clipPath2)" font-family="sans-serif" stroke="none" xml:space="preserve">testi.virkailija.valtionavustukset.oph.fi</text>
      <text x="221.986" xml:space="preserve" y="503.3102" clip-path="url(#clipPath2)" font-family="sans-serif" stroke="none">Valtionavustus CSC Pouta environment</text>
      <rect x="98.6977" y="372.5874" clip-path="url(#clipPath2)" fill="none" width="472.1392" stroke-dasharray="6,2" height="139.254"/>
    </g>
    <g fill="white" text-rendering="geometricPrecision" shape-rendering="geometricPrecision" transform="matrix(1,0,0,1,-83,255)" stroke="white">
      <path d="M319.7673 327.5874 L334.7673 312.5874 L349.7673 327.5874 L334.7673 342.5874 Z" fill-rule="evenodd" clip-path="url(#clipPath2)" stroke="none"/>
    </g>
    <g text-rendering="geometricPrecision" stroke-miterlimit="1.45" shape-rendering="geometricPrecision" font-family="sans-serif" transform="matrix(1,0,0,1,-83,255)" stroke-linecap="butt">
      <text x="355.7673" xml:space="preserve" y="332.1225" clip-path="url(#clipPath2)" stroke="none">86.50.169.147</text>
      <path fill="none" d="M319.7673 327.5874 L334.7673 312.5874 L349.7673 327.5874 L334.7673 342.5874 Z" clip-path="url(#clipPath2)" fill-rule="evenodd"/>
    </g>
    <g fill="rgb(255,255,153)" text-rendering="geometricPrecision" shape-rendering="geometricPrecision" transform="matrix(1,0,0,1,-83,255)" stroke="rgb(255,255,153)">
      <path d="M618.8369 35.9604 L762.8369 35.9604 L762.8369 50.9604 L777.8369 50.9604 L777.8369 88.9604 L618.8369 88.9604 Z" stroke="none" clip-path="url(#clipPath2)"/>
      <path fill="white" d="M762.8369 35.9604 L762.8369 50.9604 L777.8369 50.9604 Z" clip-path="url(#clipPath2)" fill-rule="evenodd" stroke="none"/>
    </g>
    <g text-rendering="geometricPrecision" stroke-miterlimit="1.45" shape-rendering="geometricPrecision" transform="matrix(1,0,0,1,-83,255)" stroke-linecap="butt">
      <path fill="none" d="M618.8369 35.9604 L762.8369 35.9604 L762.8369 50.9604 L777.8369 50.9604 L777.8369 88.9604 L618.8369 88.9604 Z" clip-path="url(#clipPath2)"/>
      <path fill="none" d="M762.8369 35.9604 L762.8369 50.9604 L777.8369 50.9604 Z" clip-path="url(#clipPath2)" fill-rule="evenodd"/>
      <text x="678.8373" font-size="10px" y="60.351" clip-path="url(#clipPath2)" font-family="sans-serif" stroke="none" xml:space="preserve">Kaikille koneille</text>
      <text x="641.6352" font-size="10px" y="72.1283" clip-path="url(#clipPath2)" font-family="sans-serif" stroke="none" xml:space="preserve">SSH-yhteys internetistä</text>
      <path fill="none" d="M373.6458 21.7681 L448.0508 88.8303" clip-path="url(#clipPath2)"/>
      <path d="M453.9933 94.1864 L448.4271 82.4383 L447.308 88.1608 L441.7321 89.8664 Z" clip-path="url(#clipPath2)" stroke="none"/>
      <text x="435.7144" xml:space="preserve" y="55.442" clip-path="url(#clipPath2)" font-family="sans-serif" stroke="none">HTTP (8081, 6071)</text>
      <text x="480.105" xml:space="preserve" y="69.5748" clip-path="url(#clipPath2)" font-family="sans-serif" stroke="none">SSH</text>
      <path fill="none" d="M283.0166 21.7768 L214.7025 88.5981" clip-path="url(#clipPath2)"/>
      <path d="M208.9835 94.1921 L221.0582 89.3754 L215.4174 87.8988 L214.0657 82.2267 Z" clip-path="url(#clipPath2)" stroke="none"/>
      <text x="103.8626" xml:space="preserve" y="40.6775" clip-path="url(#clipPath2)" font-family="sans-serif" stroke="none">HTTP (8081, 6071)</text>
      <text x="148.2533" xml:space="preserve" y="54.8103" clip-path="url(#clipPath2)" font-family="sans-serif" stroke="none">SSH</text>
      <path fill="none" d="M326.4833 -181.6497 L326.4833 -71.2402" clip-path="url(#clipPath2)"/>
      <path d="M326.4833 -63.2402 L331.4833 -75.2402 L326.4833 -72.2402 L321.4833 -75.2402 Z" clip-path="url(#clipPath2)" stroke="none"/>
      <text x="330.4833" xml:space="preserve" y="-157.9401" clip-path="url(#clipPath2)" font-family="sans-serif" stroke="none">HTTPS (443)</text>
      <text x="337.5087" xml:space="preserve" y="-143.8073" clip-path="url(#clipPath2)" font-family="sans-serif" stroke="none">HTTP (80)</text>
      <text x="355.3388" xml:space="preserve" y="-129.6745" clip-path="url(#clipPath2)" font-family="sans-serif" stroke="none">SSH</text>
      <path fill="none" stroke-dasharray="6,2" d="M433.8637 -196.6667 L341.5051 -196.6667" clip-path="url(#clipPath2)"/>
      <path fill="none" d="M334.7673 342.5594 L334.7673 372.5874" clip-path="url(#clipPath2)"/>
      <path fill="none" d="M327.4882 319.8094 L214.4608 199.0354" clip-path="url(#clipPath2)"/>
      <path d="M208.9943 193.1943 L213.5433 205.3725 L215.1441 199.7655 L220.8447 198.5394 Z" clip-path="url(#clipPath2)" stroke="none"/>
      <text x="139.5072" xml:space="preserve" y="269.3557" clip-path="url(#clipPath2)" font-family="sans-serif" stroke="none">HTTP (8081, 6071)</text>
      <text x="183.8979" xml:space="preserve" y="283.4886" clip-path="url(#clipPath2)" font-family="sans-serif" stroke="none">SSH</text>
      <path fill="none" d="M341.8405 319.6123 L448.6576 199.1756" clip-path="url(#clipPath2)"/>
      <path d="M453.9659 193.1904 L442.2628 198.8505 L447.9941 199.9237 L449.7442 205.4858 Z" clip-path="url(#clipPath2)" stroke="none"/>
      <text x="419.8568" xml:space="preserve" y="266.3557" clip-path="url(#clipPath2)" font-family="sans-serif" stroke="none">HTTP (8081, 6071)</text>
      <text x="464.2474" xml:space="preserve" y="280.4886" clip-path="url(#clipPath2)" font-family="sans-serif" stroke="none">SSH</text>
      <path fill="none" stroke-dasharray="6,2" d="M618.8504 62.4604 L570.8369 62.4604" clip-path="url(#clipPath2)"/>
    </g>
  </g>
</svg>
