<?xml version="1.0" encoding="UTF-8"?><svg xmlns="http://www.w3.org/2000/svg" xmlns:xlink="http://www.w3.org/1999/xlink" fill-opacity="1" color-rendering="auto" color-interpolation="auto" text-rendering="auto" stroke="black" stroke-linecap="square" width="718" stroke-miterlimit="10" shape-rendering="auto" stroke-opacity="1" fill="black" stroke-dasharray="none" font-weight="normal" stroke-width="1" height="830" font-family="'Dialog'" font-style="normal" stroke-linejoin="miter" font-size="12px" stroke-dashoffset="0" image-rendering="auto">
  <!--Generated by ySVG 2.5-->
  <defs id="genericDefs"/>
  <g>
    <defs id="defs1">
      <linearGradient x1="367.0232" gradientUnits="userSpaceOnUse" x2="403.3531" y1="94.1866" y2="147.9373" id="linearGradient1" spreadMethod="pad">
        <stop stop-opacity="0.8627" stop-color="rgb(255,255,255)" offset="0%"/>
        <stop stop-opacity="0.1255" stop-color="rgb(255,255,255)" offset="100%"/>
      </linearGradient>
      <linearGradient x1="124.9833" gradientUnits="userSpaceOnUse" x2="161.8222" y1="94.1866" y2="146.6626" id="linearGradient2" spreadMethod="pad">
        <stop stop-opacity="0.8627" stop-color="rgb(255,255,255)" offset="0%"/>
        <stop stop-opacity="0.1255" stop-color="rgb(255,255,255)" offset="100%"/>
      </linearGradient>
      <linearGradient x1="248.7746" gradientUnits="userSpaceOnUse" x2="280.6418" y1="283.5874" y2="327.7745" id="linearGradient3" spreadMethod="pad">
        <stop stop-opacity="0.8627" stop-color="rgb(255,255,255)" offset="0%"/>
        <stop stop-opacity="0.1255" stop-color="rgb(255,255,255)" offset="100%"/>
      </linearGradient>
      <linearGradient x1="246.9833" gradientUnits="userSpaceOnUse" x2="277.1736" y1="-63.24" y2="-15.104" id="linearGradient4" spreadMethod="pad">
        <stop stop-opacity="0.8627" stop-color="rgb(255,255,255)" offset="0%"/>
        <stop stop-opacity="0.1255" stop-color="rgb(255,255,255)" offset="100%"/>
      </linearGradient>
      <clipPath clipPathUnits="userSpaceOnUse" id="clipPath1">
        <path d="M0 0 L718 0 L718 830 L0 830 L0 0 Z"/>
      </clipPath>
      <clipPath clipPathUnits="userSpaceOnUse" id="clipPath2">
        <path d="M75 -255 L793 -255 L793 575 L75 575 L75 -255 Z"/>
      </clipPath>
    </defs>
    <g fill="white" text-rendering="geometricPrecision" shape-rendering="geometricPrecision" transform="translate(-75,255)" stroke="white">
      <rect x="75" width="718" height="830" y="-255" clip-path="url(#clipPath2)" stroke="none"/>
    </g>
    <g text-rendering="geometricPrecision" stroke-miterlimit="1.45" shape-rendering="geometricPrecision" font-family="sans-serif" transform="matrix(1,0,0,1,-75,255)" stroke-linecap="butt">
      <text x="103.2399" xml:space="preserve" y="-95.128" clip-path="url(#clipPath2)" stroke="none">Valtionavustus CSC</text>
      <text x="96.4138" xml:space="preserve" y="-81.1592" clip-path="url(#clipPath2)" stroke="none">VMWare environment</text>
      <rect x="90.4138" y="-112.2667" clip-path="url(#clipPath2)" fill="none" width="472.1392" stroke-dasharray="6,2" height="523.254"/>
    </g>
    <g text-rendering="geometricPrecision" stroke-miterlimit="1.45" shape-rendering="geometricPrecision" transform="matrix(1,0,0,1,-75,255)" stroke-linecap="butt">
      <rect x="367.0232" y="94.1866" clip-path="url(#clipPath2)" fill="none" width="173.9402" rx="1.5" ry="1.5" height="99"/>
    </g>
    <g fill="url(#linearGradient1)" text-rendering="geometricPrecision" shape-rendering="geometricPrecision" transform="matrix(1,0,0,1,-75,255)" stroke="url(#linearGradient1)">
      <path d="M367.7732 97.1866 Q367.7732 94.9366 370.0232 94.9366 L477.0843 94.9366 Q479.3343 94.9366 479.3343 97.1866 Q479.3343 99.4366 425.8038 136.0366 Q372.2732 172.6366 370.0232 172.6366 Q367.7732 172.6366 367.7732 170.3866 Z" stroke="none" clip-path="url(#clipPath2)"/>
    </g>
    <g text-rendering="geometricPrecision" stroke-miterlimit="1.45" shape-rendering="geometricPrecision" font-family="sans-serif" transform="matrix(1,0,0,1,-75,255)" stroke-linecap="butt">
      <text x="378.9875" xml:space="preserve" y="111.3253" clip-path="url(#clipPath2)" stroke="none">oph-va-app-prod01.csc.fi</text>
      <text x="431.4259" xml:space="preserve" y="125.294" clip-path="url(#clipPath2)" stroke="none">CentOS</text>
      <text x="401.4787" xml:space="preserve" y="139.2628" clip-path="url(#clipPath2)" stroke="none">2 core, 4GB RAM,</text>
      <text x="419.7921" xml:space="preserve" y="153.2315" clip-path="url(#clipPath2)" stroke="none">200GB disk</text>
      <text x="428.672" xml:space="preserve" y="167.2003" clip-path="url(#clipPath2)" stroke="none">HTTP Kit</text>
      <text x="407.9357" xml:space="preserve" y="181.169" clip-path="url(#clipPath2)" stroke="none">PostgreSQL 9.4</text>
    </g>
    <g text-rendering="geometricPrecision" stroke-miterlimit="1.45" shape-rendering="geometricPrecision" transform="matrix(1,0,0,1,-75,255)" stroke-linecap="butt">
      <rect x="124.9833" y="94.1866" clip-path="url(#clipPath2)" fill="none" width="167.9641" rx="1.5" ry="1.5" height="99"/>
    </g>
    <g fill="url(#linearGradient2)" text-rendering="geometricPrecision" shape-rendering="geometricPrecision" transform="matrix(1,0,0,1,-75,255)" stroke="url(#linearGradient2)">
      <path d="M125.7333 97.1866 Q125.7333 94.9366 127.9833 94.9366 L231.16 94.9366 Q233.41 94.9366 233.41 97.1866 Q233.41 99.4366 181.8217 136.0366 Q130.2333 172.6366 127.9833 172.6366 Q125.7333 172.6366 125.7333 170.3866 Z" stroke="none" clip-path="url(#clipPath2)"/>
    </g>
    <g text-rendering="geometricPrecision" stroke-miterlimit="1.45" shape-rendering="geometricPrecision" font-family="sans-serif" transform="matrix(1,0,0,1,-75,255)" stroke-linecap="butt">
      <text x="136.192" xml:space="preserve" y="111.3253" clip-path="url(#clipPath2)" stroke="none">oph-va-app-test01.csc.fi</text>
      <text x="186.398" xml:space="preserve" y="125.294" clip-path="url(#clipPath2)" stroke="none">CentOS</text>
      <text x="156.4508" xml:space="preserve" y="139.2628" clip-path="url(#clipPath2)" stroke="none">2 core, 4GB RAM,</text>
      <text x="172.857" xml:space="preserve" y="153.2315" clip-path="url(#clipPath2)" stroke="none">200 GB disk</text>
      <text x="183.6441" xml:space="preserve" y="167.2003" clip-path="url(#clipPath2)" stroke="none">HTTP Kit</text>
      <text x="162.9078" xml:space="preserve" y="181.169" clip-path="url(#clipPath2)" stroke="none">PostgreSQL 9.4</text>
    </g>
    <g text-rendering="geometricPrecision" stroke-miterlimit="1.45" shape-rendering="geometricPrecision" transform="matrix(1,0,0,1,-75,255)" stroke-linecap="butt">
      <rect x="248.7746" y="283.5874" clip-path="url(#clipPath2)" fill="none" width="140" rx="1.5" ry="1.5" height="85"/>
    </g>
    <g fill="url(#linearGradient3)" text-rendering="geometricPrecision" shape-rendering="geometricPrecision" transform="matrix(1,0,0,1,-75,255)" stroke="url(#linearGradient3)">
      <path d="M249.5246 286.5874 Q249.5246 284.3374 251.7746 284.3374 L336.7746 284.3374 Q339.0246 284.3374 339.0246 286.5874 Q339.0246 288.8374 296.5246 319.8374 Q254.0246 350.8374 251.7746 350.8374 Q249.5246 350.8374 249.5246 348.5874 Z" stroke="none" clip-path="url(#clipPath2)"/>
    </g>
    <g text-rendering="geometricPrecision" stroke-miterlimit="1.45" shape-rendering="geometricPrecision" font-family="sans-serif" transform="matrix(1,0,0,1,-75,255)" stroke-linecap="butt">
      <text x="256.2287" xml:space="preserve" y="300.726" clip-path="url(#clipPath2)" stroke="none">oph-va-build01.csc.fi</text>
      <text x="266.2599" xml:space="preserve" y="314.6948" clip-path="url(#clipPath2)" stroke="none">2 core, 4GB RAM,</text>
      <text x="252.5813" xml:space="preserve" y="328.6635" clip-path="url(#clipPath2)" stroke="none">200GB persistent disk</text>
      <text x="302.1428" xml:space="preserve" y="342.6323" clip-path="url(#clipPath2)" stroke="none">nginx</text>
      <text x="297.4406" xml:space="preserve" y="356.601" clip-path="url(#clipPath2)" stroke="none">Jenkins</text>
    </g>
    <g text-rendering="geometricPrecision" stroke-miterlimit="1.45" shape-rendering="geometricPrecision" transform="matrix(1,0,0,1,-75,255)" stroke-linecap="butt">
      <rect x="246.9833" y="-63.24" clip-path="url(#clipPath2)" fill="none" width="159" rx="1.5" ry="1.5" height="85"/>
    </g>
    <g fill="url(#linearGradient4)" text-rendering="geometricPrecision" shape-rendering="geometricPrecision" transform="matrix(1,0,0,1,-75,255)" stroke="url(#linearGradient4)">
      <path d="M247.7333 -60.24 Q247.7333 -62.49 249.9833 -62.49 L347.3333 -62.49 Q349.5833 -62.49 349.5833 -60.24 Q349.5833 -57.99 300.9083 -26.99 Q252.2333 4.01 249.9833 4.01 Q247.7333 4.01 247.7333 1.76 Z" stroke="none" clip-path="url(#clipPath2)"/>
    </g>
    <g text-rendering="geometricPrecision" stroke-miterlimit="1.45" shape-rendering="geometricPrecision" font-family="sans-serif" transform="matrix(1,0,0,1,-75,255)" stroke-linecap="butt">
      <text x="257.2958" xml:space="preserve" y="-46.1014" clip-path="url(#clipPath2)" stroke="none">oph-va-lb-prod01.csc.fi</text>
      <text x="303.916" xml:space="preserve" y="-32.1326" clip-path="url(#clipPath2)" stroke="none">CentOS</text>
      <text x="273.9687" xml:space="preserve" y="-18.1639" clip-path="url(#clipPath2)" stroke="none">2 core, 4GB RAM,</text>
      <text x="296.0995" xml:space="preserve" y="-4.1951" clip-path="url(#clipPath2)" stroke="none">50GB disk</text>
      <text x="301.0097" xml:space="preserve" y="9.7736" clip-path="url(#clipPath2)" stroke="none">HAProxy</text>
    </g>
    <g fill="white" text-rendering="geometricPrecision" shape-rendering="geometricPrecision" transform="matrix(1,0,0,1,-75,255)" stroke="white">
      <path d="M311.4833 -196.6667 L326.4833 -211.6667 L341.4833 -196.6667 L326.4833 -181.6667 Z" fill-rule="evenodd" clip-path="url(#clipPath2)" stroke="none"/>
    </g>
    <g text-rendering="geometricPrecision" stroke-miterlimit="1.45" shape-rendering="geometricPrecision" transform="matrix(1,0,0,1,-75,255)" stroke-linecap="butt">
      <path fill="none" d="M311.4833 -196.6667 L326.4833 -211.6667 L341.4833 -196.6667 L326.4833 -181.6667 Z" fill-rule="evenodd" clip-path="url(#clipPath2)"/>
    </g>
    <g fill="rgb(255,255,153)" text-rendering="geometricPrecision" shape-rendering="geometricPrecision" transform="matrix(1,0,0,1,-75,255)" stroke="rgb(255,255,153)">
      <path d="M433.8369 -239.1667 L645.8369 -239.1667 L645.8369 -224.1667 L660.8369 -224.1667 L660.8369 -154.1667 L433.8369 -154.1667 Z" stroke="none" clip-path="url(#clipPath2)"/>
      <path fill="white" d="M645.8369 -239.1667 L645.8369 -224.1667 L660.8369 -224.1667 Z" clip-path="url(#clipPath2)" fill-rule="evenodd" stroke="none"/>
    </g>
    <g text-rendering="geometricPrecision" stroke-miterlimit="1.45" shape-rendering="geometricPrecision" transform="matrix(1,0,0,1,-75,255)" stroke-linecap="butt">
      <path fill="none" d="M433.8369 -239.1667 L645.8369 -239.1667 L645.8369 -224.1667 L660.8369 -224.1667 L660.8369 -154.1667 L433.8369 -154.1667 Z" clip-path="url(#clipPath2)"/>
      <path fill="none" d="M645.8369 -239.1667 L645.8369 -224.1667 L660.8369 -224.1667 Z" clip-path="url(#clipPath2)" fill-rule="evenodd"/>
      <text x="522.3076" font-size="10px" y="-216.486" clip-path="url(#clipPath2)" font-family="sans-serif" stroke="none" xml:space="preserve">valtionavustukset.oph.fi</text>
      <text x="535.9404" font-size="10px" y="-204.8454" clip-path="url(#clipPath2)" font-family="sans-serif" stroke="none" xml:space="preserve">statsunderstod.oph.fi</text>
      <text x="477.1611" font-size="10px" y="-193.2048" clip-path="url(#clipPath2)" font-family="sans-serif" stroke="none" xml:space="preserve">virkailija.valtionavustukset.oph.fi</text>
      <text x="497.1465" font-size="10px" y="-181.5641" clip-path="url(#clipPath2)" font-family="sans-serif" stroke="none" xml:space="preserve">testi.valtionavustukset.oph.fi</text>
      <text x="452" font-size="10px" y="-169.9235" clip-path="url(#clipPath2)" font-family="sans-serif" stroke="none" xml:space="preserve">testi.virkailija.valtionavustukset.oph.fi</text>
    </g>
    <g fill="rgb(255,255,153)" text-rendering="geometricPrecision" shape-rendering="geometricPrecision" transform="matrix(1,0,0,1,-75,255)" stroke="rgb(255,255,153)">
      <path d="M618.8369 35.9604 L762.8369 35.9604 L762.8369 50.9604 L777.8369 50.9604 L777.8369 88.9604 L618.8369 88.9604 Z" stroke="none" clip-path="url(#clipPath2)"/>
      <path fill="white" d="M762.8369 35.9604 L762.8369 50.9604 L777.8369 50.9604 Z" clip-path="url(#clipPath2)" fill-rule="evenodd" stroke="none"/>
    </g>
    <g text-rendering="geometricPrecision" stroke-miterlimit="1.45" shape-rendering="geometricPrecision" transform="matrix(1,0,0,1,-75,255)" stroke-linecap="butt">
      <path fill="none" d="M618.8369 35.9604 L762.8369 35.9604 L762.8369 50.9604 L777.8369 50.9604 L777.8369 88.9604 L618.8369 88.9604 Z" clip-path="url(#clipPath2)"/>
      <path fill="none" d="M762.8369 35.9604 L762.8369 50.9604 L777.8369 50.9604 Z" clip-path="url(#clipPath2)" fill-rule="evenodd"/>
      <text x="679.6332" font-size="10px" y="60.102" clip-path="url(#clipPath2)" font-family="sans-serif" stroke="none" xml:space="preserve">Kaikille koneille</text>
      <text x="639.2328" font-size="10px" y="71.7426" clip-path="url(#clipPath2)" font-family="sans-serif" stroke="none" xml:space="preserve">SSH-yhteys internetistä</text>
    </g>
    <g fill="rgb(255,255,153)" text-rendering="geometricPrecision" shape-rendering="geometricPrecision" transform="matrix(1,0,0,1,-75,255)" stroke="rgb(255,255,153)">
      <path d="M206.8562 518.8874 L415.6931 518.8874 L415.6931 533.8874 L430.6931 533.8874 L430.6931 559.8874 L206.8562 559.8874 Z" stroke="none" clip-path="url(#clipPath2)"/>
      <path fill="white" d="M415.6931 518.8874 L415.6931 533.8874 L430.6931 533.8874 Z" clip-path="url(#clipPath2)" fill-rule="evenodd" stroke="none"/>
    </g>
    <g text-rendering="geometricPrecision" stroke-miterlimit="1.45" shape-rendering="geometricPrecision" transform="matrix(1,0,0,1,-75,255)" stroke-linecap="butt">
      <path fill="none" d="M206.8562 518.8874 L415.6931 518.8874 L415.6931 533.8874 L430.6931 533.8874 L430.6931 559.8874 L206.8562 559.8874 Z" clip-path="url(#clipPath2)"/>
      <path fill="none" d="M415.6931 518.8874 L415.6931 533.8874 L430.6931 533.8874 Z" clip-path="url(#clipPath2)" fill-rule="evenodd"/>
      <text x="247.7932" font-size="10px" y="542.8493" clip-path="url(#clipPath2)" font-family="sans-serif" stroke="none" xml:space="preserve">dev.valtionavustukset.oph.fi</text>
      <path fill="none" d="M288.7756 283.5633 L214.2796 199.1827" clip-path="url(#clipPath2)"/>
      <path d="M208.9849 193.1855 L213.1787 205.4904 L214.9414 199.9323 L220.6752 198.8721 Z" clip-path="url(#clipPath2)" stroke="none"/>
      <text x="118.1378" xml:space="preserve" y="248.278" clip-path="url(#clipPath2)" font-family="sans-serif" stroke="none">HTTP (8081, 6071)</text>
      <text x="162.4112" xml:space="preserve" y="262.2467" clip-path="url(#clipPath2)" font-family="sans-serif" stroke="none">SSH</text>
      <path fill="none" d="M338.2166 283.5795 L447.66 198.1058" clip-path="url(#clipPath2)"/>
      <path d="M453.965 193.1817 L441.43 196.6272 L446.8719 198.7213 L447.5851 204.5085 Z" clip-path="url(#clipPath2)" stroke="none"/>
      <text x="420.307" xml:space="preserve" y="256.3994" clip-path="url(#clipPath2)" font-family="sans-serif" stroke="none">HTTP (8081, 6071)</text>
      <text x="464.5805" xml:space="preserve" y="270.3682" clip-path="url(#clipPath2)" font-family="sans-serif" stroke="none">SSH</text>
      <path fill="none" d="M373.6458 21.7681 L448.0508 88.8303" clip-path="url(#clipPath2)"/>
      <path d="M453.9933 94.1864 L448.4271 82.4383 L447.308 88.1608 L441.7321 89.8664 Z" clip-path="url(#clipPath2)" stroke="none"/>
      <text x="435.5324" xml:space="preserve" y="55.1432" clip-path="url(#clipPath2)" font-family="sans-serif" stroke="none">HTTP (8081, 6071)</text>
      <text x="479.8058" xml:space="preserve" y="69.112" clip-path="url(#clipPath2)" font-family="sans-serif" stroke="none">SSH</text>
      <path fill="none" d="M283.0166 21.7768 L214.7025 88.5981" clip-path="url(#clipPath2)"/>
      <path d="M208.9835 94.1921 L221.0582 89.3754 L215.4174 87.8988 L214.0657 82.2267 Z" clip-path="url(#clipPath2)" stroke="none"/>
      <text x="102.2477" xml:space="preserve" y="39.8929" clip-path="url(#clipPath2)" font-family="sans-serif" stroke="none">HTTP (8081, 6071)</text>
      <text x="146.5212" xml:space="preserve" y="53.8616" clip-path="url(#clipPath2)" font-family="sans-serif" stroke="none">SSH</text>
      <path fill="none" d="M326.4833 -181.6497 L326.4833 -71.2402" clip-path="url(#clipPath2)"/>
      <path d="M326.4833 -63.2402 L331.4833 -75.2402 L326.4833 -72.2402 L321.4833 -75.2402 Z" clip-path="url(#clipPath2)" stroke="none"/>
      <text x="330.4833" xml:space="preserve" y="-158.403" clip-path="url(#clipPath2)" font-family="sans-serif" stroke="none">HTTPS (443)</text>
      <text x="338.1093" xml:space="preserve" y="-144.4342" clip-path="url(#clipPath2)" font-family="sans-serif" stroke="none">HTTP (80)</text>
      <text x="355.664" xml:space="preserve" y="-130.4655" clip-path="url(#clipPath2)" font-family="sans-serif" stroke="none">SSH</text>
      <path fill="none" stroke-dasharray="6,2" d="M433.8637 -196.6667 L341.5051 -196.6667" clip-path="url(#clipPath2)"/>
      <path fill="none" stroke-dasharray="6,2" d="M618.855 81.0348 L562.5529 94.1923" clip-path="url(#clipPath2)"/>
      <path fill="none" d="M318.5695 518.9141 L317.1442 376.596" clip-path="url(#clipPath2)"/>
      <path d="M317.064 368.5964 L312.1845 380.6459 L317.1542 377.596 L322.184 380.5457 Z" clip-path="url(#clipPath2)" stroke="none"/>
      <text x="236.9676" xml:space="preserve" y="433.9229" clip-path="url(#clipPath2)" font-family="sans-serif" stroke="none">HTTPS (443)</text>
      <text x="252.2195" xml:space="preserve" y="447.8917" clip-path="url(#clipPath2)" font-family="sans-serif" stroke="none">HTTP (80)</text>
      <text x="287.3289" xml:space="preserve" y="461.8604" clip-path="url(#clipPath2)" font-family="sans-serif" stroke="none">SSH</text>
    </g>
  </g>
</svg>
