<?xml version="1.0" encoding="UTF-8"?><svg xmlns="http://www.w3.org/2000/svg" xmlns:xlink="http://www.w3.org/1999/xlink" fill-opacity="1" color-rendering="auto" color-interpolation="auto" text-rendering="auto" stroke="black" stroke-linecap="square" width="684" stroke-miterlimit="10" shape-rendering="auto" stroke-opacity="1" fill="black" stroke-dasharray="none" font-weight="normal" stroke-width="1" height="620" font-family="'Dialog'" font-style="normal" stroke-linejoin="miter" font-size="12px" stroke-dashoffset="0" image-rendering="auto">
  <!--Generated by ySVG 2.5-->
  <defs id="genericDefs"/>
  <g>
    <defs id="defs1">
      <linearGradient x1="548.0232" gradientUnits="userSpaceOnUse" x2="584.3531" y1="73.1866" y2="126.9373" id="linearGradient1" spreadMethod="pad">
        <stop stop-opacity="0.8627" stop-color="rgb(255,255,255)" offset="0%"/>
        <stop stop-opacity="0.1255" stop-color="rgb(255,255,255)" offset="100%"/>
      </linearGradient>
      <linearGradient x1="124.9833" gradientUnits="userSpaceOnUse" x2="161.8222" y1="73.1866" y2="125.6626" id="linearGradient2" spreadMethod="pad">
        <stop stop-opacity="0.8627" stop-color="rgb(255,255,255)" offset="0%"/>
        <stop stop-opacity="0.1255" stop-color="rgb(255,255,255)" offset="100%"/>
      </linearGradient>
      <linearGradient x1="346.9833" gradientUnits="userSpaceOnUse" x2="378.8505" y1="243.5874" y2="287.7745" id="linearGradient3" spreadMethod="pad">
        <stop stop-opacity="0.8627" stop-color="rgb(255,255,255)" offset="0%"/>
        <stop stop-opacity="0.1255" stop-color="rgb(255,255,255)" offset="100%"/>
      </linearGradient>
      <linearGradient x1="337.4833" gradientUnits="userSpaceOnUse" x2="367.6736" y1="-63.24" y2="-15.104" id="linearGradient4" spreadMethod="pad">
        <stop stop-opacity="0.8627" stop-color="rgb(255,255,255)" offset="0%"/>
        <stop stop-opacity="0.1255" stop-color="rgb(255,255,255)" offset="100%"/>
      </linearGradient>
      <clipPath clipPathUnits="userSpaceOnUse" id="clipPath1">
        <path d="M0 0 L684 0 L684 620 L0 620 L0 0 Z"/>
      </clipPath>
      <clipPath clipPathUnits="userSpaceOnUse" id="clipPath2">
        <path d="M80 -250 L764 -250 L764 370 L80 370 L80 -250 Z"/>
      </clipPath>
    </defs>
    <g fill="white" text-rendering="geometricPrecision" shape-rendering="geometricPrecision" transform="translate(-80,250)" stroke="white">
      <rect x="80" width="684" height="620" y="-250" clip-path="url(#clipPath2)" stroke="none"/>
    </g>
    <g text-rendering="geometricPrecision" stroke-miterlimit="1.45" shape-rendering="geometricPrecision" font-family="sans-serif" transform="matrix(1,0,0,1,-80,250)" stroke-linecap="butt">
      <text x="108.663" xml:space="preserve" y="-95.128" clip-path="url(#clipPath2)" stroke="none">Valtionavustus CSC</text>
      <text x="101.8369" xml:space="preserve" y="-81.1592" clip-path="url(#clipPath2)" stroke="none">VMWare environment</text>
      <rect x="95.8369" y="-112.2667" clip-path="url(#clipPath2)" fill="none" width="653.1392" stroke-dasharray="6,2" height="467.254"/>
    </g>
    <g text-rendering="geometricPrecision" stroke-miterlimit="1.45" shape-rendering="geometricPrecision" transform="matrix(1,0,0,1,-80,250)" stroke-linecap="butt">
      <rect x="548.0232" y="73.1866" clip-path="url(#clipPath2)" fill="none" width="173.9402" rx="1.5" ry="1.5" height="99"/>
    </g>
    <g fill="url(#linearGradient1)" text-rendering="geometricPrecision" shape-rendering="geometricPrecision" transform="matrix(1,0,0,1,-80,250)" stroke="url(#linearGradient1)">
      <path d="M548.7732 76.1866 Q548.7732 73.9366 551.0232 73.9366 L658.0844 73.9366 Q660.3344 73.9366 660.3344 76.1866 Q660.3344 78.4366 606.8038 115.0366 Q553.2732 151.6366 551.0232 151.6366 Q548.7732 151.6366 548.7732 149.3866 Z" stroke="none" clip-path="url(#clipPath2)"/>
    </g>
    <g text-rendering="geometricPrecision" stroke-miterlimit="1.45" shape-rendering="geometricPrecision" font-family="sans-serif" transform="matrix(1,0,0,1,-80,250)" stroke-linecap="butt">
      <text x="559.9874" xml:space="preserve" y="90.3253" clip-path="url(#clipPath2)" stroke="none">oph-va-app-prod01.csc.fi</text>
      <text x="612.4259" xml:space="preserve" y="104.294" clip-path="url(#clipPath2)" stroke="none">CentOS</text>
      <text x="582.4786" xml:space="preserve" y="118.2628" clip-path="url(#clipPath2)" stroke="none">2 core, 4GB RAM,</text>
      <text x="600.7921" xml:space="preserve" y="132.2315" clip-path="url(#clipPath2)" stroke="none">200GB disk</text>
      <text x="609.672" xml:space="preserve" y="146.2003" clip-path="url(#clipPath2)" stroke="none">HTTP Kit</text>
      <text x="588.9357" xml:space="preserve" y="160.169" clip-path="url(#clipPath2)" stroke="none">PostgreSQL 9.4</text>
    </g>
    <g text-rendering="geometricPrecision" stroke-miterlimit="1.45" shape-rendering="geometricPrecision" transform="matrix(1,0,0,1,-80,250)" stroke-linecap="butt">
      <rect x="124.9833" y="73.1866" clip-path="url(#clipPath2)" fill="none" width="167.9641" rx="1.5" ry="1.5" height="99"/>
    </g>
    <g fill="url(#linearGradient2)" text-rendering="geometricPrecision" shape-rendering="geometricPrecision" transform="matrix(1,0,0,1,-80,250)" stroke="url(#linearGradient2)">
      <path d="M125.7333 76.1866 Q125.7333 73.9366 127.9833 73.9366 L231.16 73.9366 Q233.41 73.9366 233.41 76.1866 Q233.41 78.4366 181.8217 115.0366 Q130.2333 151.6366 127.9833 151.6366 Q125.7333 151.6366 125.7333 149.3866 Z" stroke="none" clip-path="url(#clipPath2)"/>
    </g>
    <g text-rendering="geometricPrecision" stroke-miterlimit="1.45" shape-rendering="geometricPrecision" font-family="sans-serif" transform="matrix(1,0,0,1,-80,250)" stroke-linecap="butt">
      <text x="136.192" xml:space="preserve" y="90.3253" clip-path="url(#clipPath2)" stroke="none">oph-va-app-test01.csc.fi</text>
      <text x="186.398" xml:space="preserve" y="104.294" clip-path="url(#clipPath2)" stroke="none">CentOS</text>
      <text x="156.4508" xml:space="preserve" y="118.2628" clip-path="url(#clipPath2)" stroke="none">2 core, 4GB RAM,</text>
      <text x="172.857" xml:space="preserve" y="132.2315" clip-path="url(#clipPath2)" stroke="none">200 GB disk</text>
      <text x="183.6441" xml:space="preserve" y="146.2003" clip-path="url(#clipPath2)" stroke="none">HTTP Kit</text>
      <text x="162.9078" xml:space="preserve" y="160.169" clip-path="url(#clipPath2)" stroke="none">PostgreSQL 9.4</text>
    </g>
    <g text-rendering="geometricPrecision" stroke-miterlimit="1.45" shape-rendering="geometricPrecision" transform="matrix(1,0,0,1,-80,250)" stroke-linecap="butt">
      <rect x="346.9833" y="243.5874" clip-path="url(#clipPath2)" fill="none" width="140" rx="1.5" ry="1.5" height="85"/>
    </g>
    <g fill="url(#linearGradient3)" text-rendering="geometricPrecision" shape-rendering="geometricPrecision" transform="matrix(1,0,0,1,-80,250)" stroke="url(#linearGradient3)">
      <path d="M347.7333 246.5874 Q347.7333 244.3374 349.9833 244.3374 L434.9833 244.3374 Q437.2333 244.3374 437.2333 246.5874 Q437.2333 248.8374 394.7333 279.8374 Q352.2333 310.8374 349.9833 310.8374 Q347.7333 310.8374 347.7333 308.5874 Z" stroke="none" clip-path="url(#clipPath2)"/>
    </g>
    <g text-rendering="geometricPrecision" stroke-miterlimit="1.45" shape-rendering="geometricPrecision" font-family="sans-serif" transform="matrix(1,0,0,1,-80,250)" stroke-linecap="butt">
      <text x="350.538" xml:space="preserve" y="260.726" clip-path="url(#clipPath2)" stroke="none">oph-va-ci-test01.csc.fi</text>
      <text x="364.4687" xml:space="preserve" y="274.6948" clip-path="url(#clipPath2)" stroke="none">2 core, 4GB RAM,</text>
      <text x="382.7822" xml:space="preserve" y="288.6635" clip-path="url(#clipPath2)" stroke="none">200GB disk</text>
      <text x="400.3515" xml:space="preserve" y="302.6323" clip-path="url(#clipPath2)" stroke="none">nginx</text>
      <text x="395.6494" xml:space="preserve" y="316.601" clip-path="url(#clipPath2)" stroke="none">Jenkins</text>
    </g>
    <g text-rendering="geometricPrecision" stroke-miterlimit="1.45" shape-rendering="geometricPrecision" transform="matrix(1,0,0,1,-80,250)" stroke-linecap="butt">
      <rect x="337.4833" y="-63.24" clip-path="url(#clipPath2)" fill="none" width="159" rx="1.5" ry="1.5" height="85"/>
    </g>
    <g fill="url(#linearGradient4)" text-rendering="geometricPrecision" shape-rendering="geometricPrecision" transform="matrix(1,0,0,1,-80,250)" stroke="url(#linearGradient4)">
      <path d="M338.2333 -60.24 Q338.2333 -62.49 340.4833 -62.49 L437.8333 -62.49 Q440.0833 -62.49 440.0833 -60.24 Q440.0833 -57.99 391.4083 -26.99 Q342.7333 4.01 340.4833 4.01 Q338.2333 4.01 338.2333 1.76 Z" stroke="none" clip-path="url(#clipPath2)"/>
    </g>
    <g text-rendering="geometricPrecision" stroke-miterlimit="1.45" shape-rendering="geometricPrecision" font-family="sans-serif" transform="matrix(1,0,0,1,-80,250)" stroke-linecap="butt">
      <text x="347.7958" xml:space="preserve" y="-46.1014" clip-path="url(#clipPath2)" stroke="none">oph-va-lb-prod01.csc.fi</text>
      <text x="394.416" xml:space="preserve" y="-32.1326" clip-path="url(#clipPath2)" stroke="none">CentOS</text>
      <text x="364.4687" xml:space="preserve" y="-18.1639" clip-path="url(#clipPath2)" stroke="none">2 core, 4GB RAM,</text>
      <text x="386.5995" xml:space="preserve" y="-4.1951" clip-path="url(#clipPath2)" stroke="none">50GB disk</text>
      <text x="391.5097" xml:space="preserve" y="9.7736" clip-path="url(#clipPath2)" stroke="none">HAProxy</text>
    </g>
    <g fill="white" text-rendering="geometricPrecision" shape-rendering="geometricPrecision" transform="matrix(1,0,0,1,-80,250)" stroke="white">
      <path d="M401.9833 -184.6667 L416.9833 -199.6667 L431.9833 -184.6667 L416.9833 -169.6667 Z" fill-rule="evenodd" clip-path="url(#clipPath2)" stroke="none"/>
    </g>
    <g text-rendering="geometricPrecision" stroke-miterlimit="1.45" shape-rendering="geometricPrecision" transform="matrix(1,0,0,1,-80,250)" stroke-linecap="butt">
      <path fill="none" d="M401.9833 -184.6667 L416.9833 -199.6667 L431.9833 -184.6667 L416.9833 -169.6667 Z" fill-rule="evenodd" clip-path="url(#clipPath2)"/>
    </g>
    <g fill="rgb(255,255,153)" text-rendering="geometricPrecision" shape-rendering="geometricPrecision" transform="matrix(1,0,0,1,-80,250)" stroke="rgb(255,255,153)">
      <path d="M516.5529 -234.1667 L728.5529 -234.1667 L728.5529 -219.1667 L743.5529 -219.1667 L743.5529 -135.1667 L516.5529 -135.1667 Z" stroke="none" clip-path="url(#clipPath2)"/>
      <path fill="white" d="M728.5529 -234.1667 L728.5529 -219.1667 L743.5529 -219.1667 Z" clip-path="url(#clipPath2)" fill-rule="evenodd" stroke="none"/>
    </g>
    <g text-rendering="geometricPrecision" stroke-miterlimit="1.45" shape-rendering="geometricPrecision" transform="matrix(1,0,0,1,-80,250)" stroke-linecap="butt">
      <path fill="none" d="M516.5529 -234.1667 L728.5529 -234.1667 L728.5529 -219.1667 L743.5529 -219.1667 L743.5529 -135.1667 L516.5529 -135.1667 Z" clip-path="url(#clipPath2)"/>
      <path fill="none" d="M728.5529 -234.1667 L728.5529 -219.1667 L743.5529 -219.1667 Z" clip-path="url(#clipPath2)" fill-rule="evenodd"/>
      <text x="605.0236" font-size="10px" y="-210.3063" clip-path="url(#clipPath2)" font-family="sans-serif" stroke="none" xml:space="preserve">valtionavustukset.oph.fi</text>
      <text x="618.6564" font-size="10px" y="-198.6657" clip-path="url(#clipPath2)" font-family="sans-serif" stroke="none" xml:space="preserve">statsunderstod.oph.fi</text>
      <text x="559.8771" font-size="10px" y="-187.0251" clip-path="url(#clipPath2)" font-family="sans-serif" stroke="none" xml:space="preserve">virkailija.valtionavustukset.oph.fi</text>
      <text x="579.8625" font-size="10px" y="-175.3844" clip-path="url(#clipPath2)" font-family="sans-serif" stroke="none" xml:space="preserve">testi.valtionavustukset.oph.fi</text>
      <text x="534.716" font-size="10px" y="-163.7438" clip-path="url(#clipPath2)" font-family="sans-serif" stroke="none" xml:space="preserve">testi.virkailija.valtionavustukset.oph.fi</text>
      <text x="583.4269" font-size="10px" y="-152.1032" clip-path="url(#clipPath2)" font-family="sans-serif" stroke="none" xml:space="preserve">dev.valtionavustukset.oph.fi</text>
    </g>
    <g fill="rgb(255,255,153)" text-rendering="geometricPrecision" shape-rendering="geometricPrecision" transform="matrix(1,0,0,1,-80,250)" stroke="rgb(255,255,153)">
      <path d="M95.8369 -195.2667 L239.8369 -195.2667 L239.8369 -180.2667 L254.8369 -180.2667 L254.8369 -142.2667 L95.8369 -142.2667 Z" stroke="none" clip-path="url(#clipPath2)"/>
      <path fill="white" d="M239.8369 -195.2667 L239.8369 -180.2667 L254.8369 -180.2667 Z" clip-path="url(#clipPath2)" fill-rule="evenodd" stroke="none"/>
    </g>
    <g text-rendering="geometricPrecision" stroke-miterlimit="1.45" shape-rendering="geometricPrecision" transform="matrix(1,0,0,1,-80,250)" stroke-linecap="butt">
      <path fill="none" d="M95.8369 -195.2667 L239.8369 -195.2667 L239.8369 -180.2667 L254.8369 -180.2667 L254.8369 -142.2667 L95.8369 -142.2667 Z" clip-path="url(#clipPath2)"/>
      <path fill="none" d="M239.8369 -195.2667 L239.8369 -180.2667 L254.8369 -180.2667 Z" clip-path="url(#clipPath2)" fill-rule="evenodd"/>
      <text x="156.6333" font-size="10px" y="-171.1251" clip-path="url(#clipPath2)" font-family="sans-serif" stroke="none" xml:space="preserve">Kaikille koneille</text>
      <text x="116.2329" font-size="10px" y="-159.4844" clip-path="url(#clipPath2)" font-family="sans-serif" stroke="none" xml:space="preserve">SSH-yhteys internetistä</text>
      <path fill="none" d="M386.9844 243.5633 L216.4339 175.1589" clip-path="url(#clipPath2)"/>
      <path d="M209.0089 172.1808 L218.2852 181.2885 L217.362 175.5311 L222.0077 172.0072 Z" clip-path="url(#clipPath2)" stroke="none"/>
      <text x="222.5585" xml:space="preserve" y="252.5916" clip-path="url(#clipPath2)" font-family="sans-serif" stroke="none">SSH</text>
      <path fill="none" d="M436.4254 243.5795 L627.3927 174.8933" clip-path="url(#clipPath2)"/>
      <path d="M634.9206 172.1857 L621.9365 171.5422 L626.4517 175.2318 L625.321 180.952 Z" clip-path="url(#clipPath2)" stroke="none"/>
      <text x="598.3732" xml:space="preserve" y="255.3188" clip-path="url(#clipPath2)" font-family="sans-serif" stroke="none">SSH</text>
      <path fill="none" d="M496.475 13.5078 L627.6462 70.021" clip-path="url(#clipPath2)"/>
      <path d="M634.9933 73.1864 L625.951 63.8463 L626.7278 69.6253 L621.9942 73.0302 Z" clip-path="url(#clipPath2)" stroke="none"/>
      <text x="600.7758" xml:space="preserve" y="37.9221" clip-path="url(#clipPath2)" font-family="sans-serif" stroke="none">HTTP (8081, 6071)</text>
      <text x="645.0493" xml:space="preserve" y="51.8908" clip-path="url(#clipPath2)" font-family="sans-serif" stroke="none">SSH</text>
      <path fill="none" d="M337.4785 15.1678 L216.2877 69.9027" clip-path="url(#clipPath2)"/>
      <path d="M208.9968 73.1956 L221.9911 72.8131 L217.199 69.4911 L217.875 63.6995 Z" clip-path="url(#clipPath2)" stroke="none"/>
      <text x="128.6059" xml:space="preserve" y="17.1984" clip-path="url(#clipPath2)" font-family="sans-serif" stroke="none">HTTP (8081, 6071)</text>
      <text x="172.8793" xml:space="preserve" y="31.1671" clip-path="url(#clipPath2)" font-family="sans-serif" stroke="none">SSH</text>
      <path fill="none" d="M415.2728 21.7759 L415.2728 235.5836" clip-path="url(#clipPath2)"/>
      <path d="M415.2728 243.5836 L420.2728 231.5836 L415.2728 234.5836 L410.2728 231.5836 Z" clip-path="url(#clipPath2)" stroke="none"/>
      <text x="349.9056" xml:space="preserve" y="136.828" clip-path="url(#clipPath2)" font-family="sans-serif" stroke="none">HTTP (80)</text>
      <path fill="none" d="M416.9833 -169.6959 L416.9833 -71.2402" clip-path="url(#clipPath2)"/>
      <path d="M416.9833 -63.2402 L421.9833 -75.2402 L416.9833 -72.2402 L411.9833 -75.2402 Z" clip-path="url(#clipPath2)" stroke="none"/>
      <text x="420.9833" xml:space="preserve" y="-146.403" clip-path="url(#clipPath2)" font-family="sans-serif" stroke="none">HTTPS (443)</text>
      <text x="428.6093" xml:space="preserve" y="-132.4342" clip-path="url(#clipPath2)" font-family="sans-serif" stroke="none">HTTP (80)</text>
      <text x="446.164" xml:space="preserve" y="-118.4655" clip-path="url(#clipPath2)" font-family="sans-serif" stroke="none">SSH</text>
      <path fill="none" stroke-dasharray="6,2" d="M516.5736 -184.6667 L432.0094 -184.6667" clip-path="url(#clipPath2)"/>
      <path fill="none" stroke-dasharray="6,2" d="M197.9266 -142.2402 L223.4518 -112.2667" clip-path="url(#clipPath2)"/>
    </g>
  </g>
</svg>
