<?xml version="1.0" encoding="UTF-8"?><svg xmlns="http://www.w3.org/2000/svg" xmlns:xlink="http://www.w3.org/1999/xlink" fill-opacity="1" color-rendering="auto" color-interpolation="auto" text-rendering="auto" stroke="black" stroke-linecap="square" width="640" stroke-miterlimit="10" shape-rendering="auto" stroke-opacity="1" fill="black" stroke-dasharray="none" font-weight="normal" stroke-width="1" height="752" font-family="'Dialog'" font-style="normal" stroke-linejoin="miter" font-size="12px" stroke-dashoffset="0" image-rendering="auto">
  <!--Generated by ySVG 2.5-->
  <defs id="genericDefs"/>
  <g>
    <defs id="defs1">
      <linearGradient x1="418.9833" gradientUnits="userSpaceOnUse" x2="458.6456" y1="94.1866" y2="132.0815" id="linearGradient1" spreadMethod="pad">
        <stop stop-opacity="0.8627" stop-color="rgb(255,255,255)" offset="0%"/>
        <stop stop-opacity="0.1255" stop-color="rgb(255,255,255)" offset="100%"/>
      </linearGradient>
      <linearGradient x1="124.9833" gradientUnits="userSpaceOnUse" x2="164.6456" y1="94.1866" y2="132.0815" id="linearGradient2" spreadMethod="pad">
        <stop stop-opacity="0.8627" stop-color="rgb(255,255,255)" offset="0%"/>
        <stop stop-opacity="0.1255" stop-color="rgb(255,255,255)" offset="100%"/>
      </linearGradient>
      <linearGradient x1="264.7673" gradientUnits="userSpaceOnUse" x2="296.6345" y1="388.5874" y2="432.7745" id="linearGradient3" spreadMethod="pad">
        <stop stop-opacity="0.8627" stop-color="rgb(255,255,255)" offset="0%"/>
        <stop stop-opacity="0.1255" stop-color="rgb(255,255,255)" offset="100%"/>
      </linearGradient>
      <linearGradient x1="267.9833" gradientUnits="userSpaceOnUse" x2="301.4912" y1="-63.24" y2="-25.2011" id="linearGradient4" spreadMethod="pad">
        <stop stop-opacity="0.8627" stop-color="rgb(255,255,255)" offset="0%"/>
        <stop stop-opacity="0.1255" stop-color="rgb(255,255,255)" offset="100%"/>
      </linearGradient>
      <clipPath clipPathUnits="userSpaceOnUse" id="clipPath1">
        <path d="M0 0 L640 0 L640 752 L0 752 L0 0 Z"/>
      </clipPath>
      <clipPath clipPathUnits="userSpaceOnUse" id="clipPath2">
        <path d="M36 -225 L676 -225 L676 527 L36 527 L36 -225 Z"/>
      </clipPath>
    </defs>
    <g fill="white" text-rendering="geometricPrecision" shape-rendering="geometricPrecision" transform="translate(-36,225)" stroke="white">
      <rect x="36" width="640" height="752" y="-225" clip-path="url(#clipPath2)" stroke="none"/>
    </g>
    <g text-rendering="geometricPrecision" stroke-miterlimit="1.45" shape-rendering="geometricPrecision" font-family="sans-serif" transform="matrix(1,0,0,1,-36,225)" stroke-linecap="butt">
      <text x="110.5952" xml:space="preserve" y="-88.0651" clip-path="url(#clipPath2)" stroke="none">Valtionavustus CSC</text>
      <text x="104.6977" xml:space="preserve" y="-73.9323" clip-path="url(#clipPath2)" stroke="none">VMWare environment</text>
      <rect x="98.6977" y="-105.6667" clip-path="url(#clipPath2)" fill="none" width="472.1392" stroke-dasharray="6,2" height="336.254"/>
    </g>
    <g text-rendering="geometricPrecision" stroke-miterlimit="1.45" shape-rendering="geometricPrecision" transform="matrix(1,0,0,1,-36,225)" stroke-linecap="butt">
      <rect x="418.9833" y="94.1866" clip-path="url(#clipPath2)" fill="none" width="117" rx="1.5" ry="1.5" height="99"/>
    </g>
    <g fill="url(#linearGradient1)" text-rendering="geometricPrecision" shape-rendering="geometricPrecision" transform="matrix(1,0,0,1,-36,225)" stroke="url(#linearGradient1)">
      <path d="M419.7333 97.1866 Q419.7333 94.9366 421.9833 94.9366 L492.0333 94.9366 Q494.2833 94.9366 494.2833 97.1866 Q494.2833 99.4366 459.2583 136.0366 Q424.2333 172.6366 421.9833 172.6366 Q419.7333 172.6366 419.7333 170.3866 Z" stroke="none" clip-path="url(#clipPath2)"/>
    </g>
    <g text-rendering="geometricPrecision" stroke-miterlimit="1.45" shape-rendering="geometricPrecision" font-family="sans-serif" transform="matrix(1,0,0,1,-36,225)" stroke-linecap="butt">
      <text x="453.8994" xml:space="preserve" y="111.7882" clip-path="url(#clipPath2)" stroke="none">va-prod</text>
      <text x="456.1288" xml:space="preserve" y="125.921" clip-path="url(#clipPath2)" stroke="none">CentOS</text>
      <text x="426.9579" xml:space="preserve" y="140.0538" clip-path="url(#clipPath2)" stroke="none">2 core, 4GB RAM,</text>
      <text x="444.3398" xml:space="preserve" y="154.1866" clip-path="url(#clipPath2)" stroke="none">500GB disk</text>
      <text x="452.3759" xml:space="preserve" y="168.3194" clip-path="url(#clipPath2)" stroke="none">HTTP Kit</text>
      <text x="433.163" xml:space="preserve" y="182.4522" clip-path="url(#clipPath2)" stroke="none">PostgreSQL 9.4</text>
    </g>
    <g text-rendering="geometricPrecision" stroke-miterlimit="1.45" shape-rendering="geometricPrecision" transform="matrix(1,0,0,1,-36,225)" stroke-linecap="butt">
      <rect x="124.9833" y="94.1866" clip-path="url(#clipPath2)" fill="none" width="117" rx="1.5" ry="1.5" height="99"/>
    </g>
    <g fill="url(#linearGradient2)" text-rendering="geometricPrecision" shape-rendering="geometricPrecision" transform="matrix(1,0,0,1,-36,225)" stroke="url(#linearGradient2)">
      <path d="M125.7333 97.1866 Q125.7333 94.9366 127.9833 94.9366 L198.0334 94.9366 Q200.2834 94.9366 200.2834 97.1866 Q200.2834 99.4366 165.2583 136.0366 Q130.2333 172.6366 127.9833 172.6366 Q125.7333 172.6366 125.7333 170.3866 Z" stroke="none" clip-path="url(#clipPath2)"/>
    </g>
    <g text-rendering="geometricPrecision" stroke-miterlimit="1.45" shape-rendering="geometricPrecision" font-family="sans-serif" transform="matrix(1,0,0,1,-36,225)" stroke-linecap="butt">
      <text x="162.7031" xml:space="preserve" y="111.7882" clip-path="url(#clipPath2)" stroke="none">va-test</text>
      <text x="162.1288" xml:space="preserve" y="125.921" clip-path="url(#clipPath2)" stroke="none">CentOS</text>
      <text x="132.9579" xml:space="preserve" y="140.0538" clip-path="url(#clipPath2)" stroke="none">2 core, 4GB RAM,</text>
      <text x="148.4413" xml:space="preserve" y="154.1866" clip-path="url(#clipPath2)" stroke="none">500 GB disk</text>
      <text x="158.3759" xml:space="preserve" y="168.3194" clip-path="url(#clipPath2)" stroke="none">HTTP Kit</text>
      <text x="139.163" xml:space="preserve" y="182.4522" clip-path="url(#clipPath2)" stroke="none">PostgreSQL 9.4</text>
    </g>
    <g text-rendering="geometricPrecision" stroke-miterlimit="1.45" shape-rendering="geometricPrecision" transform="matrix(1,0,0,1,-36,225)" stroke-linecap="butt">
      <rect x="264.7673" y="388.5874" clip-path="url(#clipPath2)" fill="none" width="140" rx="1.5" ry="1.5" height="85"/>
    </g>
    <g fill="url(#linearGradient3)" text-rendering="geometricPrecision" shape-rendering="geometricPrecision" transform="matrix(1,0,0,1,-36,225)" stroke="url(#linearGradient3)">
      <path d="M265.5173 391.5874 Q265.5173 389.3374 267.7673 389.3374 L352.7673 389.3374 Q355.0173 389.3374 355.0173 391.5874 Q355.0173 393.8374 312.5173 424.8374 Q270.0173 455.8374 267.7673 455.8374 Q265.5173 455.8374 265.5173 453.5874 Z" stroke="none" clip-path="url(#clipPath2)"/>
    </g>
    <g text-rendering="geometricPrecision" stroke-miterlimit="1.45" shape-rendering="geometricPrecision" font-family="sans-serif" transform="matrix(1,0,0,1,-36,225)" stroke-linecap="butt">
      <text x="310.1315" xml:space="preserve" y="406.1889" clip-path="url(#clipPath2)" stroke="none">va-build</text>
      <text x="280.4479" xml:space="preserve" y="420.3217" clip-path="url(#clipPath2)" stroke="none">4 core, 15GB RAM,</text>
      <text x="270.7448" xml:space="preserve" y="434.4546" clip-path="url(#clipPath2)" stroke="none">100GB persistent disk</text>
      <text x="318.1647" xml:space="preserve" y="448.5874" clip-path="url(#clipPath2)" stroke="none">nginx</text>
      <text x="313.8112" xml:space="preserve" y="462.7202" clip-path="url(#clipPath2)" stroke="none">Jenkins</text>
    </g>
    <g text-rendering="geometricPrecision" stroke-miterlimit="1.45" shape-rendering="geometricPrecision" transform="matrix(1,0,0,1,-36,225)" stroke-linecap="butt">
      <rect x="267.9833" y="-63.24" clip-path="url(#clipPath2)" fill="none" width="117" rx="1.5" ry="1.5" height="85"/>
    </g>
    <g fill="url(#linearGradient4)" text-rendering="geometricPrecision" shape-rendering="geometricPrecision" transform="matrix(1,0,0,1,-36,225)" stroke="url(#linearGradient4)">
      <path d="M268.7333 -60.24 Q268.7333 -62.49 270.9833 -62.49 L341.0333 -62.49 Q343.2833 -62.49 343.2833 -60.24 Q343.2833 -57.99 308.2583 -26.99 Q273.2333 4.01 270.9833 4.01 Q268.7333 4.01 268.7333 1.76 Z" stroke="none" clip-path="url(#clipPath2)"/>
    </g>
    <g text-rendering="geometricPrecision" stroke-miterlimit="1.45" shape-rendering="geometricPrecision" font-family="sans-serif" transform="matrix(1,0,0,1,-36,225)" stroke-linecap="butt">
      <text x="279.3505" xml:space="preserve" y="-45.6385" clip-path="url(#clipPath2)" stroke="none">va-loadbalancer</text>
      <text x="305.1288" xml:space="preserve" y="-31.5057" clip-path="url(#clipPath2)" stroke="none">CentOS</text>
      <text x="275.9579" xml:space="preserve" y="-17.3728" clip-path="url(#clipPath2)" stroke="none">2 core, 4GB RAM,</text>
      <text x="294.579" xml:space="preserve" y="-3.24" clip-path="url(#clipPath2)" stroke="none">50GB levyä</text>
      <text x="301.663" xml:space="preserve" y="10.8928" clip-path="url(#clipPath2)" stroke="none">HAProxy</text>
    </g>
    <g fill="white" text-rendering="geometricPrecision" shape-rendering="geometricPrecision" transform="matrix(1,0,0,1,-36,225)" stroke="white">
      <path d="M311.4833 -166.6667 L326.4833 -181.6667 L341.4833 -166.6667 L326.4833 -151.6667 Z" fill-rule="evenodd" clip-path="url(#clipPath2)" stroke="none"/>
    </g>
    <g text-rendering="geometricPrecision" stroke-miterlimit="1.45" shape-rendering="geometricPrecision" transform="matrix(1,0,0,1,-36,225)" stroke-linecap="butt">
      <path fill="none" d="M311.4833 -166.6667 L326.4833 -181.6667 L341.4833 -166.6667 L326.4833 -151.6667 Z" fill-rule="evenodd" clip-path="url(#clipPath2)"/>
    </g>
    <g fill="rgb(255,255,153)" text-rendering="geometricPrecision" shape-rendering="geometricPrecision" transform="matrix(1,0,0,1,-36,225)" stroke="rgb(255,255,153)">
      <path d="M433.8369 -209.1667 L645.8369 -209.1667 L645.8369 -194.1667 L660.8369 -194.1667 L660.8369 -124.1667 L433.8369 -124.1667 Z" stroke="none" clip-path="url(#clipPath2)"/>
      <path fill="white" d="M645.8369 -209.1667 L645.8369 -194.1667 L660.8369 -194.1667 Z" clip-path="url(#clipPath2)" fill-rule="evenodd" stroke="none"/>
    </g>
    <g text-rendering="geometricPrecision" stroke-miterlimit="1.45" shape-rendering="geometricPrecision" transform="matrix(1,0,0,1,-36,225)" stroke-linecap="butt">
      <path fill="none" d="M433.8369 -209.1667 L645.8369 -209.1667 L645.8369 -194.1667 L660.8369 -194.1667 L660.8369 -124.1667 L433.8369 -124.1667 Z" clip-path="url(#clipPath2)"/>
      <path fill="none" d="M645.8369 -209.1667 L645.8369 -194.1667 L660.8369 -194.1667 Z" clip-path="url(#clipPath2)" fill-rule="evenodd"/>
      <text x="523.2475" font-size="10px" y="-186.4421" clip-path="url(#clipPath2)" font-family="sans-serif" stroke="none" xml:space="preserve">valtionavustukset.oph.fi</text>
      <text x="535.1762" font-size="10px" y="-174.6647" clip-path="url(#clipPath2)" font-family="sans-serif" stroke="none" xml:space="preserve">statsunderstod.oph.fi</text>
      <text x="479.3217" font-size="10px" y="-162.8874" clip-path="url(#clipPath2)" font-family="sans-serif" stroke="none" xml:space="preserve">virkailija.valtionavustukset.oph.fi</text>
      <text x="499.0434" font-size="10px" y="-151.11" clip-path="url(#clipPath2)" font-family="sans-serif" stroke="none" xml:space="preserve">testi.valtionavustukset.oph.fi</text>
      <text x="455.1176" font-size="10px" y="-139.3327" clip-path="url(#clipPath2)" font-family="sans-serif" stroke="none" xml:space="preserve">testi.virkailija.valtionavustukset.oph.fi</text>
      <text x="221.986" xml:space="preserve" y="503.3102" clip-path="url(#clipPath2)" font-family="sans-serif" stroke="none">Valtionavustus CSC Pouta environment</text>
      <rect x="98.6977" y="372.5874" clip-path="url(#clipPath2)" fill="none" width="472.1392" stroke-dasharray="6,2" height="139.254"/>
    </g>
    <g fill="white" text-rendering="geometricPrecision" shape-rendering="geometricPrecision" transform="matrix(1,0,0,1,-36,225)" stroke="white">
      <path d="M319.7673 327.5874 L334.7673 312.5873 L349.7673 327.5874 L334.7673 342.5874 Z" fill-rule="evenodd" clip-path="url(#clipPath2)" stroke="none"/>
    </g>
    <g text-rendering="geometricPrecision" stroke-miterlimit="1.45" shape-rendering="geometricPrecision" font-family="sans-serif" transform="matrix(1,0,0,1,-36,225)" stroke-linecap="butt">
      <text x="355.7673" xml:space="preserve" y="332.1225" clip-path="url(#clipPath2)" stroke="none">86.50.168.174</text>
      <path fill="none" d="M319.7673 327.5874 L334.7673 312.5873 L349.7673 327.5874 L334.7673 342.5874 Z" clip-path="url(#clipPath2)" fill-rule="evenodd"/>
    </g>
    <g fill="rgb(255,255,153)" text-rendering="geometricPrecision" shape-rendering="geometricPrecision" transform="matrix(1,0,0,1,-36,225)" stroke="rgb(255,255,153)">
      <path d="M51.9334 303.5874 L234.9334 303.5874 L234.9334 318.5874 L249.9334 318.5874 L249.9334 351.5874 L51.9334 351.5874 Z" stroke="none" clip-path="url(#clipPath2)"/>
      <path fill="white" d="M234.9334 303.5874 L234.9334 318.5874 L249.9334 318.5874 Z" clip-path="url(#clipPath2)" fill-rule="evenodd" stroke="none"/>
    </g>
    <g text-rendering="geometricPrecision" stroke-miterlimit="1.45" shape-rendering="geometricPrecision" transform="matrix(1,0,0,1,-36,225)" stroke-linecap="butt">
      <path fill="none" d="M51.9334 303.5874 L234.9334 303.5874 L234.9334 318.5874 L249.9334 318.5874 L249.9334 351.5874 L51.9334 351.5874 Z" clip-path="url(#clipPath2)"/>
      <path fill="none" d="M234.9334 303.5874 L234.9334 318.5874 L249.9334 318.5874 Z" clip-path="url(#clipPath2)" fill-rule="evenodd"/>
      <text x="82.6765" font-size="10px" y="331.3667" clip-path="url(#clipPath2)" font-family="sans-serif" stroke="none" xml:space="preserve">dev.valtionavustukset.oph.fi</text>
      <path fill="none" d="M382.3342 21.7681 L471.1174 89.3412" clip-path="url(#clipPath2)"/>
      <path d="M477.4833 94.1864 L470.9627 82.94 L470.3217 88.7356 L464.9063 90.8974 Z" clip-path="url(#clipPath2)" stroke="none"/>
      <text x="445.7136" xml:space="preserve" y="62.4307" clip-path="url(#clipPath2)" font-family="sans-serif" stroke="none">HTTP / SSH</text>
      <path fill="none" d="M273.5915 21.7768 L189.7406 89.1799" clip-path="url(#clipPath2)"/>
      <path d="M183.5053 94.1921 L195.9908 90.5709 L190.52 88.5534 L189.7256 82.7768 Z" clip-path="url(#clipPath2)" stroke="none"/>
      <text x="119.8019" xml:space="preserve" y="60.6778" clip-path="url(#clipPath2)" font-family="sans-serif" stroke="none">HTTP / SSH</text>
      <path fill="none" d="M326.4833 -151.6426 L326.4833 -71.2402" clip-path="url(#clipPath2)"/>
      <path d="M326.4833 -63.2402 L331.4833 -75.2402 L326.4833 -72.2402 L321.4833 -75.2402 Z" clip-path="url(#clipPath2)" stroke="none"/>
      <text x="330.4833" xml:space="preserve" y="-127.9401" clip-path="url(#clipPath2)" font-family="sans-serif" stroke="none">HTTPS / SSH</text>
      <path fill="none" stroke-dasharray="6,2" d="M433.8637 -166.6667 L341.5051 -166.6667" clip-path="url(#clipPath2)"/>
      <path fill="none" d="M334.7673 342.5594 L334.7673 372.5874" clip-path="url(#clipPath2)"/>
      <path fill="none" d="M326.8264 320.5314 L189.4986 198.5083" clip-path="url(#clipPath2)"/>
      <path d="M183.5183 193.1945 L189.1676 204.9028 L190.2461 199.1725 L195.8099 197.4275 Z" clip-path="url(#clipPath2)" stroke="none"/>
      <path fill="none" d="M342.4675 320.3343 L471.627 198.6759" clip-path="url(#clipPath2)"/>
      <path d="M477.4504 193.1906 L465.287 197.7788 L470.899 199.3615 L472.1435 205.0581 Z" clip-path="url(#clipPath2)" stroke="none"/>
      <path fill="none" stroke-dasharray="6,2" d="M249.8967 327.5874 L319.8072 327.5874" clip-path="url(#clipPath2)"/>
    </g>
  </g>
</svg>
