<svg width="19" height="19" viewBox="0 0 19 19" fill="none"
  xmlns="http://www.w3.org/2000/svg">
  <circle cx="9.5" cy="9.5" r="9.5" fill="#159ECB"/>
  <path d="M10.7607 14.7148H9.09961V7.31836H10.7607V14.7148ZM8.99707 5.39746C8.99707 5.14225 9.07682 4.93034 9.23633 4.76172C9.40039 4.5931 9.63281 4.50879 9.93359 4.50879C10.2344 4.50879 10.4668 4.5931 10.6309 4.76172C10.7949 4.93034 10.877 5.14225 10.877 5.39746C10.877 5.64811 10.7949 5.85775 10.6309 6.02637C10.4668 6.19043 10.2344 6.27246 9.93359 6.27246C9.63281 6.27246 9.40039 6.19043 9.23633 6.02637C9.07682 5.85775 8.99707 5.64811 8.99707 5.39746Z" fill="white"/>
</svg>
